<svg width="226" height="10" viewBox="0 0 226 10" fill="none" xmlns="http://www.w3.org/2000/svg">
<path d="M-0.000834562 7.66531V0.577123H1.01176V6.78435H4.84951V7.66531H-0.000834562ZM8.09909 7.72607C7.55903 7.72607 7.07974 7.60793 6.66119 7.37166C6.24265 7.13539 5.91187 6.81136 5.66885 6.39957C5.42582 5.98103 5.30431 5.50848 5.30431 4.98193C5.30431 4.44863 5.42582 3.97608 5.66885 3.56429C5.91187 3.1525 6.24265 2.83184 6.66119 2.60232C7.07974 2.36605 7.55903 2.24791 8.09909 2.24791C8.63239 2.24791 9.10831 2.36605 9.52685 2.60232C9.95214 2.83184 10.2829 3.1525 10.5192 3.56429C10.7622 3.96933 10.8837 4.44187 10.8837 4.98193C10.8837 5.51523 10.7622 5.98778 10.5192 6.39957C10.2829 6.81136 9.95214 7.13539 9.52685 7.37166C9.10831 7.60793 8.63239 7.72607 8.09909 7.72607ZM8.09909 6.87549C8.44337 6.87549 8.75052 6.79785 9.02055 6.64259C9.29733 6.48732 9.51335 6.26793 9.66861 5.9844C9.82388 5.69412 9.90151 5.35996 9.90151 4.98193C9.90151 4.59714 9.82388 4.26636 9.66861 3.98958C9.51335 3.70605 9.29733 3.48666 9.02055 3.33139C8.75052 3.17613 8.44337 3.09849 8.09909 3.09849C7.7548 3.09849 7.44765 3.17613 7.17762 3.33139C6.90759 3.48666 6.69157 3.70605 6.52956 3.98958C6.36754 4.26636 6.28653 4.59714 6.28653 4.98193C6.28653 5.35996 6.36754 5.69412 6.52956 5.9844C6.69157 6.26793 6.90759 6.48732 7.17762 6.64259C7.44765 6.79785 7.7548 6.87549 8.09909 6.87549ZM14.5672 7.72607C14.0204 7.72607 13.531 7.60793 13.099 7.37166C12.6737 7.13539 12.3395 6.81136 12.0965 6.39957C11.8535 5.98778 11.7319 5.51523 11.7319 4.98193C11.7319 4.44863 11.8535 3.97608 12.0965 3.56429C12.3395 3.1525 12.6737 2.83184 13.099 2.60232C13.531 2.36605 14.0204 2.24791 14.5672 2.24791C15.0533 2.24791 15.4853 2.3458 15.8633 2.54156C16.2481 2.73058 16.5452 3.01411 16.7544 3.39215L16.0152 3.86807C15.8397 3.60479 15.6237 3.4124 15.3672 3.29089C15.1174 3.16262 14.8474 3.09849 14.5571 3.09849C14.2061 3.09849 13.8922 3.17613 13.6154 3.33139C13.3386 3.48666 13.1192 3.70605 12.9572 3.98958C12.7952 4.26636 12.7142 4.59714 12.7142 4.98193C12.7142 5.36672 12.7952 5.70087 12.9572 5.9844C13.1192 6.26793 13.3386 6.48732 13.6154 6.64259C13.8922 6.79785 14.2061 6.87549 14.5571 6.87549C14.8474 6.87549 15.1174 6.81473 15.3672 6.69322C15.6237 6.56496 15.8397 6.36919 16.0152 6.10591L16.7544 6.57171C16.5452 6.94299 16.2481 7.2299 15.8633 7.43242C15.4853 7.62819 15.0533 7.72607 14.5672 7.72607ZM21.3444 7.66531V6.5312L21.2938 6.31856V4.38449C21.2938 3.9727 21.1723 3.65542 20.9293 3.43265C20.693 3.20313 20.3352 3.08837 19.8559 3.08837C19.5386 3.08837 19.2281 3.14237 18.9243 3.25038C18.6205 3.35164 18.364 3.49003 18.1547 3.66555L17.7497 2.93648C18.0265 2.71371 18.3573 2.54494 18.7421 2.43018C19.1336 2.30867 19.542 2.24791 19.9673 2.24791C20.7031 2.24791 21.2702 2.4268 21.6685 2.78459C22.0668 3.14237 22.2659 3.68918 22.2659 4.425V7.66531H21.3444ZM19.5825 7.72607C19.1842 7.72607 18.8332 7.65856 18.5294 7.52355C18.2324 7.38854 18.0029 7.20289 17.8408 6.96662C17.6788 6.7236 17.5978 6.4502 17.5978 6.14642C17.5978 5.85614 17.6653 5.59286 17.8003 5.35659C17.9421 5.12032 18.1682 4.9313 18.4788 4.78953C18.7961 4.64777 19.2213 4.57689 19.7547 4.57689H21.4558V5.27558H19.7952C19.3091 5.27558 18.9817 5.35659 18.8129 5.5186C18.6442 5.68062 18.5598 5.87639 18.5598 6.10591C18.5598 6.36919 18.6644 6.58183 18.8737 6.74385C19.083 6.89911 19.3732 6.97675 19.7445 6.97675C20.1091 6.97675 20.4263 6.89574 20.6964 6.73372C20.9731 6.57171 21.1723 6.33543 21.2938 6.0249L21.4862 6.69322C21.3579 7.0105 21.1318 7.26365 20.8078 7.45267C20.4837 7.63494 20.0753 7.72607 19.5825 7.72607ZM25.9078 7.72607C25.3677 7.72607 24.9492 7.58093 24.6521 7.29065C24.3551 7.00037 24.2066 6.58521 24.2066 6.04516V1.12393H25.1787V6.00465C25.1787 6.29493 25.2496 6.5177 25.3913 6.67297C25.5399 6.82823 25.7491 6.90587 26.0192 6.90587C26.3229 6.90587 26.5761 6.82148 26.7786 6.65272L27.0824 7.35141C26.9339 7.47967 26.755 7.57418 26.5457 7.63494C26.3432 7.69569 26.1305 7.72607 25.9078 7.72607ZM23.2953 3.09849V2.29854H26.7178V3.09849H23.2953ZM28.2576 7.66531V2.29854H29.2297V7.66531H28.2576ZM28.7437 1.26569C28.5547 1.26569 28.396 1.20493 28.2678 1.08342C28.1462 0.96191 28.0855 0.813396 28.0855 0.637879C28.0855 0.455611 28.1462 0.303721 28.2678 0.182209C28.396 0.0606975 28.5547 -5.84358e-05 28.7437 -5.84358e-05C28.9327 -5.84358e-05 29.088 0.0606975 29.2095 0.182209C29.3377 0.29697 29.4019 0.442109 29.4019 0.617627C29.4019 0.799895 29.3411 0.95516 29.2196 1.08342C29.0981 1.20493 28.9394 1.26569 28.7437 1.26569ZM33.3844 7.72607C32.8443 7.72607 32.365 7.60793 31.9465 7.37166C31.528 7.13539 31.1972 6.81136 30.9541 6.39957C30.7111 5.98103 30.5896 5.50848 30.5896 4.98193C30.5896 4.44863 30.7111 3.97608 30.9541 3.56429C31.1972 3.1525 31.528 2.83184 31.9465 2.60232C32.365 2.36605 32.8443 2.24791 33.3844 2.24791C33.9177 2.24791 34.3936 2.36605 34.8122 2.60232C35.2374 2.83184 35.5682 3.1525 35.8045 3.56429C36.0475 3.96933 36.169 4.44187 36.169 4.98193C36.169 5.51523 36.0475 5.98778 35.8045 6.39957C35.5682 6.81136 35.2374 7.13539 34.8122 7.37166C34.3936 7.60793 33.9177 7.72607 33.3844 7.72607ZM33.3844 6.87549C33.7287 6.87549 34.0358 6.79785 34.3059 6.64259C34.5826 6.48732 34.7987 6.26793 34.9539 5.9844C35.1092 5.69412 35.1868 5.35996 35.1868 4.98193C35.1868 4.59714 35.1092 4.26636 34.9539 3.98958C34.7987 3.70605 34.5826 3.48666 34.3059 3.33139C34.0358 3.17613 33.7287 3.09849 33.3844 3.09849C33.0401 3.09849 32.7329 3.17613 32.4629 3.33139C32.1929 3.48666 31.9769 3.70605 31.8149 3.98958C31.6528 4.26636 31.5718 4.59714 31.5718 4.98193C31.5718 5.35996 31.6528 5.69412 31.8149 5.9844C31.9769 6.26793 32.1929 6.48732 32.4629 6.64259C32.7329 6.79785 33.0401 6.87549 33.3844 6.87549ZM40.3791 2.24791C40.8179 2.24791 41.2027 2.33229 41.5334 2.50106C41.871 2.66983 42.1342 2.92635 42.3233 3.27064C42.5123 3.61492 42.6068 4.05034 42.6068 4.57689V7.66531H41.6347V4.68827C41.6347 4.16847 41.5064 3.77693 41.2499 3.51366C41.0001 3.25038 40.6457 3.11875 40.1867 3.11875C39.8424 3.11875 39.542 3.18625 39.2855 3.32127C39.0289 3.45628 38.8298 3.65542 38.688 3.9187C38.553 4.18197 38.4855 4.50938 38.4855 4.90092V7.66531H37.5134V2.29854H38.445V3.74656L38.2931 3.36177C38.4686 3.01074 38.7387 2.73733 39.1032 2.54156C39.4677 2.3458 39.893 2.24791 40.3791 2.24791ZM44.5577 3.40227C44.4092 3.40227 44.2809 3.34827 44.1729 3.24026C44.0717 3.13225 44.021 3.00061 44.021 2.84534C44.021 2.68333 44.0717 2.55169 44.1729 2.45043C44.2809 2.34917 44.4092 2.29854 44.5577 2.29854C44.7062 2.29854 44.8311 2.34917 44.9324 2.45043C45.0404 2.55169 45.0944 2.68333 45.0944 2.84534C45.0944 3.00061 45.0404 3.13225 44.9324 3.24026C44.8311 3.34827 44.7062 3.40227 44.5577 3.40227ZM44.5577 7.71594C44.4092 7.71594 44.2809 7.66194 44.1729 7.55393C44.0717 7.44592 44.021 7.31428 44.021 7.15901C44.021 6.997 44.0717 6.86536 44.1729 6.7641C44.2809 6.66284 44.4092 6.61221 44.5577 6.61221C44.7062 6.61221 44.8311 6.66284 44.9324 6.7641C45.0404 6.86536 45.0944 6.997 45.0944 7.15901C45.0944 7.31428 45.0404 7.44592 44.9324 7.55393C44.8311 7.66194 44.7062 7.71594 44.5577 7.71594ZM51.389 7.72607C50.8625 7.72607 50.3562 7.64169 49.8701 7.47292C49.3908 7.2974 49.0195 7.07463 48.7563 6.80461L49.0499 6.22742C49.2997 6.47045 49.6339 6.67634 50.0524 6.84511C50.4777 7.00713 50.9232 7.08813 51.389 7.08813C51.8346 7.08813 52.1957 7.03413 52.4725 6.92612C52.756 6.81136 52.9619 6.65947 53.0902 6.47045C53.2252 6.28143 53.2927 6.07216 53.2927 5.84264C53.2927 5.56586 53.2117 5.34309 53.0497 5.17432C52.8944 5.00555 52.6885 4.87392 52.432 4.77941C52.1755 4.67815 51.8919 4.59039 51.5814 4.51613C51.2709 4.44187 50.9604 4.36424 50.6498 4.28323C50.3393 4.19548 50.0524 4.08071 49.7891 3.93895C49.5326 3.79719 49.3233 3.61154 49.1613 3.38202C49.006 3.14575 48.9284 2.83859 48.9284 2.46056C48.9284 2.10952 49.0195 1.78887 49.2018 1.49859C49.3908 1.20156 49.6777 0.965286 50.0625 0.789769C50.4473 0.607501 50.9401 0.516367 51.5409 0.516367C51.9392 0.516367 52.3341 0.573748 52.7257 0.688509C53.1172 0.796519 53.4547 0.948409 53.7383 1.14418L53.4851 1.74161C53.1813 1.53909 52.8573 1.39058 52.513 1.29607C52.1755 1.20156 51.8481 1.1543 51.5308 1.1543C51.1055 1.1543 50.7545 1.21168 50.4777 1.32645C50.2009 1.44121 49.995 1.59647 49.86 1.79224C49.7317 1.98126 49.6676 2.19728 49.6676 2.4403C49.6676 2.71708 49.7452 2.93985 49.9005 3.10862C50.0625 3.27739 50.2718 3.40902 50.5283 3.50353C50.7916 3.59804 51.0785 3.68243 51.389 3.75668C51.6996 3.83094 52.0067 3.91195 52.3105 3.99971C52.621 4.08747 52.9045 4.20223 53.1611 4.34399C53.4243 4.479 53.6336 4.66127 53.7889 4.89079C53.9509 5.12032 54.0319 5.42072 54.0319 5.79201C54.0319 6.13629 53.9374 6.45695 53.7484 6.75398C53.5594 7.04425 53.2691 7.28053 52.8775 7.46279C52.4928 7.63831 51.9966 7.72607 51.389 7.72607ZM55.5127 7.66531V2.34917H56.2316V7.66531H55.5127ZM55.8772 1.17456C55.7287 1.17456 55.6038 1.12393 55.5025 1.02267C55.4013 0.921407 55.3507 0.799895 55.3507 0.658131C55.3507 0.516367 55.4013 0.39823 55.5025 0.303721C55.6038 0.202461 55.7287 0.151831 55.8772 0.151831C56.0257 0.151831 56.1506 0.199086 56.2519 0.293595C56.3531 0.388104 56.4038 0.506241 56.4038 0.648005C56.4038 0.796519 56.3531 0.921407 56.2519 1.02267C56.1574 1.12393 56.0325 1.17456 55.8772 1.17456ZM60.3484 7.71594C59.8421 7.71594 59.3864 7.60118 58.9814 7.37166C58.5831 7.14214 58.2692 6.82486 58.0397 6.41982C57.8101 6.00803 57.6954 5.53548 57.6954 5.00218C57.6954 4.46213 57.8101 3.98958 58.0397 3.58454C58.2692 3.1795 58.5831 2.8656 58.9814 2.64282C59.3864 2.4133 59.8421 2.29854 60.3484 2.29854C60.8142 2.29854 61.2293 2.40318 61.5939 2.61245C61.9652 2.82172 62.2588 3.12887 62.4748 3.53391C62.6976 3.9322 62.809 4.42162 62.809 5.00218C62.809 5.57599 62.701 6.06541 62.485 6.47045C62.269 6.87549 61.9753 7.18602 61.604 7.40204C61.2395 7.61131 60.8209 7.71594 60.3484 7.71594ZM60.399 7.07801C60.7771 7.07801 61.1146 6.99362 61.4116 6.82486C61.7154 6.64934 61.9517 6.40632 62.1204 6.09579C62.296 5.77851 62.3837 5.41397 62.3837 5.00218C62.3837 4.58364 62.296 4.2191 62.1204 3.90857C61.9517 3.59804 61.7154 3.35839 61.4116 3.18963C61.1146 3.01411 60.7771 2.92635 60.399 2.92635C60.0277 2.92635 59.6936 3.01411 59.3965 3.18963C59.0995 3.35839 58.8632 3.59804 58.6877 3.90857C58.5122 4.2191 58.4245 4.58364 58.4245 5.00218C58.4245 5.41397 58.5122 5.77851 58.6877 6.09579C58.8632 6.40632 59.0995 6.64934 59.3965 6.82486C59.6936 6.99362 60.0277 7.07801 60.399 7.07801ZM62.404 7.66531V6.06541L62.4748 4.99205L62.3736 3.9187V0.151831H63.0925V7.66531H62.404ZM67.2111 7.71594C66.7048 7.71594 66.2492 7.60118 65.8441 7.37166C65.4458 7.14214 65.1319 6.82486 64.9024 6.41982C64.6729 6.00803 64.5581 5.53548 64.5581 5.00218C64.5581 4.46213 64.6729 3.98958 64.9024 3.58454C65.1319 3.1795 65.4458 2.8656 65.8441 2.64282C66.2492 2.4133 66.7048 2.29854 67.2111 2.29854C67.6769 2.29854 68.0921 2.40318 68.4566 2.61245C68.8279 2.82172 69.1216 3.12887 69.3376 3.53391C69.5603 3.9322 69.6717 4.42162 69.6717 5.00218C69.6717 5.57599 69.5637 6.06541 69.3477 6.47045C69.1317 6.87549 68.838 7.18602 68.4667 7.40204C68.1022 7.61131 67.6837 7.71594 67.2111 7.71594ZM67.2618 7.07801C67.6398 7.07801 67.9773 6.99362 68.2743 6.82486C68.5781 6.64934 68.8144 6.40632 68.9832 6.09579C69.1587 5.77851 69.2464 5.41397 69.2464 5.00218C69.2464 4.58364 69.1587 4.2191 68.9832 3.90857C68.8144 3.59804 68.5781 3.35839 68.2743 3.18963C67.9773 3.01411 67.6398 2.92635 67.2618 2.92635C66.8905 2.92635 66.5563 3.01411 66.2593 3.18963C65.9622 3.35839 65.726 3.59804 65.5505 3.90857C65.3749 4.2191 65.2872 4.58364 65.2872 5.00218C65.2872 5.41397 65.3749 5.77851 65.5505 6.09579C65.726 6.40632 65.9622 6.64934 66.2593 6.82486C66.5563 6.99362 66.8905 7.07801 67.2618 7.07801ZM69.2667 7.66531V6.06541L69.3376 4.99205L69.2363 3.9187V0.151831H69.9553V7.66531H69.2667ZM74.6713 2.29854C75.1033 2.29854 75.4814 2.38292 75.8054 2.55169C76.1362 2.71371 76.3927 2.96348 76.575 3.30101C76.764 3.63855 76.8585 4.06384 76.8585 4.57689V7.66531H76.1396V4.64777C76.1396 4.08747 75.9978 3.66555 75.7143 3.38202C75.4375 3.09174 75.0459 2.9466 74.5396 2.9466C74.1616 2.9466 73.8308 3.02424 73.5473 3.1795C73.2705 3.32802 73.0545 3.54741 72.8992 3.83769C72.7507 4.12122 72.6765 4.4655 72.6765 4.87054V7.66531H71.9575V0.151831H72.6765V3.80731L72.5347 3.53391C72.7035 3.14912 72.9735 2.84872 73.3448 2.6327C73.7161 2.40993 74.1582 2.29854 74.6713 2.29854ZM82.1319 7.66531V6.4907L82.1015 6.29831V4.33386C82.1015 3.88157 81.9733 3.53391 81.7168 3.29089C81.467 3.04786 81.0923 2.92635 80.5928 2.92635C80.2485 2.92635 79.9211 2.98373 79.6106 3.09849C79.3 3.21325 79.0367 3.36514 78.8207 3.55416L78.4967 3.01749C78.7667 2.78796 79.0907 2.61245 79.4688 2.49093C79.8468 2.36267 80.2451 2.29854 80.6637 2.29854C81.3522 2.29854 81.8821 2.47068 82.2534 2.81497C82.6315 3.1525 82.8205 3.66892 82.8205 4.36424V7.66531H82.1319ZM80.2991 7.71594C79.9008 7.71594 79.5532 7.65181 79.2561 7.52355C78.9659 7.38854 78.7431 7.20627 78.5878 6.97675C78.4326 6.74047 78.3549 6.47045 78.3549 6.16667C78.3549 5.88989 78.4191 5.64012 78.5473 5.41734C78.6823 5.18782 78.8984 5.00555 79.1954 4.87054C79.4992 4.72878 79.9042 4.6579 80.4105 4.6579H82.2433V5.19457H80.4308C79.9177 5.19457 79.5599 5.28571 79.3574 5.46797C79.1616 5.65024 79.0637 5.87639 79.0637 6.14642C79.0637 6.4502 79.1819 6.69322 79.4182 6.87549C79.6544 7.05776 79.9852 7.14889 80.4105 7.14889C80.8155 7.14889 81.1632 7.05776 81.4535 6.87549C81.7505 6.68647 81.9665 6.41644 82.1015 6.06541L82.2636 6.56158C82.1285 6.91262 81.8923 7.19277 81.5547 7.40204C81.224 7.61131 80.8054 7.71594 80.2991 7.71594ZM84.7732 7.66531V2.34917H85.4618V3.79719L85.3909 3.54404C85.5394 3.139 85.7892 2.83184 86.1402 2.62257C86.4913 2.40655 86.9267 2.29854 87.4465 2.29854V2.99723C87.4195 2.99723 87.3925 2.99723 87.3655 2.99723C87.3385 2.99048 87.3115 2.98711 87.2845 2.98711C86.7242 2.98711 86.2854 3.15925 85.9681 3.50353C85.6508 3.84107 85.4922 4.32374 85.4922 4.95155V7.66531H84.7732ZM90.6667 7.71594C90.1672 7.71594 89.7824 7.58093 89.5123 7.3109C89.2423 7.04088 89.1073 6.65947 89.1073 6.16667V1.17456H89.8262V6.12616C89.8262 6.43669 89.9039 6.67634 90.0591 6.84511C90.2212 7.01388 90.4507 7.09826 90.7477 7.09826C91.065 7.09826 91.3283 7.00713 91.5375 6.82486L91.7907 7.34128C91.6489 7.46955 91.4768 7.56405 91.2743 7.62481C91.0785 7.68557 90.876 7.71594 90.6667 7.71594ZM88.1555 2.9466V2.34917H91.4464V2.9466H88.1555ZM96.4309 7.66531V6.4907L96.4005 6.29831V4.33386C96.4005 3.88157 96.2723 3.53391 96.0158 3.29089C95.766 3.04786 95.3913 2.92635 94.8918 2.92635C94.5475 2.92635 94.2201 2.98373 93.9096 3.09849C93.599 3.21325 93.3357 3.36514 93.1197 3.55416L92.7957 3.01749C93.0657 2.78796 93.3897 2.61245 93.7678 2.49093C94.1458 2.36267 94.5441 2.29854 94.9627 2.29854C95.6512 2.29854 96.1811 2.47068 96.5524 2.81497C96.9305 3.1525 97.1195 3.66892 97.1195 4.36424V7.66531H96.4309ZM94.5981 7.71594C94.1998 7.71594 93.8522 7.65181 93.5551 7.52355C93.2649 7.38854 93.0421 7.20627 92.8868 6.97675C92.7316 6.74047 92.6539 6.47045 92.6539 6.16667C92.6539 5.88989 92.7181 5.64012 92.8463 5.41734C92.9813 5.18782 93.1974 5.00555 93.4944 4.87054C93.7982 4.72878 94.2032 4.6579 94.7095 4.6579H96.5423V5.19457H94.7298C94.2167 5.19457 93.8589 5.28571 93.6564 5.46797C93.4606 5.65024 93.3627 5.87639 93.3627 6.14642C93.3627 6.4502 93.4809 6.69322 93.7172 6.87549C93.9534 7.05776 94.2842 7.14889 94.7095 7.14889C95.1145 7.14889 95.4622 7.05776 95.7525 6.87549C96.0495 6.68647 96.2655 6.41644 96.4005 6.06541L96.5626 6.56158C96.4275 6.91262 96.1913 7.19277 95.8537 7.40204C95.523 7.61131 95.1044 7.71594 94.5981 7.71594ZM101.874 7.66531V0.577123H102.624V7.01725H106.593V7.66531H101.874ZM109.773 7.71594C109.26 7.71594 108.798 7.60118 108.386 7.37166C107.981 7.13539 107.66 6.81473 107.424 6.40969C107.188 5.9979 107.069 5.52873 107.069 5.00218C107.069 4.46888 107.188 3.99971 107.424 3.59467C107.66 3.18963 107.981 2.87235 108.386 2.64282C108.791 2.4133 109.253 2.29854 109.773 2.29854C110.3 2.29854 110.765 2.4133 111.17 2.64282C111.582 2.87235 111.903 3.18963 112.132 3.59467C112.369 3.99971 112.487 4.46888 112.487 5.00218C112.487 5.52873 112.369 5.9979 112.132 6.40969C111.903 6.81473 111.582 7.13539 111.17 7.37166C110.759 7.60118 110.293 7.71594 109.773 7.71594ZM109.773 7.07801C110.158 7.07801 110.499 6.99362 110.796 6.82486C111.093 6.64934 111.326 6.40632 111.495 6.09579C111.67 5.77851 111.758 5.41397 111.758 5.00218C111.758 4.58364 111.67 4.2191 111.495 3.90857C111.326 3.59804 111.093 3.35839 110.796 3.18963C110.499 3.01411 110.161 2.92635 109.783 2.92635C109.405 2.92635 109.068 3.01411 108.771 3.18963C108.474 3.35839 108.237 3.59804 108.062 3.90857C107.886 4.2191 107.799 4.58364 107.799 5.00218C107.799 5.41397 107.886 5.77851 108.062 6.09579C108.237 6.40632 108.474 6.64934 108.771 6.82486C109.068 6.99362 109.402 7.07801 109.773 7.07801ZM116.152 7.71594C115.7 7.71594 115.305 7.63156 114.967 7.46279C114.63 7.29403 114.366 7.04088 114.177 6.70335C113.995 6.36581 113.904 5.9439 113.904 5.4376V2.34917H114.623V5.35659C114.623 5.92364 114.761 6.35231 115.038 6.64259C115.322 6.92612 115.717 7.06788 116.223 7.06788C116.594 7.06788 116.915 6.99362 117.185 6.84511C117.462 6.68984 117.671 6.46707 117.813 6.17679C117.961 5.88652 118.035 5.53886 118.035 5.13382V2.34917H118.754V7.66531H118.066V6.20717L118.177 6.47045C118.008 6.86199 117.745 7.16914 117.387 7.39191C117.036 7.60793 116.625 7.71594 116.152 7.71594ZM123.472 2.29854C123.904 2.29854 124.282 2.38292 124.606 2.55169C124.937 2.71371 125.193 2.96348 125.375 3.30101C125.565 3.63855 125.659 4.06384 125.659 4.57689V7.66531H124.94V4.64777C124.94 4.08747 124.798 3.66555 124.515 3.38202C124.238 3.09174 123.846 2.9466 123.34 2.9466C122.962 2.9466 122.631 3.02424 122.348 3.1795C122.071 3.32802 121.855 3.54741 121.7 3.83769C121.551 4.12122 121.477 4.4655 121.477 4.87054V7.66531H120.758V2.34917H121.447V3.80731L121.335 3.53391C121.504 3.14912 121.774 2.84872 122.145 2.6327C122.517 2.40993 122.959 2.29854 123.472 2.29854ZM129.869 9.68039C129.383 9.68039 128.917 9.6095 128.472 9.46774C128.026 9.32598 127.665 9.12346 127.388 8.86018L127.753 8.31338C128.003 8.53615 128.31 8.71167 128.674 8.83993C129.046 8.97494 129.437 9.04245 129.849 9.04245C130.524 9.04245 131.02 8.88381 131.337 8.56653C131.655 8.256 131.813 7.76995 131.813 7.10839V5.78188L131.915 4.87054L131.844 3.9592V2.34917H132.532V7.01725C132.532 7.93534 132.306 8.60703 131.854 9.03232C131.408 9.46436 130.747 9.68039 129.869 9.68039ZM129.738 7.46279C129.231 7.46279 128.776 7.35478 128.371 7.13876C127.966 6.91599 127.645 6.60884 127.409 6.2173C127.179 5.82576 127.064 5.37684 127.064 4.87054C127.064 4.36424 127.179 3.9187 127.409 3.53391C127.645 3.14237 127.966 2.83859 128.371 2.62257C128.776 2.40655 129.231 2.29854 129.738 2.29854C130.21 2.29854 130.635 2.39643 131.013 2.59219C131.391 2.78796 131.692 3.07824 131.915 3.46303C132.137 3.84782 132.249 4.31699 132.249 4.87054C132.249 5.4241 132.137 5.89327 131.915 6.27805C131.692 6.66284 131.391 6.9565 131.013 7.15901C130.635 7.36153 130.21 7.46279 129.738 7.46279ZM129.808 6.82486C130.2 6.82486 130.548 6.74385 130.851 6.58183C131.155 6.41307 131.395 6.18354 131.57 5.89327C131.746 5.59624 131.834 5.25533 131.834 4.87054C131.834 4.48575 131.746 4.14822 131.57 3.85794C131.395 3.56766 131.155 3.34152 130.851 3.1795C130.548 3.01074 130.2 2.92635 129.808 2.92635C129.424 2.92635 129.076 3.01074 128.765 3.1795C128.462 3.34152 128.222 3.56766 128.047 3.85794C127.878 4.14822 127.793 4.48575 127.793 4.87054C127.793 5.25533 127.878 5.59624 128.047 5.89327C128.222 6.18354 128.462 6.41307 128.765 6.58183C129.076 6.74385 129.424 6.82486 129.808 6.82486ZM136.791 7.71594C136.237 7.71594 135.751 7.60118 135.333 7.37166C134.914 7.13539 134.587 6.81473 134.351 6.40969C134.114 5.9979 133.996 5.52873 133.996 5.00218C133.996 4.47563 134.108 4.00983 134.33 3.60479C134.56 3.19975 134.87 2.88247 135.262 2.65295C135.66 2.41668 136.106 2.29854 136.599 2.29854C137.098 2.29854 137.54 2.4133 137.925 2.64282C138.317 2.8656 138.624 3.18288 138.847 3.59467C139.069 3.99971 139.181 4.46888 139.181 5.00218C139.181 5.03593 139.177 5.07306 139.171 5.11357C139.171 5.14732 139.171 5.18445 139.171 5.22495H134.543V4.68827H138.786L138.502 4.90092C138.502 4.51613 138.418 4.17522 138.249 3.87819C138.087 3.57442 137.864 3.33814 137.581 3.16938C137.297 3.00061 136.97 2.91623 136.599 2.91623C136.234 2.91623 135.907 3.00061 135.616 3.16938C135.326 3.33814 135.1 3.57442 134.938 3.87819C134.776 4.18197 134.695 4.52963 134.695 4.92117V5.03256C134.695 5.4376 134.783 5.79538 134.958 6.10591C135.141 6.40969 135.39 6.64934 135.708 6.82486C136.032 6.99362 136.4 7.07801 136.811 7.07801C137.135 7.07801 137.436 7.02063 137.713 6.90587C137.996 6.7911 138.239 6.61559 138.442 6.37931L138.847 6.84511C138.61 7.12864 138.313 7.34466 137.956 7.49317C137.605 7.64169 137.216 7.71594 136.791 7.71594ZM146.038 7.71594C145.573 7.71594 145.154 7.61131 144.783 7.40204C144.412 7.18602 144.118 6.87549 143.902 6.47045C143.686 6.06541 143.578 5.57599 143.578 5.00218C143.578 4.42162 143.686 3.9322 143.902 3.53391C144.125 3.12887 144.422 2.82172 144.793 2.61245C145.164 2.40318 145.579 2.29854 146.038 2.29854C146.545 2.29854 146.997 2.4133 147.395 2.64282C147.8 2.8656 148.118 3.1795 148.347 3.58454C148.577 3.98958 148.691 4.46213 148.691 5.00218C148.691 5.53548 148.577 6.00803 148.347 6.41982C148.118 6.82486 147.8 7.14214 147.395 7.37166C146.997 7.60118 146.545 7.71594 146.038 7.71594ZM143.294 7.66531V0.151831H144.013V3.9187L143.912 4.99205L143.983 6.06541V7.66531H143.294ZM145.988 7.07801C146.366 7.07801 146.703 6.99362 147 6.82486C147.297 6.64934 147.534 6.40632 147.709 6.09579C147.885 5.77851 147.973 5.41397 147.973 5.00218C147.973 4.58364 147.885 4.2191 147.709 3.90857C147.534 3.59804 147.297 3.35839 147 3.18963C146.703 3.01411 146.366 2.92635 145.988 2.92635C145.61 2.92635 145.269 3.01411 144.965 3.18963C144.668 3.35839 144.432 3.59804 144.256 3.90857C144.088 4.2191 144.003 4.58364 144.003 5.00218C144.003 5.41397 144.088 5.77851 144.256 6.09579C144.432 6.40632 144.668 6.64934 144.965 6.82486C145.269 6.99362 145.61 7.07801 145.988 7.07801ZM150.049 9.68039C149.799 9.68039 149.56 9.63988 149.33 9.55887C149.107 9.47787 148.915 9.35635 148.753 9.19434L149.087 8.65766C149.222 8.78592 149.367 8.88381 149.523 8.95131C149.685 9.02557 149.864 9.0627 150.059 9.0627C150.296 9.0627 150.498 8.99519 150.667 8.86018C150.842 8.73192 151.008 8.5024 151.163 8.17161L151.507 7.39191L151.588 7.28053L153.776 2.34917H154.484L151.821 8.30325C151.673 8.64754 151.507 8.92094 151.325 9.12346C151.15 9.32598 150.957 9.46774 150.748 9.54875C150.539 9.63651 150.306 9.68039 150.049 9.68039ZM151.467 7.8172L149.016 2.34917H149.766L151.933 7.2299L151.467 7.8172ZM158.299 7.66531V0.577123H161.357C162.147 0.577123 162.758 0.735763 163.19 1.05304C163.629 1.37033 163.848 1.81924 163.848 2.3998C163.848 2.78459 163.757 3.10862 163.575 3.3719C163.399 3.63517 163.156 3.83432 162.846 3.96933C162.542 4.10434 162.208 4.17185 161.843 4.17185L162.015 3.92882C162.467 3.92882 162.856 3.99971 163.18 4.14147C163.51 4.27648 163.767 4.48238 163.949 4.75916C164.132 5.02918 164.223 5.36672 164.223 5.77175C164.223 6.37256 164 6.83836 163.554 7.16914C163.116 7.49992 162.451 7.66531 161.56 7.66531H158.299ZM159.048 7.04763H161.549C162.17 7.04763 162.646 6.94299 162.977 6.73372C163.308 6.5177 163.473 6.17679 163.473 5.711C163.473 5.25195 163.308 4.9178 162.977 4.70853C162.646 4.4925 162.17 4.38449 161.549 4.38449H158.967V3.76681H161.306C161.873 3.76681 162.312 3.6588 162.623 3.44278C162.94 3.22676 163.099 2.9061 163.099 2.48081C163.099 2.04877 162.94 1.72811 162.623 1.51884C162.312 1.30282 161.873 1.19481 161.306 1.19481H159.048V7.04763ZM167.978 7.71594C167.526 7.71594 167.131 7.63156 166.794 7.46279C166.456 7.29403 166.193 7.04088 166.004 6.70335C165.822 6.36581 165.73 5.9439 165.73 5.4376V2.34917H166.449V5.35659C166.449 5.92364 166.588 6.35231 166.865 6.64259C167.148 6.92612 167.543 7.06788 168.049 7.06788C168.421 7.06788 168.741 6.99362 169.011 6.84511C169.288 6.68984 169.497 6.46707 169.639 6.17679C169.788 5.88652 169.862 5.53886 169.862 5.13382V2.34917H170.581V7.66531H169.892V6.20717L170.004 6.47045C169.835 6.86199 169.572 7.16914 169.214 7.39191C168.863 7.60793 168.451 7.71594 167.978 7.71594ZM174.701 7.71594C174.195 7.71594 173.739 7.60118 173.334 7.37166C172.936 7.14214 172.622 6.82486 172.392 6.41982C172.163 6.00803 172.048 5.53548 172.048 5.00218C172.048 4.46213 172.163 3.98958 172.392 3.58454C172.622 3.1795 172.936 2.8656 173.334 2.64282C173.739 2.4133 174.195 2.29854 174.701 2.29854C175.167 2.29854 175.582 2.40318 175.946 2.61245C176.318 2.82172 176.611 3.12887 176.827 3.53391C177.05 3.9322 177.161 4.42162 177.161 5.00218C177.161 5.57599 177.053 6.06541 176.837 6.47045C176.621 6.87549 176.328 7.18602 175.956 7.40204C175.592 7.61131 175.173 7.71594 174.701 7.71594ZM174.751 7.07801C175.13 7.07801 175.467 6.99362 175.764 6.82486C176.068 6.64934 176.304 6.40632 176.473 6.09579C176.648 5.77851 176.736 5.41397 176.736 5.00218C176.736 4.58364 176.648 4.2191 176.473 3.90857C176.304 3.59804 176.068 3.35839 175.764 3.18963C175.467 3.01411 175.13 2.92635 174.751 2.92635C174.38 2.92635 174.046 3.01411 173.749 3.18963C173.452 3.35839 173.216 3.59804 173.04 3.90857C172.865 4.2191 172.777 4.58364 172.777 5.00218C172.777 5.41397 172.865 5.77851 173.04 6.09579C173.216 6.40632 173.452 6.64934 173.749 6.82486C174.046 6.99362 174.38 7.07801 174.751 7.07801ZM176.756 7.66531V6.06541L176.827 4.99205L176.726 3.9187V0.151831H177.445V7.66531H176.756ZM181.564 7.71594C181.057 7.71594 180.602 7.60118 180.197 7.37166C179.798 7.14214 179.484 6.82486 179.255 6.41982C179.025 6.00803 178.911 5.53548 178.911 5.00218C178.911 4.46213 179.025 3.98958 179.255 3.58454C179.484 3.1795 179.798 2.8656 180.197 2.64282C180.602 2.4133 181.057 2.29854 181.564 2.29854C182.029 2.29854 182.445 2.40318 182.809 2.61245C183.18 2.82172 183.474 3.12887 183.69 3.53391C183.913 3.9322 184.024 4.42162 184.024 5.00218C184.024 5.57599 183.916 6.06541 183.7 6.47045C183.484 6.87549 183.19 7.18602 182.819 7.40204C182.455 7.61131 182.036 7.71594 181.564 7.71594ZM181.614 7.07801C181.992 7.07801 182.33 6.99362 182.627 6.82486C182.931 6.64934 183.167 6.40632 183.336 6.09579C183.511 5.77851 183.599 5.41397 183.599 5.00218C183.599 4.58364 183.511 4.2191 183.336 3.90857C183.167 3.59804 182.931 3.35839 182.627 3.18963C182.33 3.01411 181.992 2.92635 181.614 2.92635C181.243 2.92635 180.909 3.01411 180.612 3.18963C180.315 3.35839 180.078 3.59804 179.903 3.90857C179.727 4.2191 179.64 4.58364 179.64 5.00218C179.64 5.41397 179.727 5.77851 179.903 6.09579C180.078 6.40632 180.315 6.64934 180.612 6.82486C180.909 6.99362 181.243 7.07801 181.614 7.07801ZM183.619 7.66531V6.06541L183.69 4.99205L183.589 3.9187V0.151831H184.308V7.66531H183.619ZM189.024 2.29854C189.456 2.29854 189.834 2.38292 190.158 2.55169C190.489 2.71371 190.745 2.96348 190.927 3.30101C191.116 3.63855 191.211 4.06384 191.211 4.57689V7.66531H190.492V4.64777C190.492 4.08747 190.35 3.66555 190.067 3.38202C189.79 3.09174 189.398 2.9466 188.892 2.9466C188.514 2.9466 188.183 3.02424 187.9 3.1795C187.623 3.32802 187.407 3.54741 187.252 3.83769C187.103 4.12122 187.029 4.4655 187.029 4.87054V7.66531H186.31V0.151831H187.029V3.80731L186.887 3.53391C187.056 3.14912 187.326 2.84872 187.697 2.6327C188.069 2.40993 188.511 2.29854 189.024 2.29854ZM196.484 7.66531V6.4907L196.454 6.29831V4.33386C196.454 3.88157 196.326 3.53391 196.069 3.29089C195.819 3.04786 195.445 2.92635 194.945 2.92635C194.601 2.92635 194.274 2.98373 193.963 3.09849C193.652 3.21325 193.389 3.36514 193.173 3.55416L192.849 3.01749C193.119 2.78796 193.443 2.61245 193.821 2.49093C194.199 2.36267 194.598 2.29854 195.016 2.29854C195.705 2.29854 196.235 2.47068 196.606 2.81497C196.984 3.1525 197.173 3.66892 197.173 4.36424V7.66531H196.484ZM194.652 7.71594C194.253 7.71594 193.906 7.65181 193.609 7.52355C193.318 7.38854 193.096 7.20627 192.94 6.97675C192.785 6.74047 192.707 6.47045 192.707 6.16667C192.707 5.88989 192.772 5.64012 192.9 5.41734C193.035 5.18782 193.251 5.00555 193.548 4.87054C193.852 4.72878 194.257 4.6579 194.763 4.6579H196.596V5.19457H194.783C194.27 5.19457 193.912 5.28571 193.71 5.46797C193.514 5.65024 193.416 5.87639 193.416 6.14642C193.416 6.4502 193.534 6.69322 193.771 6.87549C194.007 7.05776 194.338 7.14889 194.763 7.14889C195.168 7.14889 195.516 7.05776 195.806 6.87549C196.103 6.68647 196.319 6.41644 196.454 6.06541L196.616 6.56158C196.481 6.91262 196.245 7.19277 195.907 7.40204C195.576 7.61131 195.158 7.71594 194.652 7.71594ZM198.731 5.23508V4.60727H201.384V5.23508H198.731ZM203.144 7.66531V0.577123H206.202C206.992 0.577123 207.603 0.735763 208.035 1.05304C208.474 1.37033 208.693 1.81924 208.693 2.3998C208.693 2.78459 208.602 3.10862 208.42 3.3719C208.244 3.63517 208.001 3.83432 207.691 3.96933C207.387 4.10434 207.053 4.17185 206.688 4.17185L206.86 3.92882C207.313 3.92882 207.701 3.99971 208.025 4.14147C208.356 4.27648 208.612 4.48238 208.794 4.75916C208.977 5.02918 209.068 5.36672 209.068 5.77175C209.068 6.37256 208.845 6.83836 208.399 7.16914C207.961 7.49992 207.296 7.66531 206.405 7.66531H203.144ZM203.893 7.04763H206.394C207.016 7.04763 207.491 6.94299 207.822 6.73372C208.153 6.5177 208.318 6.17679 208.318 5.711C208.318 5.25195 208.153 4.9178 207.822 4.70853C207.491 4.4925 207.016 4.38449 206.394 4.38449H203.812V3.76681H206.151C206.719 3.76681 207.157 3.6588 207.468 3.44278C207.785 3.22676 207.944 2.9061 207.944 2.48081C207.944 2.04877 207.785 1.72811 207.468 1.51884C207.157 1.30282 206.719 1.19481 206.151 1.19481H203.893V7.04763ZM213.958 7.66531V6.4907L213.927 6.29831V4.33386C213.927 3.88157 213.799 3.53391 213.542 3.29089C213.293 3.04786 212.918 2.92635 212.418 2.92635C212.074 2.92635 211.747 2.98373 211.436 3.09849C211.126 3.21325 210.862 3.36514 210.646 3.55416L210.322 3.01749C210.592 2.78796 210.916 2.61245 211.295 2.49093C211.673 2.36267 212.071 2.29854 212.489 2.29854C213.178 2.29854 213.708 2.47068 214.079 2.81497C214.457 3.1525 214.646 3.66892 214.646 4.36424V7.66531H213.958ZM212.125 7.71594C211.727 7.71594 211.379 7.65181 211.082 7.52355C210.792 7.38854 210.569 7.20627 210.414 6.97675C210.258 6.74047 210.181 6.47045 210.181 6.16667C210.181 5.88989 210.245 5.64012 210.373 5.41734C210.508 5.18782 210.724 5.00555 211.021 4.87054C211.325 4.72878 211.73 4.6579 212.236 4.6579H214.069V5.19457H212.256C211.743 5.19457 211.386 5.28571 211.183 5.46797C210.987 5.65024 210.889 5.87639 210.889 6.14642C210.889 6.4502 211.008 6.69322 211.244 6.87549C211.48 7.05776 211.811 7.14889 212.236 7.14889C212.641 7.14889 212.989 7.05776 213.279 6.87549C213.576 6.68647 213.792 6.41644 213.927 6.06541L214.089 6.56158C213.954 6.91262 213.718 7.19277 213.38 7.40204C213.05 7.61131 212.631 7.71594 212.125 7.71594ZM216.599 7.66531V2.34917H217.288V3.79719L217.217 3.54404C217.365 3.139 217.615 2.83184 217.966 2.62257C218.317 2.40655 218.752 2.29854 219.272 2.29854V2.99723C219.245 2.99723 219.218 2.99723 219.191 2.99723C219.164 2.99048 219.137 2.98711 219.11 2.98711C218.55 2.98711 218.111 3.15925 217.794 3.50353C217.477 3.84107 217.318 4.32374 217.318 4.95155V7.66531H216.599ZM220.635 7.71594C220.487 7.71594 220.358 7.66194 220.25 7.55393C220.149 7.44592 220.098 7.31428 220.098 7.15901C220.098 6.997 220.149 6.86536 220.25 6.7641C220.358 6.66284 220.487 6.61221 220.635 6.61221C220.784 6.61221 220.909 6.66284 221.01 6.7641C221.118 6.86536 221.172 6.997 221.172 7.15901C221.172 7.31428 221.118 7.44592 221.01 7.55393C220.909 7.66194 220.784 7.71594 220.635 7.71594ZM222.781 7.71594C222.633 7.71594 222.504 7.66194 222.396 7.55393C222.295 7.44592 222.244 7.31428 222.244 7.15901C222.244 6.997 222.295 6.86536 222.396 6.7641C222.504 6.66284 222.633 6.61221 222.781 6.61221C222.93 6.61221 223.054 6.66284 223.156 6.7641C223.264 6.86536 223.318 6.997 223.318 7.15901C223.318 7.31428 223.264 7.44592 223.156 7.55393C223.054 7.66194 222.93 7.71594 222.781 7.71594ZM224.927 7.71594C224.778 7.71594 224.65 7.66194 224.542 7.55393C224.441 7.44592 224.39 7.31428 224.39 7.15901C224.39 6.997 224.441 6.86536 224.542 6.7641C224.65 6.66284 224.778 6.61221 224.927 6.61221C225.075 6.61221 225.2 6.66284 225.302 6.7641C225.41 6.86536 225.464 6.997 225.464 7.15901C225.464 7.31428 225.41 7.44592 225.302 7.55393C225.2 7.66194 225.075 7.71594 224.927 7.71594Z" fill="black"/>
<path d="M45.6302 8.93106H226V9.43736H45.6302V8.93106Z" fill="black"/>
</svg>
