<svg width="32" height="32" viewBox="0 0 32 32" fill="none" xmlns="http://www.w3.org/2000/svg">
<path d="M4 16C4 19.1826 5.26428 22.2348 7.51472 24.4853C9.76516 26.7357 12.8174 28 16 28C19.1826 28 22.2348 26.7357 24.4853 24.4853C26.7357 22.2348 28 19.1826 28 16C28 12.8174 26.7357 9.76516 24.4853 7.51472C22.2348 5.26428 19.1826 4 16 4C12.8174 4 9.76516 5.26428 7.51472 7.51472C5.26428 9.76516 4 12.8174 4 16Z" stroke="black" stroke-width="1.5" stroke-linejoin="round"/>
<path d="M10.8574 16C10.8574 12.8174 11.3993 9.76516 12.3637 7.51472C13.3282 5.26428 14.6363 4 16.0003 4C17.3642 4 18.6724 5.26428 19.6368 7.51472C20.6013 9.76516 21.1431 12.8174 21.1431 16C21.1431 19.1826 20.6013 22.2348 19.6368 24.4853C18.6724 26.7357 17.3642 28 16.0003 28C14.6363 28 13.3282 26.7357 12.3637 24.4853C11.3993 22.2348 10.8574 19.1826 10.8574 16Z" stroke="black" stroke-width="1.5" stroke-linejoin="round"/>
<path d="M4.85742 19.9999H27.1431M4.85742 11.9999H27.1431" stroke="black" stroke-width="1.5" stroke-linecap="round"/>
</svg>
