<svg width="83" height="15" viewBox="0 0 83 15" fill="none" xmlns="http://www.w3.org/2000/svg">
<path d="M19.8011 11V4.80189H17.3744V3.92222H23.2288V4.80189H20.8021V11H19.8011ZM24.1884 11V5.64111H25.1591V11H24.1884ZM24.6738 4.60978C24.485 4.60978 24.3266 4.54911 24.1986 4.42778C24.0772 4.30644 24.0166 4.15815 24.0166 3.98289C24.0166 3.80089 24.0772 3.64922 24.1986 3.52789C24.3266 3.40656 24.485 3.34589 24.6738 3.34589C24.8625 3.34589 25.0176 3.40656 25.1389 3.52789C25.267 3.64248 25.331 3.78741 25.331 3.96267C25.331 4.14467 25.2703 4.2997 25.149 4.42778C25.0277 4.54911 24.8693 4.60978 24.6738 4.60978ZM33.7161 5.59056C34.1475 5.59056 34.5284 5.67481 34.8587 5.84333C35.189 6.01185 35.4451 6.268 35.6271 6.61178C35.8159 6.95556 35.9102 7.39033 35.9102 7.91611V11H34.9396V8.02733C34.9396 7.5083 34.8182 7.11733 34.5756 6.85444C34.3329 6.59156 33.9925 6.46011 33.5543 6.46011C33.2308 6.46011 32.9477 6.52752 32.705 6.66233C32.4623 6.79715 32.2736 6.996 32.1388 7.25889C32.0107 7.52178 31.9467 7.8487 31.9467 8.23967V11H30.976V8.02733C30.976 7.5083 30.8547 7.11733 30.612 6.85444C30.3761 6.59156 30.0357 6.46011 29.5908 6.46011C29.274 6.46011 28.9942 6.52752 28.7516 6.66233C28.5089 6.79715 28.3202 6.996 28.1853 7.25889C28.0505 7.52178 27.9831 7.8487 27.9831 8.23967V11H27.0124V5.64111H27.9427V7.06678L27.791 6.70278C27.9595 6.35226 28.219 6.07926 28.5696 5.88378C28.9201 5.6883 29.3279 5.59056 29.793 5.59056C30.3053 5.59056 30.7468 5.71863 31.1176 5.97478C31.4883 6.22419 31.731 6.60504 31.8456 7.11733L31.4512 6.95556C31.613 6.54437 31.8961 6.21407 32.3006 5.96467C32.705 5.71526 33.1769 5.59056 33.7161 5.59056ZM40.0825 11.0607C39.5095 11.0607 39.004 10.9427 38.5658 10.7068C38.1344 10.4709 37.7974 10.1473 37.5547 9.73611C37.3188 9.32493 37.2008 8.85307 37.2008 8.32056C37.2008 7.78804 37.3154 7.31619 37.5446 6.905C37.7805 6.49381 38.1007 6.17363 38.5051 5.94444C38.9163 5.70852 39.3781 5.59056 39.8904 5.59056C40.4094 5.59056 40.8678 5.70515 41.2655 5.93433C41.6632 6.16352 41.9733 6.48707 42.1957 6.905C42.4249 7.31619 42.5395 7.79815 42.5395 8.35089C42.5395 8.39133 42.5361 8.43852 42.5294 8.49244C42.5294 8.54637 42.526 8.59693 42.5193 8.64411H37.9591V7.94644H42.0137L41.6194 8.18911C41.6261 7.84533 41.5553 7.53863 41.407 7.269C41.2587 6.99937 41.0531 6.79041 40.7903 6.64211C40.5341 6.48707 40.2341 6.40956 39.8904 6.40956C39.5533 6.40956 39.2534 6.48707 38.9905 6.64211C38.7276 6.79041 38.522 7.00274 38.3737 7.27911C38.2254 7.54874 38.1513 7.85881 38.1513 8.20933V8.37111C38.1513 8.72837 38.2321 9.04856 38.3939 9.33167C38.5624 9.60804 38.795 9.82374 39.0916 9.97878C39.3882 10.1338 39.7286 10.2113 40.1128 10.2113C40.4296 10.2113 40.7161 10.1574 40.9723 10.0496C41.2351 9.9417 41.4643 9.77993 41.6598 9.56422L42.1957 10.1911C41.953 10.4742 41.6497 10.6899 41.2857 10.8382C40.9284 10.9865 40.5274 11.0607 40.0825 11.0607ZM44.1199 6.97578C43.9312 6.97578 43.7694 6.91174 43.6346 6.78367C43.4997 6.64885 43.4323 6.48033 43.4323 6.27811C43.4323 6.07589 43.4997 5.91074 43.6346 5.78267C43.7694 5.65459 43.9312 5.59056 44.1199 5.59056C44.3019 5.59056 44.4569 5.65459 44.585 5.78267C44.7198 5.91074 44.7872 6.07589 44.7872 6.27811C44.7872 6.48033 44.7198 6.64885 44.585 6.78367C44.4569 6.91174 44.3019 6.97578 44.1199 6.97578ZM44.1199 11.0607C43.9312 11.0607 43.7694 10.9966 43.6346 10.8686C43.4997 10.7337 43.4323 10.5652 43.4323 10.363C43.4323 10.1608 43.4997 9.99563 43.6346 9.86756C43.7694 9.73948 43.9312 9.67544 44.1199 9.67544C44.3019 9.67544 44.4569 9.73948 44.585 9.86756C44.7198 9.99563 44.7872 10.1608 44.7872 10.363C44.7872 10.5652 44.7198 10.7337 44.585 10.8686C44.4569 10.9966 44.3019 11.0607 44.1199 11.0607ZM49.6737 11L52.7273 4.24578L52.9497 4.56933H48.5716L48.9457 4.21544V5.89389H48.2279V3.92222H53.425V4.43789L50.4624 11H49.6737ZM54.7327 6.74322C54.5844 6.74322 54.4563 6.6893 54.3485 6.58144C54.2474 6.47359 54.1968 6.34215 54.1968 6.18711C54.1968 6.02533 54.2474 5.89389 54.3485 5.79278C54.4563 5.69167 54.5844 5.64111 54.7327 5.64111C54.881 5.64111 55.0057 5.69167 55.1068 5.79278C55.2147 5.89389 55.2686 6.02533 55.2686 6.18711C55.2686 6.34215 55.2147 6.47359 55.1068 6.58144C55.0057 6.6893 54.881 6.74322 54.7327 6.74322ZM54.7327 11.0506C54.5844 11.0506 54.4563 10.9966 54.3485 10.8888C54.2474 10.7809 54.1968 10.6495 54.1968 10.4944C54.1968 10.3327 54.2474 10.2012 54.3485 10.1001C54.4563 9.999 54.5844 9.94844 54.7327 9.94844C54.881 9.94844 55.0057 9.999 55.1068 10.1001C55.2147 10.2012 55.2686 10.3327 55.2686 10.4944C55.2686 10.6495 55.2147 10.7809 55.1068 10.8888C55.0057 10.9966 54.881 11.0506 54.7327 11.0506ZM57.5629 11V4.22556L57.8865 4.56933H55.8946V3.92222H58.2909V11H57.5629ZM62.2174 11.0607C61.7118 11.0607 61.2298 10.9798 60.7715 10.818C60.3131 10.6495 59.9491 10.427 59.6795 10.1507L60.0334 9.57433C60.2558 9.81026 60.5591 10.0057 60.9434 10.1608C61.3343 10.3158 61.7556 10.3933 62.2072 10.3933C62.8072 10.3933 63.2622 10.2619 63.5722 9.999C63.8891 9.72937 64.0475 9.37885 64.0475 8.94744C64.0475 8.64411 63.9733 8.38459 63.825 8.16889C63.6835 7.94644 63.4408 7.77456 63.097 7.65322C62.7532 7.53189 62.2814 7.47122 61.6815 7.47122H60.1749L60.5389 3.92222H64.4115V4.56933H60.8321L61.2062 4.21544L60.8928 7.18811L60.5187 6.82411H61.8432C62.5578 6.82411 63.1307 6.91174 63.5621 7.087C63.9935 7.26226 64.3036 7.5083 64.4924 7.82511C64.6878 8.13519 64.7856 8.49919 64.7856 8.91711C64.7856 9.31481 64.6912 9.67881 64.5025 10.0091C64.3137 10.3327 64.0306 10.5888 63.6531 10.7776C63.2757 10.9663 62.7971 11.0607 62.2174 11.0607ZM69.5116 11V9.82711L69.4812 9.635V7.67344C69.4812 7.22181 69.3532 6.87467 69.097 6.632C68.8476 6.38933 68.4735 6.268 67.9747 6.268C67.6309 6.268 67.304 6.3253 66.9939 6.43989C66.6838 6.55448 66.421 6.70615 66.2052 6.89489L65.8817 6.359C66.1513 6.12981 66.4749 5.95456 66.8524 5.83322C67.2298 5.70515 67.6275 5.64111 68.0455 5.64111C68.733 5.64111 69.2622 5.813 69.6329 6.15678C70.0104 6.49381 70.1991 7.00948 70.1991 7.70378V11H69.5116ZM67.6815 11.0506C67.2838 11.0506 66.9366 10.9865 66.64 10.8584C66.3502 10.7236 66.1277 10.5416 65.9727 10.3124C65.8177 10.0765 65.7401 9.80689 65.7401 9.50356C65.7401 9.22719 65.8042 8.97778 65.9322 8.75533C66.0671 8.52615 66.2828 8.34415 66.5794 8.20933C66.8827 8.06778 67.2871 7.997 67.7927 7.997H69.6228V8.53289H67.8129C67.3006 8.53289 66.9434 8.62389 66.7411 8.80589C66.5457 8.98789 66.4479 9.2137 66.4479 9.48333C66.4479 9.78667 66.5659 10.0293 66.8018 10.2113C67.0377 10.3933 67.368 10.4843 67.7927 10.4843C68.1971 10.4843 68.5443 10.3933 68.8341 10.2113C69.1307 10.0226 69.3464 9.75296 69.4812 9.40244L69.643 9.89789C69.5082 10.2484 69.2723 10.5281 68.9352 10.7371C68.605 10.9461 68.187 11.0506 67.6815 11.0506ZM78.7819 5.64111C79.2133 5.64111 79.5874 5.72537 79.9042 5.89389C80.2278 6.05567 80.4772 6.30507 80.6524 6.64211C80.8344 6.97915 80.9254 7.40381 80.9254 7.91611V11H80.2076V7.98689C80.2076 7.42741 80.0727 7.00611 79.8031 6.723C79.5402 6.43315 79.1661 6.28822 78.6808 6.28822C78.3168 6.28822 78 6.36574 77.7303 6.52078C77.4674 6.66907 77.2619 6.88815 77.1136 7.178C76.972 7.46111 76.9012 7.80489 76.9012 8.20933V11H76.1833V7.98689C76.1833 7.42741 76.0485 7.00611 75.7789 6.723C75.5093 6.43315 75.1318 6.28822 74.6464 6.28822C74.2892 6.28822 73.9757 6.36574 73.7061 6.52078C73.4365 6.66907 73.2275 6.88815 73.0792 7.178C72.9377 7.46111 72.8669 7.80489 72.8669 8.20933V11H72.149V5.69167H72.8366V7.12744L72.7253 6.87467C72.8871 6.49044 73.1466 6.19048 73.5039 5.97478C73.8679 5.75233 74.2959 5.64111 74.788 5.64111C75.307 5.64111 75.7486 5.77256 76.1126 6.03544C76.4766 6.29159 76.7125 6.67919 76.8203 7.19822L76.5372 7.087C76.6923 6.65559 76.9653 6.30844 77.3562 6.04556C77.7539 5.77593 78.2292 5.64111 78.7819 5.64111Z" fill="black"/>
</svg>
