<svg width="11" height="11" viewBox="0 0 11 11" fill="none" xmlns="http://www.w3.org/2000/svg">
<g clip-path="url(#clip0_75_2019)">
<path d="M9.62361 5.33338C9.83845 5.48019 10.03 5.64669 10.1983 5.83288C10.3666 6.01908 10.5116 6.22317 10.6334 6.44517C10.7551 6.66717 10.8446 6.90171 10.9019 7.14877C10.9592 7.39584 10.9914 7.64827 10.9986 7.90608C10.9986 8.33218 10.918 8.73321 10.7569 9.10918C10.5958 9.48515 10.3738 9.81278 10.0909 10.0921C9.80802 10.3714 9.48039 10.5916 9.108 10.7527C8.73561 10.9138 8.33458 10.9962 7.9049 10.9998C7.57906 10.9998 7.26396 10.9514 6.95961 10.8547C6.65525 10.7581 6.37596 10.6184 6.12174 10.4358C5.86751 10.2532 5.64193 10.0348 5.44499 9.78055C5.24806 9.52633 5.09588 9.24524 4.98846 8.93731H0.686305V0.687485H2.06128V0H2.74876V0.687485H7.56116V0H8.24864V0.687485H9.62361V5.33338ZM1.37379 1.37497V2.74994H8.93613V1.37497H8.24864V2.06246H7.56116V1.37497H2.74876V2.06246H2.06128V1.37497H1.37379ZM4.82733 8.24982C4.81659 8.13882 4.81122 8.02424 4.81122 7.90608C4.81122 7.47998 4.89178 7.07895 5.05291 6.70298C5.21404 6.32701 5.43604 5.99938 5.71891 5.72009C6.00178 5.4408 6.32941 5.22059 6.7018 5.05946C7.07419 4.89833 7.47522 4.81598 7.9049 4.8124C8.26297 4.8124 8.60671 4.87148 8.93613 4.98964V3.43743H1.37379V8.24982H4.82733ZM7.9049 10.3123C8.2379 10.3123 8.54942 10.2496 8.83945 10.1243C9.12948 9.99897 9.38371 9.8271 9.60213 9.60868C9.82055 9.39026 9.99242 9.13603 10.1177 8.846C10.2431 8.55597 10.3075 8.24266 10.3111 7.90608C10.3111 7.57308 10.2484 7.26156 10.1231 6.97153C9.99779 6.6815 9.82592 6.42727 9.6075 6.20885C9.38908 5.99043 9.13485 5.81856 8.84482 5.69324C8.55479 5.56791 8.24148 5.50346 7.9049 5.49988C7.5719 5.49988 7.26038 5.56254 6.97035 5.68787C6.68032 5.81319 6.42609 5.98506 6.20767 6.20348C5.98925 6.4219 5.81738 6.67613 5.69206 6.96616C5.56673 7.25619 5.50228 7.5695 5.4987 7.90608C5.4987 8.23908 5.56136 8.5506 5.68669 8.84063C5.81201 9.13066 5.98388 9.38489 6.2023 9.60331C6.42072 9.82173 6.67495 9.9936 6.96498 10.1189C7.25501 10.2442 7.56832 10.3087 7.9049 10.3123ZM8.24864 7.56234H9.27987V8.24982H7.56116V6.18737H8.24864V7.56234Z" fill="black"/>
</g>
<defs>
<clipPath id="clip0_75_2019">
<rect width="10.1111" height="10.1111" fill="white" transform="scale(1.08789)"/>
</clipPath>
</defs>
</svg>
