<svg width="11" height="11" viewBox="0 0 11 11" fill="none" xmlns="http://www.w3.org/2000/svg">
<g clip-path="url(#clip0_75_2054)">
<path d="M9.62149 5.33312C9.83633 5.47992 10.0279 5.64642 10.1962 5.83262C10.3645 6.01881 10.5095 6.22291 10.6312 6.44491C10.753 6.66691 10.8425 6.90144 10.8998 7.14851C10.9571 7.39557 10.9893 7.64801 10.9965 7.90581C10.9965 8.33191 10.9159 8.73295 10.7548 9.10891C10.5936 9.48488 10.3716 9.81251 10.0888 10.0918C9.80589 10.3711 9.47826 10.5913 9.10587 10.7524C8.73349 10.9136 8.33245 10.9959 7.90278 10.9995C7.57694 10.9995 7.26184 10.9512 6.95748 10.8545C6.65313 10.7578 6.37384 10.6182 6.11961 10.4355C5.86538 10.2529 5.6398 10.0345 5.44287 9.78029C5.24593 9.52606 5.09375 9.24498 4.98633 8.93704H0.68418V0.68722H2.05915V-0.000265598H2.74664V0.68722H7.55903V-0.000265598H8.24652V0.68722H9.62149V5.33312ZM1.37167 1.3747V2.74968H8.934V1.3747H8.24652V2.06219H7.55903V1.3747H2.74664V2.06219H2.05915V1.3747H1.37167ZM4.8252 8.24956C4.81446 8.13856 4.80909 8.02398 4.80909 7.90581C4.80909 7.47972 4.88966 7.07868 5.05079 6.70272C5.21192 6.32675 5.43392 5.99912 5.71679 5.71983C5.99966 5.44054 6.32729 5.22033 6.69968 5.0592C7.07206 4.89807 7.4731 4.81571 7.90278 4.81213C8.26084 4.81213 8.60458 4.87121 8.934 4.98937V3.43716H1.37167V8.24956H4.8252ZM7.90278 10.312C8.23578 10.312 8.54729 10.2494 8.83733 10.124C9.12736 9.99871 9.38158 9.82683 9.6 9.60841C9.81842 9.38999 9.9903 9.13577 10.1156 8.84574C10.2409 8.5557 10.3054 8.2424 10.309 7.90581C10.309 7.57281 10.2463 7.2613 10.121 6.97126C9.99567 6.68123 9.8238 6.427 9.60538 6.20859C9.38696 5.99017 9.13273 5.81829 8.8427 5.69297C8.55266 5.56765 8.23936 5.5032 7.90278 5.49962C7.56977 5.49962 7.25826 5.56228 6.96823 5.6876C6.67819 5.81292 6.42397 5.98479 6.20555 6.20321C5.98713 6.42163 5.81526 6.67586 5.68993 6.96589C5.56461 7.25593 5.50016 7.56923 5.49658 7.90581C5.49658 8.23881 5.55924 8.55033 5.68456 8.84036C5.80988 9.1304 5.98176 9.38462 6.20018 9.60304C6.4186 9.82146 6.67282 9.99333 6.96285 10.1187C7.25289 10.244 7.56619 10.3084 7.90278 10.312ZM8.24652 7.56207H9.27775V8.24956H7.55903V6.1871H8.24652V7.56207Z" fill="black"/>
</g>
<defs>
<clipPath id="clip0_75_2054">
<rect width="10.1111" height="10.1111" fill="white" transform="scale(1.08789)"/>
</clipPath>
</defs>
</svg>
