<svg width="161" height="15" viewBox="0 0 161 15" fill="none" xmlns="http://www.w3.org/2000/svg">
<path d="M18.3957 11V3.92222H21.3784C22.1334 3.92222 22.7974 4.07052 23.3703 4.36711C23.95 4.6637 24.3983 5.07826 24.7151 5.61078C25.0387 6.1433 25.2004 6.76007 25.2004 7.46111C25.2004 8.16215 25.0387 8.77893 24.7151 9.31144C24.3983 9.84396 23.95 10.2585 23.3703 10.5551C22.7974 10.8517 22.1334 11 21.3784 11H18.3957ZM19.4068 10.1203H21.3178C21.9042 10.1203 22.4098 10.0091 22.8344 9.78667C23.2658 9.56422 23.5995 9.25415 23.8354 8.85644C24.0714 8.452 24.1893 7.98689 24.1893 7.46111C24.1893 6.92859 24.0714 6.46348 23.8354 6.06578C23.5995 5.66807 23.2658 5.358 22.8344 5.13556C22.4098 4.91311 21.9042 4.80189 21.3178 4.80189H19.4068V10.1203ZM29.9342 11V9.86756L29.8836 9.65522V7.724C29.8836 7.31281 29.7623 6.996 29.5196 6.77356C29.2837 6.54437 28.9264 6.42978 28.4478 6.42978C28.131 6.42978 27.8209 6.4837 27.5176 6.59156C27.2143 6.69267 26.9581 6.83085 26.7492 7.00611L26.3447 6.27811C26.6211 6.05567 26.9514 5.88715 27.3356 5.77256C27.7266 5.65122 28.1344 5.59056 28.5591 5.59056C29.2938 5.59056 29.86 5.76919 30.2577 6.12644C30.6554 6.4837 30.8543 7.0297 30.8543 7.76444V11H29.9342ZM28.1748 11.0607C27.7771 11.0607 27.4266 10.9933 27.1233 10.8584C26.8267 10.7236 26.5975 10.5383 26.4357 10.3023C26.2739 10.0597 26.1931 9.78667 26.1931 9.48333C26.1931 9.19348 26.2605 8.93059 26.3953 8.69467C26.5368 8.45874 26.7626 8.27 27.0727 8.12844C27.3895 7.98689 27.8142 7.91611 28.3467 7.91611H30.0454V8.61378H28.3872C27.9018 8.61378 27.5749 8.69467 27.4064 8.85644C27.2379 9.01822 27.1536 9.2137 27.1536 9.44289C27.1536 9.70578 27.2581 9.91811 27.4671 10.0799C27.676 10.2349 27.9659 10.3124 28.3366 10.3124C28.7006 10.3124 29.0174 10.2316 29.2871 10.0698C29.5634 9.908 29.7623 9.67207 29.8836 9.362L30.0757 10.0293C29.9476 10.3461 29.7218 10.5989 29.3983 10.7877C29.0747 10.9697 28.6669 11.0607 28.1748 11.0607ZM34.4908 11.0607C33.9515 11.0607 33.5336 10.9157 33.237 10.6259C32.9404 10.336 32.7921 9.92148 32.7921 9.38222V4.46822H33.7628V9.34178C33.7628 9.63163 33.8336 9.85407 33.9751 10.0091C34.1234 10.1641 34.3324 10.2417 34.602 10.2417C34.9054 10.2417 35.1581 10.1574 35.3604 9.98889L35.6637 10.6866C35.5154 10.8146 35.3368 10.909 35.1278 10.9697C34.9256 11.0303 34.7132 11.0607 34.4908 11.0607ZM31.8821 6.43989V5.64111H35.2997V6.43989H31.8821ZM39.0457 11.0607C38.4727 11.0607 37.9672 10.9427 37.529 10.7068C37.0976 10.4709 36.7606 10.1473 36.5179 9.73611C36.282 9.32493 36.164 8.85307 36.164 8.32056C36.164 7.78804 36.2786 7.31619 36.5078 6.905C36.7437 6.49381 37.0639 6.17363 37.4684 5.94444C37.8795 5.70852 38.3413 5.59056 38.8536 5.59056C39.3726 5.59056 39.831 5.70515 40.2287 5.93433C40.6264 6.16352 40.9365 6.48707 41.1589 6.905C41.3881 7.31619 41.5027 7.79815 41.5027 8.35089C41.5027 8.39133 41.4993 8.43852 41.4926 8.49244C41.4926 8.54637 41.4892 8.59693 41.4825 8.64411H36.9224V7.94644H40.9769L40.5826 8.18911C40.5893 7.84533 40.5185 7.53863 40.3703 7.269C40.222 6.99937 40.0164 6.79041 39.7535 6.64211C39.4973 6.48707 39.1974 6.40956 38.8536 6.40956C38.5165 6.40956 38.2166 6.48707 37.9537 6.64211C37.6908 6.79041 37.4852 7.00274 37.3369 7.27911C37.1886 7.54874 37.1145 7.85881 37.1145 8.20933V8.37111C37.1145 8.72837 37.1954 9.04856 37.3571 9.33167C37.5257 9.60804 37.7582 9.82374 38.0548 9.97878C38.3514 10.1338 38.6918 10.2113 39.076 10.2113C39.3928 10.2113 39.6793 10.1574 39.9355 10.0496C40.1984 9.9417 40.4275 9.77993 40.623 9.56422L41.1589 10.1911C40.9163 10.4742 40.6129 10.6899 40.2489 10.8382C39.8917 10.9865 39.4906 11.0607 39.0457 11.0607ZM43.0831 6.97578C42.8944 6.97578 42.7326 6.91174 42.5978 6.78367C42.463 6.64885 42.3956 6.48033 42.3956 6.27811C42.3956 6.07589 42.463 5.91074 42.5978 5.78267C42.7326 5.65459 42.8944 5.59056 43.0831 5.59056C43.2651 5.59056 43.4202 5.65459 43.5482 5.78267C43.683 5.91074 43.7504 6.07589 43.7504 6.27811C43.7504 6.48033 43.683 6.64885 43.5482 6.78367C43.4202 6.91174 43.2651 6.97578 43.0831 6.97578ZM43.0831 11.0607C42.8944 11.0607 42.7326 10.9966 42.5978 10.8686C42.463 10.7337 42.3956 10.5652 42.3956 10.363C42.3956 10.1608 42.463 9.99563 42.5978 9.86756C42.7326 9.73948 42.8944 9.67544 43.0831 9.67544C43.2651 9.67544 43.4202 9.73948 43.5482 9.86756C43.683 9.99563 43.7504 10.1608 43.7504 10.363C43.7504 10.5652 43.683 10.7337 43.5482 10.8686C43.4202 10.9966 43.2651 11.0607 43.0831 11.0607ZM48.6875 7.34989H52.4286V7.997H48.6875V7.34989ZM48.7684 11H48.0202V3.92222H52.8735V4.56933H48.7684V11ZM54.1682 11V5.69167H54.8558V7.13756L54.785 6.88478C54.9333 6.48033 55.1827 6.17363 55.5332 5.96467C55.8837 5.74896 56.3185 5.64111 56.8375 5.64111V6.33878C56.8106 6.33878 56.7836 6.33878 56.7567 6.33878C56.7297 6.33204 56.7027 6.32867 56.6758 6.32867C56.1163 6.32867 55.6781 6.50056 55.3613 6.84433C55.0445 7.18137 54.8861 7.66333 54.8861 8.29022V11H54.1682ZM58.1475 11V5.69167H58.8654V11H58.1475ZM58.5115 4.51878C58.3632 4.51878 58.2385 4.46822 58.1374 4.36711C58.0363 4.266 57.9857 4.14467 57.9857 4.00311C57.9857 3.86156 58.0363 3.74359 58.1374 3.64922C58.2385 3.54811 58.3632 3.49756 58.5115 3.49756C58.6598 3.49756 58.7845 3.54474 58.8856 3.63911C58.9867 3.73348 59.0373 3.85144 59.0373 3.993C59.0373 4.1413 58.9867 4.266 58.8856 4.36711C58.7912 4.46822 58.6665 4.51878 58.5115 4.51878ZM62.9761 11.0506C62.4705 11.0506 62.0155 10.936 61.6111 10.7068C61.2134 10.4776 60.8999 10.1608 60.6708 9.75633C60.4416 9.34515 60.327 8.8733 60.327 8.34078C60.327 7.80152 60.4416 7.32967 60.6708 6.92522C60.8999 6.52078 61.2134 6.20733 61.6111 5.98489C62.0155 5.7557 62.4705 5.64111 62.9761 5.64111C63.4412 5.64111 63.8558 5.74559 64.2198 5.95456C64.5905 6.16352 64.8837 6.47022 65.0994 6.87467C65.3219 7.27237 65.4331 7.76107 65.4331 8.34078C65.4331 8.91374 65.3252 9.40244 65.1095 9.80689C64.8938 10.2113 64.6006 10.5214 64.2299 10.7371C63.8659 10.9461 63.4479 11.0506 62.9761 11.0506ZM63.0266 10.4136C63.4041 10.4136 63.7412 10.3293 64.0378 10.1608C64.3411 9.98552 64.577 9.74285 64.7455 9.43278C64.9208 9.11596 65.0084 8.75196 65.0084 8.34078C65.0084 7.92285 64.9208 7.55885 64.7455 7.24878C64.577 6.9387 64.3411 6.69941 64.0378 6.53089C63.7412 6.35563 63.4041 6.268 63.0266 6.268C62.6559 6.268 62.3222 6.35563 62.0256 6.53089C61.7291 6.69941 61.4931 6.9387 61.3179 7.24878C61.1426 7.55885 61.055 7.92285 61.055 8.34078C61.055 8.75196 61.1426 9.11596 61.3179 9.43278C61.4931 9.74285 61.7291 9.98552 62.0256 10.1608C62.3222 10.3293 62.6559 10.4136 63.0266 10.4136ZM65.0286 11V9.40244L65.0994 8.33067L64.9983 7.25889V3.49756H65.7162V11H65.0286ZM71.0421 11V9.82711L71.0117 9.635V7.67344C71.0117 7.22181 70.8837 6.87467 70.6275 6.632C70.3781 6.38933 70.004 6.268 69.5052 6.268C69.1614 6.268 68.8345 6.3253 68.5244 6.43989C68.2143 6.55448 67.9514 6.70615 67.7357 6.89489L67.4122 6.359C67.6818 6.12981 68.0054 5.95456 68.3828 5.83322C68.7603 5.70515 69.158 5.64111 69.576 5.64111C70.2635 5.64111 70.7927 5.813 71.1634 6.15678C71.5409 6.49381 71.7296 7.00948 71.7296 7.70378V11H71.0421ZM69.212 11.0506C68.8143 11.0506 68.4671 10.9865 68.1705 10.8584C67.8807 10.7236 67.6582 10.5416 67.5032 10.3124C67.3481 10.0765 67.2706 9.80689 67.2706 9.50356C67.2706 9.22719 67.3347 8.97778 67.4627 8.75533C67.5976 8.52615 67.8133 8.34415 68.1098 8.20933C68.4132 8.06778 68.8176 7.997 69.3232 7.997H71.1533V8.53289H69.3434C68.8311 8.53289 68.4738 8.62389 68.2716 8.80589C68.0761 8.98789 67.9784 9.2137 67.9784 9.48333C67.9784 9.78667 68.0964 10.0293 68.3323 10.2113C68.5682 10.3933 68.8985 10.4843 69.3232 10.4843C69.7276 10.4843 70.0748 10.3933 70.3646 10.2113C70.6612 10.0226 70.8769 9.75296 71.0117 9.40244L71.1735 9.89789C71.0387 10.2484 70.8028 10.5281 70.4657 10.7371C70.1354 10.9461 69.7175 11.0506 69.212 11.0506ZM73.6212 13.0121C73.3718 13.0121 73.1325 12.9717 72.9033 12.8908C72.6809 12.8099 72.4888 12.6886 72.327 12.5268L72.6606 11.9909C72.7955 12.119 72.9404 12.2167 73.0954 12.2841C73.2572 12.3583 73.4358 12.3953 73.6313 12.3953C73.8672 12.3953 74.0695 12.3279 74.238 12.1931C74.4132 12.065 74.5784 11.8359 74.7334 11.5056L75.0772 10.727L75.1581 10.6158L77.3421 5.69167H78.0499L75.3906 11.637C75.2423 11.9808 75.0772 12.2538 74.8952 12.456C74.7199 12.6582 74.5278 12.7998 74.3189 12.8807C74.1099 12.9683 73.8773 13.0121 73.6212 13.0121ZM75.0368 11.1517L72.5899 5.69167H73.3381L75.5019 10.5652L75.0368 11.1517ZM78.2805 12.4762L78.7254 10.6057L78.8063 11.0404C78.6513 11.0404 78.5198 10.9899 78.412 10.8888C78.3109 10.7877 78.2603 10.6562 78.2603 10.4944C78.2603 10.3327 78.3109 10.2012 78.412 10.1001C78.5198 9.999 78.6479 9.94844 78.7962 9.94844C78.9512 9.94844 79.0759 10.0024 79.1703 10.1102C79.2714 10.2181 79.322 10.3461 79.322 10.4944C79.322 10.5484 79.3186 10.6023 79.3119 10.6562C79.3051 10.7101 79.2916 10.7708 79.2714 10.8382C79.2512 10.9056 79.2242 10.9865 79.1905 11.0809L78.7659 12.4762H78.2805ZM82.5235 11L85.759 3.92222H86.4971L89.7327 11H88.944L85.9714 4.357H86.2747L83.302 11H82.5235ZM83.7975 9.10922L84.0199 8.50256H88.1351L88.3576 9.10922H83.7975ZM92.8472 11.0506C92.3956 11.0506 92.0013 10.9663 91.6642 10.7978C91.3272 10.6293 91.0643 10.3765 90.8756 10.0394C90.6936 9.70241 90.6026 9.28111 90.6026 8.77556V5.69167H91.3205V8.69467C91.3205 9.26089 91.4586 9.68893 91.735 9.97878C92.0181 10.2619 92.4125 10.4034 92.918 10.4034C93.2888 10.4034 93.6089 10.3293 93.8786 10.181C94.1549 10.026 94.3639 9.80352 94.5055 9.51367C94.6538 9.22381 94.7279 8.87667 94.7279 8.47222V5.69167H95.4458V11H94.7582V9.544L94.8695 9.80689C94.7009 10.1979 94.438 10.5046 94.0808 10.727C93.7303 10.9427 93.3191 11.0506 92.8472 11.0506ZM99.7114 13.0121C99.2261 13.0121 98.761 12.9413 98.3161 12.7998C97.8712 12.6582 97.5106 12.456 97.2342 12.1931L97.5982 11.6471C97.8476 11.8696 98.1543 12.0448 98.5183 12.1729C98.889 12.3077 99.28 12.3751 99.6912 12.3751C100.365 12.3751 100.861 12.2167 101.178 11.8999C101.494 11.5898 101.653 11.1045 101.653 10.4439V9.11933L101.754 8.20933L101.683 7.29933V5.69167H102.371V10.3529C102.371 11.2696 102.145 11.9403 101.693 12.365C101.248 12.7964 100.588 13.0121 99.7114 13.0121ZM99.58 10.7978C99.0744 10.7978 98.6194 10.6899 98.215 10.4742C97.8105 10.2518 97.4903 9.94507 97.2544 9.55411C97.0252 9.16315 96.9106 8.71489 96.9106 8.20933C96.9106 7.70378 97.0252 7.25889 97.2544 6.87467C97.4903 6.4837 97.8105 6.18037 98.215 5.96467C98.6194 5.74896 99.0744 5.64111 99.58 5.64111C100.052 5.64111 100.476 5.73885 100.854 5.93433C101.231 6.12981 101.531 6.41967 101.754 6.80389C101.976 7.18811 102.088 7.65659 102.088 8.20933C102.088 8.76207 101.976 9.23056 101.754 9.61478C101.531 9.999 101.231 10.2922 100.854 10.4944C100.476 10.6967 100.052 10.7978 99.58 10.7978ZM99.6507 10.1608C100.042 10.1608 100.389 10.0799 100.692 9.91811C100.996 9.74959 101.235 9.52041 101.41 9.23056C101.585 8.93396 101.673 8.59356 101.673 8.20933C101.673 7.82511 101.585 7.48807 101.41 7.19822C101.235 6.90837 100.996 6.68256 100.692 6.52078C100.389 6.35226 100.042 6.268 99.6507 6.268C99.2665 6.268 98.9194 6.35226 98.6093 6.52078C98.306 6.68256 98.0667 6.90837 97.8914 7.19822C97.7229 7.48807 97.6386 7.82511 97.6386 8.20933C97.6386 8.59356 97.7229 8.93396 97.8914 9.23056C98.0667 9.52041 98.306 9.74959 98.6093 9.91811C98.9194 10.0799 99.2665 10.1608 99.6507 10.1608ZM106.562 11.0506C106.111 11.0506 105.716 10.9663 105.379 10.7978C105.042 10.6293 104.779 10.3765 104.591 10.0394C104.409 9.70241 104.318 9.28111 104.318 8.77556V5.69167H105.036V8.69467C105.036 9.26089 105.174 9.68893 105.45 9.97878C105.733 10.2619 106.128 10.4034 106.633 10.4034C107.004 10.4034 107.324 10.3293 107.594 10.181C107.87 10.026 108.079 9.80352 108.221 9.51367C108.369 9.22381 108.443 8.87667 108.443 8.47222V5.69167H109.161V11H108.473V9.544L108.585 9.80689C108.416 10.1979 108.153 10.5046 107.796 10.727C107.445 10.9427 107.034 11.0506 106.562 11.0506ZM112.587 11.0506C112.149 11.0506 111.735 10.9899 111.344 10.8686C110.953 10.7405 110.646 10.5821 110.424 10.3933L110.747 9.82711C110.963 9.98889 111.239 10.1304 111.576 10.2518C111.913 10.3664 112.267 10.4237 112.638 10.4237C113.143 10.4237 113.507 10.3461 113.73 10.1911C113.952 10.0293 114.064 9.817 114.064 9.55411C114.064 9.35863 114 9.20696 113.871 9.09911C113.75 8.98452 113.588 8.90026 113.386 8.84633C113.184 8.78567 112.958 8.73511 112.709 8.69467C112.459 8.65422 112.21 8.60704 111.96 8.55311C111.718 8.49919 111.495 8.42167 111.293 8.32056C111.091 8.2127 110.926 8.06778 110.798 7.88578C110.676 7.70378 110.616 7.46111 110.616 7.15778C110.616 6.86793 110.697 6.60841 110.858 6.37922C111.02 6.15004 111.256 5.97141 111.566 5.84333C111.883 5.70852 112.267 5.64111 112.719 5.64111C113.063 5.64111 113.406 5.6883 113.75 5.78267C114.094 5.8703 114.377 5.98826 114.599 6.13656L114.286 6.71289C114.05 6.55111 113.797 6.43652 113.528 6.36911C113.258 6.29496 112.988 6.25789 112.719 6.25789C112.24 6.25789 111.886 6.34215 111.657 6.51067C111.435 6.67244 111.323 6.88141 111.323 7.13756C111.323 7.33978 111.384 7.49819 111.505 7.61278C111.634 7.72737 111.799 7.81837 112.001 7.88578C112.21 7.94644 112.436 7.997 112.678 8.03744C112.928 8.07789 113.174 8.12844 113.416 8.18911C113.666 8.24304 113.892 8.32056 114.094 8.42167C114.303 8.51604 114.468 8.65422 114.589 8.83622C114.717 9.01148 114.781 9.24404 114.781 9.53389C114.781 9.84396 114.694 10.1136 114.519 10.3428C114.35 10.5652 114.101 10.7405 113.77 10.8686C113.447 10.9899 113.052 11.0506 112.587 11.0506ZM117.777 11.0506C117.278 11.0506 116.894 10.9157 116.625 10.6461C116.355 10.3765 116.22 9.99563 116.22 9.50356V4.51878H116.938V9.46311C116.938 9.77319 117.016 10.0125 117.171 10.181C117.332 10.3495 117.562 10.4338 117.858 10.4338C118.175 10.4338 118.438 10.3428 118.647 10.1608L118.9 10.6764C118.758 10.8045 118.586 10.8989 118.384 10.9596C118.188 11.0202 117.986 11.0506 117.777 11.0506ZM115.27 6.28822V5.69167H118.556V6.28822H115.27ZM123.611 11V4.22556L123.935 4.56933H121.943V3.92222H124.339V11H123.611ZM128.265 11.0607C127.76 11.0607 127.278 10.9798 126.82 10.818C126.361 10.6495 125.997 10.427 125.728 10.1507L126.081 9.57433C126.304 9.81026 126.607 10.0057 126.991 10.1608C127.382 10.3158 127.804 10.3933 128.255 10.3933C128.855 10.3933 129.31 10.2619 129.62 9.999C129.937 9.72937 130.096 9.37885 130.096 8.94744C130.096 8.64411 130.021 8.38459 129.873 8.16889C129.732 7.94644 129.489 7.77456 129.145 7.65322C128.801 7.53189 128.329 7.47122 127.73 7.47122H126.223L126.587 3.92222H130.46V4.56933H126.88L127.254 4.21544L126.941 7.18811L126.567 6.82411H127.891C128.606 6.82411 129.179 6.91174 129.61 7.087C130.042 7.26226 130.352 7.5083 130.54 7.82511C130.736 8.13519 130.834 8.49919 130.834 8.91711C130.834 9.31481 130.739 9.67881 130.551 10.0091C130.362 10.3327 130.079 10.5888 129.701 10.7776C129.324 10.9663 128.845 11.0607 128.265 11.0607ZM131.798 12.4762L132.243 10.6057L132.324 11.0404C132.169 11.0404 132.038 10.9899 131.93 10.8888C131.829 10.7877 131.778 10.6562 131.778 10.4944C131.778 10.3327 131.829 10.2012 131.93 10.1001C132.038 9.999 132.166 9.94844 132.314 9.94844C132.469 9.94844 132.594 10.0024 132.688 10.1102C132.789 10.2181 132.84 10.3461 132.84 10.4944C132.84 10.5484 132.836 10.6023 132.83 10.6562C132.823 10.7101 132.809 10.7708 132.789 10.8382C132.769 10.9056 132.742 10.9865 132.708 11.0809L132.284 12.4762H131.798ZM136.415 11V10.4843L139.358 7.60267C139.627 7.33978 139.83 7.11059 139.964 6.91511C140.099 6.71289 140.19 6.52415 140.237 6.34889C140.285 6.17363 140.308 6.00848 140.308 5.85344C140.308 5.44226 140.167 5.1187 139.883 4.88278C139.607 4.64685 139.196 4.52889 138.65 4.52889C138.232 4.52889 137.861 4.59293 137.538 4.721C137.221 4.84907 136.948 5.04793 136.719 5.31756L136.203 4.87267C136.479 4.54911 136.833 4.2997 137.265 4.12444C137.696 3.94919 138.178 3.86156 138.711 3.86156C139.189 3.86156 139.604 3.93907 139.954 4.09411C140.305 4.24241 140.574 4.46148 140.763 4.75133C140.959 5.04119 141.056 5.38159 141.056 5.77256C141.056 6.00174 141.023 6.22756 140.955 6.45C140.895 6.67244 140.78 6.90837 140.611 7.15778C140.45 7.40044 140.21 7.67681 139.894 7.98689L137.194 10.636L136.992 10.3529H141.38V11H136.415ZM145.095 11.0607C144.549 11.0607 144.063 10.9191 143.639 10.636C143.214 10.3461 142.88 9.93496 142.638 9.40244C142.395 8.86319 142.274 8.21607 142.274 7.46111C142.274 6.70615 142.395 6.06241 142.638 5.52989C142.88 4.99063 143.214 4.57944 143.639 4.29633C144.063 4.00648 144.549 3.86156 145.095 3.86156C145.641 3.86156 146.126 4.00648 146.551 4.29633C146.975 4.57944 147.309 4.99063 147.552 5.52989C147.801 6.06241 147.926 6.70615 147.926 7.46111C147.926 8.21607 147.801 8.86319 147.552 9.40244C147.309 9.93496 146.975 10.3461 146.551 10.636C146.126 10.9191 145.641 11.0607 145.095 11.0607ZM145.095 10.3933C145.513 10.3933 145.877 10.2821 146.187 10.0597C146.497 9.83048 146.74 9.50019 146.915 9.06878C147.09 8.63063 147.178 8.09474 147.178 7.46111C147.178 6.82748 147.09 6.29496 146.915 5.86356C146.74 5.42541 146.497 5.09511 146.187 4.87267C145.877 4.64348 145.513 4.52889 145.095 4.52889C144.69 4.52889 144.33 4.64348 144.013 4.87267C143.696 5.09511 143.45 5.42541 143.275 5.86356C143.1 6.29496 143.012 6.82748 143.012 7.46111C143.012 8.09474 143.1 8.63063 143.275 9.06878C143.45 9.50019 143.696 9.83048 144.013 10.0597C144.33 10.2821 144.69 10.3933 145.095 10.3933ZM148.837 11V10.4843L151.779 7.60267C152.049 7.33978 152.251 7.11059 152.386 6.91511C152.521 6.71289 152.612 6.52415 152.659 6.34889C152.706 6.17363 152.73 6.00848 152.73 5.85344C152.73 5.44226 152.588 5.1187 152.305 4.88278C152.029 4.64685 151.618 4.52889 151.072 4.52889C150.654 4.52889 150.283 4.59293 149.959 4.721C149.643 4.84907 149.37 5.04793 149.14 5.31756L148.625 4.87267C148.901 4.54911 149.255 4.2997 149.686 4.12444C150.118 3.94919 150.6 3.86156 151.132 3.86156C151.611 3.86156 152.025 3.93907 152.376 4.09411C152.726 4.24241 152.996 4.46148 153.185 4.75133C153.38 5.04119 153.478 5.38159 153.478 5.77256C153.478 6.00174 153.444 6.22756 153.377 6.45C153.316 6.67244 153.202 6.90837 153.033 7.15778C152.871 7.40044 152.632 7.67681 152.315 7.98689L149.616 10.636L149.413 10.3529H153.802V11H148.837ZM156.95 11.0607C156.444 11.0607 155.962 10.9798 155.504 10.818C155.046 10.6495 154.682 10.427 154.412 10.1507L154.766 9.57433C154.988 9.81026 155.292 10.0057 155.676 10.1608C156.067 10.3158 156.488 10.3933 156.94 10.3933C157.54 10.3933 157.995 10.2619 158.305 9.999C158.621 9.72937 158.78 9.37885 158.78 8.94744C158.78 8.64411 158.706 8.38459 158.557 8.16889C158.416 7.94644 158.173 7.77456 157.829 7.65322C157.486 7.53189 157.014 7.47122 156.414 7.47122H154.907L155.271 3.92222H159.144V4.56933H155.565L155.939 4.21544L155.625 7.18811L155.251 6.82411H156.576C157.29 6.82411 157.863 6.91174 158.295 7.087C158.726 7.26226 159.036 7.5083 159.225 7.82511C159.42 8.13519 159.518 8.49919 159.518 8.91711C159.518 9.31481 159.424 9.67881 159.235 10.0091C159.046 10.3327 158.763 10.5888 158.386 10.7776C158.008 10.9663 157.529 11.0607 156.95 11.0607Z" fill="black"/>
</svg>
