<svg width="11" height="11" viewBox="0 0 11 11" fill="none" xmlns="http://www.w3.org/2000/svg">
<g clip-path="url(#clip0_75_2050)">
<path d="M9.62149 5.33365C9.83633 5.48045 10.0279 5.64695 10.1962 5.83315C10.3645 6.01934 10.5095 6.22344 10.6312 6.44544C10.753 6.66744 10.8425 6.90197 10.8998 7.14904C10.9571 7.3961 10.9893 7.64854 10.9965 7.90635C10.9965 8.33244 10.9159 8.73348 10.7548 9.10944C10.5936 9.48541 10.3716 9.81304 10.0888 10.0923C9.80589 10.3716 9.47826 10.5918 9.10587 10.753C8.73349 10.9141 8.33245 10.9964 7.90278 11C7.57694 11 7.26184 10.9517 6.95748 10.855C6.65313 10.7583 6.37384 10.6187 6.11961 10.4361C5.86538 10.2535 5.6398 10.035 5.44287 9.78082C5.24593 9.52659 5.09375 9.24551 4.98633 8.93757H0.68418V0.687751H2.05915V0.000265598H2.74664V0.687751H7.55903V0.000265598H8.24652V0.687751H9.62149V5.33365ZM1.37167 1.37524V2.75021H8.934V1.37524H8.24652V2.06272H7.55903V1.37524H2.74664V2.06272H2.05915V1.37524H1.37167ZM4.8252 8.25009C4.81446 8.13909 4.80909 8.02451 4.80909 7.90635C4.80909 7.48025 4.88966 7.07922 5.05079 6.70325C5.21192 6.32728 5.43392 5.99965 5.71679 5.72036C5.99966 5.44107 6.32729 5.22086 6.69968 5.05973C7.07206 4.8986 7.4731 4.81624 7.90278 4.81266C8.26084 4.81266 8.60458 4.87174 8.934 4.9899V3.43769H1.37167V8.25009H4.8252ZM7.90278 10.3125C8.23578 10.3125 8.54729 10.2499 8.83733 10.1246C9.12736 9.99924 9.38158 9.82737 9.6 9.60895C9.81842 9.39053 9.9903 9.1363 10.1156 8.84627C10.2409 8.55623 10.3054 8.24293 10.309 7.90635C10.309 7.57334 10.2463 7.26183 10.121 6.9718C9.99567 6.68176 9.8238 6.42754 9.60538 6.20912C9.38696 5.9907 9.13273 5.81883 8.8427 5.6935C8.55266 5.56818 8.23936 5.50373 7.90278 5.50015C7.56977 5.50015 7.25826 5.56281 6.96823 5.68813C6.67819 5.81345 6.42397 5.98533 6.20555 6.20375C5.98713 6.42217 5.81526 6.67639 5.68993 6.96642C5.56461 7.25646 5.50016 7.56976 5.49658 7.90635C5.49658 8.23935 5.55924 8.55086 5.68456 8.8409C5.80988 9.13093 5.98176 9.38515 6.20018 9.60357C6.4186 9.82199 6.67282 9.99387 6.96285 10.1192C7.25289 10.2445 7.56619 10.309 7.90278 10.3125ZM8.24652 7.5626H9.27775V8.25009H7.55903V6.18763H8.24652V7.5626Z" fill="black"/>
</g>
<defs>
<clipPath id="clip0_75_2050">
<rect width="10.1111" height="10.1111" fill="white" transform="scale(1.08789)"/>
</clipPath>
</defs>
</svg>
