<svg width="30" height="30" viewBox="0 0 30 30" fill="none" xmlns="http://www.w3.org/2000/svg">
<path d="M15.0067 15H15.0167M20.0005 15H20.0117M10.0117 15H10.023" stroke="#FF6B00" stroke-width="2" stroke-linecap="round" stroke-linejoin="round"/>
<path d="M26.875 15C26.875 18.1494 25.6239 21.1699 23.3969 23.3969C21.1699 25.6239 18.1495 26.875 15 26.875C12.965 26.875 11.05 26.3625 9.37501 25.4612C7.04001 24.2025 5.46876 25.3725 4.08251 25.5825C3.97885 25.5974 3.87314 25.5874 3.77406 25.5535C3.67498 25.5196 3.58534 25.4627 3.51251 25.3875C3.40376 25.272 3.33179 25.1268 3.30575 24.9704C3.27971 24.8139 3.30077 24.6532 3.36626 24.5088C3.91126 23.2275 4.41001 20.7975 3.72876 18.75C3.3276 17.5405 3.12375 16.2743 3.12501 15C3.12501 11.8506 4.37612 8.8301 6.60311 6.60311C8.83011 4.37611 11.8506 3.125 15 3.125C18.1495 3.125 21.1699 4.37611 23.3969 6.60311C25.6239 8.8301 26.875 11.8506 26.875 15Z" stroke="#FF6B00" stroke-width="2" stroke-linecap="round" stroke-linejoin="round"/>
</svg>
