<svg width="245" height="15" viewBox="0 0 245 15" fill="none" xmlns="http://www.w3.org/2000/svg">
<path d="M18.3957 11V3.92222H19.4068V10.1203H23.2389V11H18.3957ZM26.4837 11.0607C25.9444 11.0607 25.4658 10.9427 25.0479 10.7068C24.63 10.4709 24.2997 10.1473 24.057 9.73611C23.8143 9.31819 23.693 8.84633 23.693 8.32056C23.693 7.78804 23.8143 7.31619 24.057 6.905C24.2997 6.49381 24.63 6.17363 25.0479 5.94444C25.4658 5.70852 25.9444 5.59056 26.4837 5.59056C27.0162 5.59056 27.4914 5.70852 27.9093 5.94444C28.334 6.17363 28.6643 6.49381 28.9002 6.905C29.1429 7.30944 29.2642 7.7813 29.2642 8.32056C29.2642 8.85307 29.1429 9.32493 28.9002 9.73611C28.6643 10.1473 28.334 10.4709 27.9093 10.7068C27.4914 10.9427 27.0162 11.0607 26.4837 11.0607ZM26.4837 10.2113C26.8274 10.2113 27.1342 10.1338 27.4038 9.97878C27.6802 9.82374 27.8959 9.60467 28.0509 9.32156C28.2059 9.0317 28.2834 8.69804 28.2834 8.32056C28.2834 7.93633 28.2059 7.60604 28.0509 7.32967C27.8959 7.04656 27.6802 6.82748 27.4038 6.67244C27.1342 6.51741 26.8274 6.43989 26.4837 6.43989C26.1399 6.43989 25.8332 6.51741 25.5636 6.67244C25.2939 6.82748 25.0782 7.04656 24.9164 7.32967C24.7547 7.60604 24.6738 7.93633 24.6738 8.32056C24.6738 8.69804 24.7547 9.0317 24.9164 9.32156C25.0782 9.60467 25.2939 9.82374 25.5636 9.97878C25.8332 10.1338 26.1399 10.2113 26.4837 10.2113ZM32.9423 11.0607C32.3963 11.0607 31.9076 10.9427 31.4762 10.7068C31.0515 10.4709 30.7179 10.1473 30.4752 9.73611C30.2325 9.32493 30.1112 8.85307 30.1112 8.32056C30.1112 7.78804 30.2325 7.31619 30.4752 6.905C30.7179 6.49381 31.0515 6.17363 31.4762 5.94444C31.9076 5.70852 32.3963 5.59056 32.9423 5.59056C33.4276 5.59056 33.859 5.6883 34.2365 5.88378C34.6207 6.07252 34.9173 6.35563 35.1263 6.73311L34.3882 7.20833C34.2129 6.94544 33.9972 6.75333 33.7411 6.632C33.4917 6.50393 33.222 6.43989 32.9322 6.43989C32.5817 6.43989 32.2682 6.51741 31.9919 6.67244C31.7155 6.82748 31.4964 7.04656 31.3346 7.32967C31.1729 7.60604 31.092 7.93633 31.092 8.32056C31.092 8.70478 31.1729 9.03844 31.3346 9.32156C31.4964 9.60467 31.7155 9.82374 31.9919 9.97878C32.2682 10.1338 32.5817 10.2113 32.9322 10.2113C33.222 10.2113 33.4917 10.1507 33.7411 10.0293C33.9972 9.90126 34.2129 9.70578 34.3882 9.44289L35.1263 9.908C34.9173 10.2787 34.6207 10.5652 34.2365 10.7674C33.859 10.9629 33.4276 11.0607 32.9423 11.0607ZM39.7096 11V9.86756L39.659 9.65522V7.724C39.659 7.31281 39.5377 6.996 39.295 6.77356C39.0591 6.54437 38.7018 6.42978 38.2232 6.42978C37.9064 6.42978 37.5963 6.4837 37.293 6.59156C36.9897 6.69267 36.7335 6.83085 36.5246 7.00611L36.1201 6.27811C36.3965 6.05567 36.7268 5.88715 37.111 5.77256C37.502 5.65122 37.9098 5.59056 38.3344 5.59056C39.0692 5.59056 39.6354 5.76919 40.0331 6.12644C40.4308 6.4837 40.6297 7.0297 40.6297 7.76444V11H39.7096ZM37.9502 11.0607C37.5525 11.0607 37.202 10.9933 36.8987 10.8584C36.6021 10.7236 36.3729 10.5383 36.2111 10.3023C36.0493 10.0597 35.9684 9.78667 35.9684 9.48333C35.9684 9.19348 36.0359 8.93059 36.1707 8.69467C36.3122 8.45874 36.538 8.27 36.8481 8.12844C37.1649 7.98689 37.5896 7.91611 38.1221 7.91611H39.8208V8.61378H38.1626C37.6772 8.61378 37.3503 8.69467 37.1818 8.85644C37.0133 9.01822 36.929 9.2137 36.929 9.44289C36.929 9.70578 37.0335 9.91811 37.2424 10.0799C37.4514 10.2349 37.7413 10.3124 38.112 10.3124C38.476 10.3124 38.7928 10.2316 39.0624 10.0698C39.3388 9.908 39.5377 9.67207 39.659 9.362L39.8511 10.0293C39.723 10.3461 39.4972 10.5989 39.1737 10.7877C38.8501 10.9697 38.4423 11.0607 37.9502 11.0607ZM44.2662 11.0607C43.7269 11.0607 43.309 10.9157 43.0124 10.6259C42.7158 10.336 42.5675 9.92148 42.5675 9.38222V4.46822H43.5382V9.34178C43.5382 9.63163 43.609 9.85407 43.7505 10.0091C43.8988 10.1641 44.1078 10.2417 44.3774 10.2417C44.6807 10.2417 44.9335 10.1574 45.1357 9.98889L45.4391 10.6866C45.2908 10.8146 45.1122 10.909 44.9032 10.9697C44.701 11.0303 44.4886 11.0607 44.2662 11.0607ZM41.6575 6.43989V5.64111H45.0751V6.43989H41.6575ZM46.6126 11V5.64111H47.5833V11H46.6126ZM47.0979 4.60978C46.9092 4.60978 46.7508 4.54911 46.6227 4.42778C46.5014 4.30644 46.4407 4.15815 46.4407 3.98289C46.4407 3.80089 46.5014 3.64922 46.6227 3.52789C46.7508 3.40656 46.9092 3.34589 47.0979 3.34589C47.2867 3.34589 47.4417 3.40656 47.563 3.52789C47.6911 3.64248 47.7552 3.78741 47.7552 3.96267C47.7552 4.14467 47.6945 4.2997 47.5732 4.42778C47.4518 4.54911 47.2934 4.60978 47.0979 4.60978ZM51.7318 11.0607C51.1926 11.0607 50.714 10.9427 50.296 10.7068C49.8781 10.4709 49.5478 10.1473 49.3052 9.73611C49.0625 9.31819 48.9412 8.84633 48.9412 8.32056C48.9412 7.78804 49.0625 7.31619 49.3052 6.905C49.5478 6.49381 49.8781 6.17363 50.296 5.94444C50.714 5.70852 51.1926 5.59056 51.7318 5.59056C52.2643 5.59056 52.7396 5.70852 53.1575 5.94444C53.5822 6.17363 53.9125 6.49381 54.1484 6.905C54.391 7.30944 54.5124 7.7813 54.5124 8.32056C54.5124 8.85307 54.391 9.32493 54.1484 9.73611C53.9125 10.1473 53.5822 10.4709 53.1575 10.7068C52.7396 10.9427 52.2643 11.0607 51.7318 11.0607ZM51.7318 10.2113C52.0756 10.2113 52.3823 10.1338 52.6519 9.97878C52.9283 9.82374 53.144 9.60467 53.299 9.32156C53.4541 9.0317 53.5316 8.69804 53.5316 8.32056C53.5316 7.93633 53.4541 7.60604 53.299 7.32967C53.144 7.04656 52.9283 6.82748 52.6519 6.67244C52.3823 6.51741 52.0756 6.43989 51.7318 6.43989C51.388 6.43989 51.0813 6.51741 50.8117 6.67244C50.5421 6.82748 50.3264 7.04656 50.1646 7.32967C50.0028 7.60604 49.9219 7.93633 49.9219 8.32056C49.9219 8.69804 50.0028 9.0317 50.1646 9.32156C50.3264 9.60467 50.5421 9.82374 50.8117 9.97878C51.0813 10.1338 51.388 10.2113 51.7318 10.2113ZM58.7162 5.59056C59.1544 5.59056 59.5386 5.67481 59.8689 5.84333C60.2059 6.01185 60.4688 6.268 60.6576 6.61178C60.8463 6.95556 60.9407 7.39033 60.9407 7.91611V11H59.97V8.02733C59.97 7.5083 59.8419 7.11733 59.5858 6.85444C59.3364 6.59156 58.9825 6.46011 58.5241 6.46011C58.1803 6.46011 57.8804 6.52752 57.6242 6.66233C57.3681 6.79715 57.1692 6.996 57.0277 7.25889C56.8929 7.52178 56.8255 7.8487 56.8255 8.23967V11H55.8548V5.64111H56.785V7.087L56.6333 6.70278C56.8086 6.35226 57.0782 6.07926 57.4422 5.88378C57.8062 5.6883 58.2309 5.59056 58.7162 5.59056ZM62.8887 6.74322C62.7404 6.74322 62.6124 6.6893 62.5045 6.58144C62.4034 6.47359 62.3528 6.34215 62.3528 6.18711C62.3528 6.02533 62.4034 5.89389 62.5045 5.79278C62.6124 5.69167 62.7404 5.64111 62.8887 5.64111C63.037 5.64111 63.1617 5.69167 63.2628 5.79278C63.3707 5.89389 63.4246 6.02533 63.4246 6.18711C63.4246 6.34215 63.3707 6.47359 63.2628 6.58144C63.1617 6.6893 63.037 6.74322 62.8887 6.74322ZM62.8887 11.0506C62.7404 11.0506 62.6124 10.9966 62.5045 10.8888C62.4034 10.7809 62.3528 10.6495 62.3528 10.4944C62.3528 10.3327 62.4034 10.2012 62.5045 10.1001C62.6124 9.999 62.7404 9.94844 62.8887 9.94844C63.037 9.94844 63.1617 9.999 63.2628 10.1001C63.3707 10.2012 63.4246 10.3327 63.4246 10.4944C63.4246 10.6495 63.3707 10.7809 63.2628 10.8888C63.1617 10.9966 63.037 11.0506 62.8887 11.0506ZM69.71 11.0607C69.1842 11.0607 68.6787 10.9764 68.1933 10.8079C67.7148 10.6326 67.344 10.4102 67.0811 10.1406L67.3743 9.56422C67.6238 9.80689 67.9574 10.0125 68.3753 10.181C68.8 10.3428 69.2449 10.4237 69.71 10.4237C70.1549 10.4237 70.5155 10.3697 70.7919 10.2619C71.075 10.1473 71.2806 9.99563 71.4087 9.80689C71.5435 9.61815 71.6109 9.40919 71.6109 9.18C71.6109 8.90363 71.53 8.68119 71.3682 8.51267C71.2132 8.34415 71.0076 8.2127 70.7515 8.11833C70.4953 8.01722 70.2122 7.92959 69.9021 7.85544C69.592 7.7813 69.282 7.70378 68.9719 7.62289C68.6618 7.53526 68.3753 7.42067 68.1125 7.27911C67.8563 7.13756 67.6473 6.95219 67.4856 6.723C67.3305 6.48707 67.253 6.18037 67.253 5.80289C67.253 5.45237 67.344 5.13219 67.526 4.84233C67.7148 4.54574 68.0012 4.30981 68.3855 4.13456C68.7697 3.95256 69.2618 3.86156 69.8617 3.86156C70.2594 3.86156 70.6537 3.91885 71.0447 4.03344C71.4356 4.1413 71.7727 4.29296 72.0558 4.48844L71.803 5.085C71.4997 4.88278 71.1761 4.73448 70.8323 4.64011C70.4953 4.54574 70.1684 4.49856 69.8516 4.49856C69.4269 4.49856 69.0764 4.55585 68.8 4.67044C68.5236 4.78504 68.318 4.94007 68.1832 5.13556C68.0552 5.3243 67.9911 5.54 67.9911 5.78267C67.9911 6.05904 68.0686 6.28148 68.2237 6.45C68.3855 6.61852 68.5944 6.74996 68.8506 6.84433C69.1135 6.9387 69.3999 7.02296 69.71 7.09711C70.0201 7.17126 70.3268 7.25215 70.6301 7.33978C70.9402 7.42741 71.2233 7.542 71.4795 7.68356C71.7423 7.81837 71.9513 8.00037 72.1063 8.22956C72.2681 8.45874 72.349 8.7587 72.349 9.12944C72.349 9.47322 72.2546 9.79341 72.0659 10.09C71.8772 10.3799 71.5873 10.6158 71.1963 10.7978C70.8121 10.973 70.3167 11.0607 69.71 11.0607ZM73.8276 11V5.69167H74.5455V11H73.8276ZM74.1916 4.51878C74.0433 4.51878 73.9186 4.46822 73.8175 4.36711C73.7164 4.266 73.6658 4.14467 73.6658 4.00311C73.6658 3.86156 73.7164 3.74359 73.8175 3.64922C73.9186 3.54811 74.0433 3.49756 74.1916 3.49756C74.3399 3.49756 74.4646 3.54474 74.5657 3.63911C74.6668 3.73348 74.7174 3.85144 74.7174 3.993C74.7174 4.1413 74.6668 4.266 74.5657 4.36711C74.4713 4.46822 74.3466 4.51878 74.1916 4.51878ZM78.6562 11.0506C78.1507 11.0506 77.6957 10.936 77.2912 10.7068C76.8935 10.4776 76.5801 10.1608 76.3509 9.75633C76.1217 9.34515 76.0071 8.8733 76.0071 8.34078C76.0071 7.80152 76.1217 7.32967 76.3509 6.92522C76.5801 6.52078 76.8935 6.20733 77.2912 5.98489C77.6957 5.7557 78.1507 5.64111 78.6562 5.64111C79.1213 5.64111 79.5359 5.74559 79.8999 5.95456C80.2706 6.16352 80.5638 6.47022 80.7795 6.87467C81.002 7.27237 81.1132 7.76107 81.1132 8.34078C81.1132 8.91374 81.0054 9.40244 80.7897 9.80689C80.574 10.2113 80.2807 10.5214 79.91 10.7371C79.546 10.9461 79.1281 11.0506 78.6562 11.0506ZM78.7068 10.4136C79.0842 10.4136 79.4213 10.3293 79.7179 10.1608C80.0212 9.98552 80.2571 9.74285 80.4257 9.43278C80.6009 9.11596 80.6885 8.75196 80.6885 8.34078C80.6885 7.92285 80.6009 7.55885 80.4257 7.24878C80.2571 6.9387 80.0212 6.69941 79.7179 6.53089C79.4213 6.35563 79.0842 6.268 78.7068 6.268C78.336 6.268 78.0024 6.35563 77.7058 6.53089C77.4092 6.69941 77.1732 6.9387 76.998 7.24878C76.8227 7.55885 76.7351 7.92285 76.7351 8.34078C76.7351 8.75196 76.8227 9.11596 76.998 9.43278C77.1732 9.74285 77.4092 9.98552 77.7058 10.1608C78.0024 10.3293 78.336 10.4136 78.7068 10.4136ZM80.7088 11V9.40244L80.7795 8.33067L80.6784 7.25889V3.49756H81.3963V11H80.7088ZM85.5089 11.0506C85.0033 11.0506 84.5483 10.936 84.1439 10.7068C83.7462 10.4776 83.4327 10.1608 83.2035 9.75633C82.9743 9.34515 82.8597 8.8733 82.8597 8.34078C82.8597 7.80152 82.9743 7.32967 83.2035 6.92522C83.4327 6.52078 83.7462 6.20733 84.1439 5.98489C84.5483 5.7557 85.0033 5.64111 85.5089 5.64111C85.974 5.64111 86.3885 5.74559 86.7525 5.95456C87.1233 6.16352 87.4165 6.47022 87.6322 6.87467C87.8546 7.27237 87.9659 7.76107 87.9659 8.34078C87.9659 8.91374 87.858 9.40244 87.6423 9.80689C87.4266 10.2113 87.1334 10.5214 86.7626 10.7371C86.3986 10.9461 85.9807 11.0506 85.5089 11.0506ZM85.5594 10.4136C85.9369 10.4136 86.2739 10.3293 86.5705 10.1608C86.8739 9.98552 87.1098 9.74285 87.2783 9.43278C87.4536 9.11596 87.5412 8.75196 87.5412 8.34078C87.5412 7.92285 87.4536 7.55885 87.2783 7.24878C87.1098 6.9387 86.8739 6.69941 86.5705 6.53089C86.2739 6.35563 85.9369 6.268 85.5594 6.268C85.1887 6.268 84.855 6.35563 84.5584 6.53089C84.2618 6.69941 84.0259 6.9387 83.8506 7.24878C83.6754 7.55885 83.5877 7.92285 83.5877 8.34078C83.5877 8.75196 83.6754 9.11596 83.8506 9.43278C84.0259 9.74285 84.2618 9.98552 84.5584 10.1608C84.855 10.3293 85.1887 10.4136 85.5594 10.4136ZM87.5614 11V9.40244L87.6322 8.33067L87.5311 7.25889V3.49756H88.249V11H87.5614ZM92.9581 5.64111C93.3895 5.64111 93.767 5.72537 94.0905 5.89389C94.4208 6.05567 94.677 6.30507 94.859 6.64211C95.0477 6.97915 95.1421 7.40381 95.1421 7.91611V11H94.4242V7.98689C94.4242 7.42741 94.2826 7.00611 93.9995 6.723C93.7231 6.43315 93.3322 6.28822 92.8266 6.28822C92.4491 6.28822 92.1188 6.36574 91.8357 6.52078C91.5594 6.66907 91.3437 6.88815 91.1886 7.178C91.0403 7.46111 90.9662 7.80489 90.9662 8.20933V11H90.2483V3.49756H90.9662V7.14767L90.8246 6.87467C90.9931 6.49044 91.2628 6.19048 91.6335 5.97478C92.0042 5.75233 92.4458 5.64111 92.9581 5.64111ZM100.408 11V9.82711L100.377 9.635V7.67344C100.377 7.22181 100.249 6.87467 99.9932 6.632C99.7438 6.38933 99.3697 6.268 98.8709 6.268C98.5271 6.268 98.2001 6.3253 97.8901 6.43989C97.58 6.55448 97.3171 6.70615 97.1014 6.89489L96.7779 6.359C97.0475 6.12981 97.371 5.95456 97.7485 5.83322C98.126 5.70515 98.5237 5.64111 98.9416 5.64111C99.6292 5.64111 100.158 5.813 100.529 6.15678C100.907 6.49381 101.095 7.00948 101.095 7.70378V11H100.408ZM98.5776 11.0506C98.1799 11.0506 97.8328 10.9865 97.5362 10.8584C97.2463 10.7236 97.0239 10.5416 96.8689 10.3124C96.7138 10.0765 96.6363 9.80689 96.6363 9.50356C96.6363 9.22719 96.7003 8.97778 96.8284 8.75533C96.9632 8.52615 97.1789 8.34415 97.4755 8.20933C97.7789 8.06778 98.1833 7.997 98.6889 7.997H100.519V8.53289H98.7091C98.1968 8.53289 97.8395 8.62389 97.6373 8.80589C97.4418 8.98789 97.3441 9.2137 97.3441 9.48333C97.3441 9.78667 97.462 10.0293 97.698 10.2113C97.9339 10.3933 98.2642 10.4843 98.6889 10.4843C99.0933 10.4843 99.4404 10.3933 99.7303 10.2113C100.027 10.0226 100.243 9.75296 100.377 9.40244L100.539 9.89789C100.404 10.2484 100.168 10.5281 99.8314 10.7371C99.5011 10.9461 99.0832 11.0506 98.5776 11.0506ZM103.045 11V5.69167H103.733V7.13756L103.662 6.88478C103.81 6.48033 104.06 6.17363 104.41 5.96467C104.761 5.74896 105.195 5.64111 105.714 5.64111V6.33878C105.688 6.33878 105.661 6.33878 105.634 6.33878C105.607 6.33204 105.58 6.32867 105.553 6.32867C104.993 6.32867 104.555 6.50056 104.238 6.84433C103.921 7.18137 103.763 7.66333 103.763 8.29022V11H103.045ZM108.93 11.0506C108.431 11.0506 108.047 10.9157 107.777 10.6461C107.508 10.3765 107.373 9.99563 107.373 9.50356V4.51878H108.091V9.46311C108.091 9.77319 108.168 10.0125 108.323 10.181C108.485 10.3495 108.714 10.4338 109.011 10.4338C109.328 10.4338 109.591 10.3428 109.8 10.1608L110.052 10.6764C109.911 10.8045 109.739 10.8989 109.537 10.9596C109.341 11.0202 109.139 11.0506 108.93 11.0506ZM106.422 6.28822V5.69167H109.709V6.28822H106.422ZM114.686 11V9.82711L114.655 9.635V7.67344C114.655 7.22181 114.527 6.87467 114.271 6.632C114.022 6.38933 113.648 6.268 113.149 6.268C112.805 6.268 112.478 6.3253 112.168 6.43989C111.858 6.55448 111.595 6.70615 111.379 6.89489L111.056 6.359C111.325 6.12981 111.649 5.95456 112.027 5.83322C112.404 5.70515 112.802 5.64111 113.22 5.64111C113.907 5.64111 114.436 5.813 114.807 6.15678C115.185 6.49381 115.373 7.00948 115.373 7.70378V11H114.686ZM112.856 11.0506C112.458 11.0506 112.111 10.9865 111.814 10.8584C111.524 10.7236 111.302 10.5416 111.147 10.3124C110.992 10.0765 110.914 9.80689 110.914 9.50356C110.914 9.22719 110.978 8.97778 111.106 8.75533C111.241 8.52615 111.457 8.34415 111.754 8.20933C112.057 8.06778 112.461 7.997 112.967 7.997H114.797V8.53289H112.987C112.475 8.53289 112.118 8.62389 111.915 8.80589C111.72 8.98789 111.622 9.2137 111.622 9.48333C111.622 9.78667 111.74 10.0293 111.976 10.2113C112.212 10.3933 112.542 10.4843 112.967 10.4843C113.371 10.4843 113.718 10.3933 114.008 10.2113C114.305 10.0226 114.521 9.75296 114.655 9.40244L114.817 9.89789C114.682 10.2484 114.446 10.5281 114.109 10.7371C113.779 10.9461 113.361 11.0506 112.856 11.0506ZM120.121 11V3.92222H120.869V10.3529H124.833V11H120.121ZM128.008 11.0506C127.496 11.0506 127.034 10.936 126.623 10.7068C126.219 10.4709 125.898 10.1507 125.663 9.74622C125.427 9.33504 125.309 8.86656 125.309 8.34078C125.309 7.80826 125.427 7.33978 125.663 6.93533C125.898 6.53089 126.219 6.21407 126.623 5.98489C127.028 5.7557 127.489 5.64111 128.008 5.64111C128.534 5.64111 128.999 5.7557 129.404 5.98489C129.815 6.21407 130.135 6.53089 130.364 6.93533C130.6 7.33978 130.718 7.80826 130.718 8.34078C130.718 8.86656 130.6 9.33504 130.364 9.74622C130.135 10.1507 129.815 10.4709 129.404 10.7068C128.992 10.936 128.527 11.0506 128.008 11.0506ZM128.008 10.4136C128.393 10.4136 128.733 10.3293 129.03 10.1608C129.326 9.98552 129.559 9.74285 129.727 9.43278C129.902 9.11596 129.99 8.75196 129.99 8.34078C129.99 7.92285 129.902 7.55885 129.727 7.24878C129.559 6.9387 129.326 6.69941 129.03 6.53089C128.733 6.35563 128.396 6.268 128.018 6.268C127.641 6.268 127.304 6.35563 127.007 6.53089C126.711 6.69941 126.475 6.9387 126.3 7.24878C126.124 7.55885 126.037 7.92285 126.037 8.34078C126.037 8.75196 126.124 9.11596 126.3 9.43278C126.475 9.74285 126.711 9.98552 127.007 10.1608C127.304 10.3293 127.638 10.4136 128.008 10.4136ZM134.378 11.0506C133.926 11.0506 133.532 10.9663 133.195 10.7978C132.858 10.6293 132.595 10.3765 132.406 10.0394C132.224 9.70241 132.133 9.28111 132.133 8.77556V5.69167H132.851V8.69467C132.851 9.26089 132.989 9.68893 133.266 9.97878C133.549 10.2619 133.943 10.4034 134.449 10.4034C134.819 10.4034 135.14 10.3293 135.409 10.181C135.686 10.026 135.895 9.80352 136.036 9.51367C136.184 9.22381 136.259 8.87667 136.259 8.47222V5.69167H136.976V11H136.289V9.544L136.4 9.80689C136.232 10.1979 135.969 10.5046 135.611 10.727C135.261 10.9427 134.85 11.0506 134.378 11.0506ZM141.687 5.64111C142.118 5.64111 142.496 5.72537 142.819 5.89389C143.15 6.05567 143.406 6.30507 143.588 6.64211C143.777 6.97915 143.871 7.40381 143.871 7.91611V11H143.153V7.98689C143.153 7.42741 143.011 7.00611 142.728 6.723C142.452 6.43315 142.061 6.28822 141.555 6.28822C141.178 6.28822 140.848 6.36574 140.565 6.52078C140.288 6.66907 140.072 6.88815 139.917 7.178C139.769 7.46111 139.695 7.80489 139.695 8.20933V11H138.977V5.69167H139.665V7.14767L139.553 6.87467C139.722 6.49044 139.992 6.19048 140.362 5.97478C140.733 5.75233 141.175 5.64111 141.687 5.64111ZM148.075 13.0121C147.59 13.0121 147.124 12.9413 146.68 12.7998C146.235 12.6582 145.874 12.456 145.598 12.1931L145.962 11.6471C146.211 11.8696 146.518 12.0448 146.882 12.1729C147.253 12.3077 147.644 12.3751 148.055 12.3751C148.729 12.3751 149.224 12.2167 149.541 11.8999C149.858 11.5898 150.016 11.1045 150.016 10.4439V9.11933L150.117 8.20933L150.047 7.29933V5.69167H150.734V10.3529C150.734 11.2696 150.508 11.9403 150.057 12.365C149.612 12.7964 148.951 13.0121 148.075 13.0121ZM147.943 10.7978C147.438 10.7978 146.983 10.6899 146.578 10.4742C146.174 10.2518 145.854 9.94507 145.618 9.55411C145.389 9.16315 145.274 8.71489 145.274 8.20933C145.274 7.70378 145.389 7.25889 145.618 6.87467C145.854 6.4837 146.174 6.18037 146.578 5.96467C146.983 5.74896 147.438 5.64111 147.943 5.64111C148.415 5.64111 148.84 5.73885 149.217 5.93433C149.595 6.12981 149.895 6.41967 150.117 6.80389C150.34 7.18811 150.451 7.65659 150.451 8.20933C150.451 8.76207 150.34 9.23056 150.117 9.61478C149.895 9.999 149.595 10.2922 149.217 10.4944C148.84 10.6967 148.415 10.7978 147.943 10.7978ZM148.014 10.1608C148.405 10.1608 148.752 10.0799 149.056 9.91811C149.359 9.74959 149.598 9.52041 149.774 9.23056C149.949 8.93396 150.036 8.59356 150.036 8.20933C150.036 7.82511 149.949 7.48807 149.774 7.19822C149.598 6.90837 149.359 6.68256 149.056 6.52078C148.752 6.35226 148.405 6.268 148.014 6.268C147.63 6.268 147.283 6.35226 146.973 6.52078C146.669 6.68256 146.43 6.90837 146.255 7.19822C146.086 7.48807 146.002 7.82511 146.002 8.20933C146.002 8.59356 146.086 8.93396 146.255 9.23056C146.43 9.52041 146.669 9.74959 146.973 9.91811C147.283 10.0799 147.63 10.1608 148.014 10.1608ZM154.987 11.0506C154.434 11.0506 153.948 10.936 153.531 10.7068C153.113 10.4709 152.786 10.1507 152.55 9.74622C152.314 9.33504 152.196 8.86656 152.196 8.34078C152.196 7.815 152.307 7.34989 152.53 6.94544C152.759 6.541 153.069 6.22419 153.46 5.995C153.857 5.75907 154.302 5.64111 154.794 5.64111C155.293 5.64111 155.735 5.7557 156.119 5.98489C156.51 6.20733 156.817 6.52415 157.039 6.93533C157.262 7.33978 157.373 7.80826 157.373 8.34078C157.373 8.37448 157.369 8.41156 157.363 8.452C157.363 8.4857 157.363 8.52278 157.363 8.56322H152.742V8.02733H156.978L156.695 8.23967C156.695 7.85544 156.611 7.51504 156.443 7.21844C156.281 6.91511 156.058 6.67919 155.775 6.51067C155.492 6.34215 155.165 6.25789 154.794 6.25789C154.43 6.25789 154.104 6.34215 153.814 6.51067C153.524 6.67919 153.298 6.91511 153.136 7.21844C152.974 7.52178 152.894 7.86893 152.894 8.25989V8.37111C152.894 8.77556 152.981 9.13281 153.156 9.44289C153.338 9.74622 153.588 9.98552 153.905 10.1608C154.228 10.3293 154.596 10.4136 155.007 10.4136C155.33 10.4136 155.63 10.3563 155.907 10.2417C156.19 10.1271 156.432 9.95181 156.635 9.71589L157.039 10.181C156.803 10.4641 156.507 10.6798 156.149 10.8281C155.799 10.9764 155.411 11.0506 154.987 11.0506ZM164.22 11.0506C163.755 11.0506 163.337 10.9461 162.967 10.7371C162.596 10.5214 162.303 10.2113 162.087 9.80689C161.871 9.40244 161.763 8.91374 161.763 8.34078C161.763 7.76107 161.871 7.27237 162.087 6.87467C162.309 6.47022 162.606 6.16352 162.977 5.95456C163.347 5.74559 163.762 5.64111 164.22 5.64111C164.726 5.64111 165.178 5.7557 165.575 5.98489C165.98 6.20733 166.297 6.52078 166.526 6.92522C166.755 7.32967 166.869 7.80152 166.869 8.34078C166.869 8.8733 166.755 9.34515 166.526 9.75633C166.297 10.1608 165.98 10.4776 165.575 10.7068C165.178 10.936 164.726 11.0506 164.22 11.0506ZM161.48 11V3.49756H162.198V7.25889L162.097 8.33067L162.168 9.40244V11H161.48ZM164.17 10.4136C164.547 10.4136 164.884 10.3293 165.181 10.1608C165.478 9.98552 165.713 9.74285 165.889 9.43278C166.064 9.11596 166.152 8.75196 166.152 8.34078C166.152 7.92285 166.064 7.55885 165.889 7.24878C165.713 6.9387 165.478 6.69941 165.181 6.53089C164.884 6.35563 164.547 6.268 164.17 6.268C163.792 6.268 163.452 6.35563 163.149 6.53089C162.852 6.69941 162.616 6.9387 162.441 7.24878C162.272 7.55885 162.188 7.92285 162.188 8.34078C162.188 8.75196 162.272 9.11596 162.441 9.43278C162.616 9.74285 162.852 9.98552 163.149 10.1608C163.452 10.3293 163.792 10.4136 164.17 10.4136ZM168.225 13.0121C167.976 13.0121 167.737 12.9717 167.507 12.8908C167.285 12.8099 167.093 12.6886 166.931 12.5268L167.265 11.9909C167.4 12.119 167.544 12.2167 167.699 12.2841C167.861 12.3583 168.04 12.3953 168.235 12.3953C168.471 12.3953 168.674 12.3279 168.842 12.1931C169.017 12.065 169.182 11.8359 169.337 11.5056L169.681 10.727L169.762 10.6158L171.946 5.69167H172.654L169.995 11.637C169.846 11.9808 169.681 12.2538 169.499 12.456C169.324 12.6582 169.132 12.7998 168.923 12.8807C168.714 12.9683 168.481 13.0121 168.225 13.0121ZM169.641 11.1517L167.194 5.69167H167.942L170.106 10.5652L169.641 11.1517ZM176.463 11V3.92222H179.516C180.305 3.92222 180.915 4.08063 181.347 4.39744C181.785 4.71426 182.004 5.16252 182.004 5.74222C182.004 6.12644 181.913 6.45 181.731 6.71289C181.556 6.97578 181.313 7.17463 181.003 7.30944C180.699 7.44426 180.366 7.51167 180.002 7.51167L180.174 7.269C180.625 7.269 181.013 7.33978 181.336 7.48133C181.667 7.61615 181.923 7.82174 182.105 8.09811C182.287 8.36774 182.378 8.70478 182.378 9.10922C182.378 9.70915 182.155 10.1743 181.711 10.5046C181.272 10.8349 180.608 11 179.719 11H176.463ZM177.211 10.3832H179.709C180.329 10.3832 180.804 10.2787 181.134 10.0698C181.465 9.85407 181.63 9.51367 181.63 9.04856C181.63 8.59019 181.465 8.25652 181.134 8.04756C180.804 7.83185 180.329 7.724 179.709 7.724H177.13V7.10722H179.466C180.032 7.10722 180.47 6.99937 180.78 6.78367C181.097 6.56796 181.256 6.24778 181.256 5.82311C181.256 5.3917 181.097 5.07152 180.78 4.86256C180.47 4.64685 180.032 4.539 179.466 4.539H177.211V10.3832ZM186.128 11.0506C185.677 11.0506 185.282 10.9663 184.945 10.7978C184.608 10.6293 184.345 10.3765 184.156 10.0394C183.974 9.70241 183.883 9.28111 183.883 8.77556V5.69167H184.601V8.69467C184.601 9.26089 184.74 9.68893 185.016 9.97878C185.299 10.2619 185.693 10.4034 186.199 10.4034C186.57 10.4034 186.89 10.3293 187.159 10.181C187.436 10.026 187.645 9.80352 187.786 9.51367C187.935 9.22381 188.009 8.87667 188.009 8.47222V5.69167H188.727V11H188.039V9.544L188.15 9.80689C187.982 10.1979 187.719 10.5046 187.362 10.727C187.011 10.9427 186.6 11.0506 186.128 11.0506ZM192.841 11.0506C192.335 11.0506 191.88 10.936 191.476 10.7068C191.078 10.4776 190.765 10.1608 190.535 9.75633C190.306 9.34515 190.192 8.8733 190.192 8.34078C190.192 7.80152 190.306 7.32967 190.535 6.92522C190.765 6.52078 191.078 6.20733 191.476 5.98489C191.88 5.7557 192.335 5.64111 192.841 5.64111C193.306 5.64111 193.72 5.74559 194.084 5.95456C194.455 6.16352 194.748 6.47022 194.964 6.87467C195.186 7.27237 195.298 7.76107 195.298 8.34078C195.298 8.91374 195.19 9.40244 194.974 9.80689C194.758 10.2113 194.465 10.5214 194.094 10.7371C193.73 10.9461 193.313 11.0506 192.841 11.0506ZM192.891 10.4136C193.269 10.4136 193.606 10.3293 193.902 10.1608C194.206 9.98552 194.442 9.74285 194.61 9.43278C194.785 9.11596 194.873 8.75196 194.873 8.34078C194.873 7.92285 194.785 7.55885 194.61 7.24878C194.442 6.9387 194.206 6.69941 193.902 6.53089C193.606 6.35563 193.269 6.268 192.891 6.268C192.52 6.268 192.187 6.35563 191.89 6.53089C191.594 6.69941 191.358 6.9387 191.182 7.24878C191.007 7.55885 190.92 7.92285 190.92 8.34078C190.92 8.75196 191.007 9.11596 191.182 9.43278C191.358 9.74285 191.594 9.98552 191.89 10.1608C192.187 10.3293 192.52 10.4136 192.891 10.4136ZM194.893 11V9.40244L194.964 8.33067L194.863 7.25889V3.49756H195.581V11H194.893ZM199.693 11.0506C199.188 11.0506 198.733 10.936 198.328 10.7068C197.931 10.4776 197.617 10.1608 197.388 9.75633C197.159 9.34515 197.044 8.8733 197.044 8.34078C197.044 7.80152 197.159 7.32967 197.388 6.92522C197.617 6.52078 197.931 6.20733 198.328 5.98489C198.733 5.7557 199.188 5.64111 199.693 5.64111C200.158 5.64111 200.573 5.74559 200.937 5.95456C201.308 6.16352 201.601 6.47022 201.817 6.87467C202.039 7.27237 202.15 7.76107 202.15 8.34078C202.15 8.91374 202.042 9.40244 201.827 9.80689C201.611 10.2113 201.318 10.5214 200.947 10.7371C200.583 10.9461 200.165 11.0506 199.693 11.0506ZM199.744 10.4136C200.121 10.4136 200.458 10.3293 200.755 10.1608C201.058 9.98552 201.294 9.74285 201.463 9.43278C201.638 9.11596 201.726 8.75196 201.726 8.34078C201.726 7.92285 201.638 7.55885 201.463 7.24878C201.294 6.9387 201.058 6.69941 200.755 6.53089C200.458 6.35563 200.121 6.268 199.744 6.268C199.373 6.268 199.039 6.35563 198.743 6.53089C198.446 6.69941 198.21 6.9387 198.035 7.24878C197.86 7.55885 197.772 7.92285 197.772 8.34078C197.772 8.75196 197.86 9.11596 198.035 9.43278C198.21 9.74285 198.446 9.98552 198.743 10.1608C199.039 10.3293 199.373 10.4136 199.744 10.4136ZM201.746 11V9.40244L201.817 8.33067L201.716 7.25889V3.49756H202.433V11H201.746ZM207.143 5.64111C207.574 5.64111 207.951 5.72537 208.275 5.89389C208.605 6.05567 208.861 6.30507 209.043 6.64211C209.232 6.97915 209.327 7.40381 209.327 7.91611V11H208.609V7.98689C208.609 7.42741 208.467 7.00611 208.184 6.723C207.908 6.43315 207.517 6.28822 207.011 6.28822C206.634 6.28822 206.303 6.36574 206.02 6.52078C205.744 6.66907 205.528 6.88815 205.373 7.178C205.225 7.46111 205.151 7.80489 205.151 8.20933V11H204.433V3.49756H205.151V7.14767L205.009 6.87467C205.178 6.49044 205.447 6.19048 205.818 5.97478C206.189 5.75233 206.63 5.64111 207.143 5.64111ZM214.592 11V9.82711L214.562 9.635V7.67344C214.562 7.22181 214.434 6.87467 214.178 6.632C213.928 6.38933 213.554 6.268 213.055 6.268C212.712 6.268 212.385 6.3253 212.075 6.43989C211.764 6.55448 211.502 6.70615 211.286 6.89489L210.962 6.359C211.232 6.12981 211.555 5.95456 211.933 5.83322C212.31 5.70515 212.708 5.64111 213.126 5.64111C213.814 5.64111 214.343 5.813 214.714 6.15678C215.091 6.49381 215.28 7.00948 215.28 7.70378V11H214.592ZM212.762 11.0506C212.364 11.0506 212.017 10.9865 211.721 10.8584C211.431 10.7236 211.208 10.5416 211.053 10.3124C210.898 10.0765 210.821 9.80689 210.821 9.50356C210.821 9.22719 210.885 8.97778 211.013 8.75533C211.148 8.52615 211.363 8.34415 211.66 8.20933C211.963 8.06778 212.368 7.997 212.873 7.997H214.703V8.53289H212.894C212.381 8.53289 212.024 8.62389 211.822 8.80589C211.626 8.98789 211.529 9.2137 211.529 9.48333C211.529 9.78667 211.646 10.0293 211.882 10.2113C212.118 10.3933 212.449 10.4843 212.873 10.4843C213.278 10.4843 213.625 10.3933 213.915 10.2113C214.211 10.0226 214.427 9.75296 214.562 9.40244L214.724 9.89789C214.589 10.2484 214.353 10.5281 214.016 10.7371C213.686 10.9461 213.268 11.0506 212.762 11.0506ZM216.835 8.57333V7.94644H219.484V8.57333H216.835ZM221.242 11V3.92222H224.296C225.084 3.92222 225.694 4.08063 226.126 4.39744C226.564 4.71426 226.783 5.16252 226.783 5.74222C226.783 6.12644 226.692 6.45 226.51 6.71289C226.335 6.97578 226.092 7.17463 225.782 7.30944C225.479 7.44426 225.145 7.51167 224.781 7.51167L224.953 7.269C225.404 7.269 225.792 7.33978 226.116 7.48133C226.446 7.61615 226.702 7.82174 226.884 8.09811C227.066 8.36774 227.157 8.70478 227.157 9.10922C227.157 9.70915 226.935 10.1743 226.49 10.5046C226.052 10.8349 225.388 11 224.498 11H221.242ZM221.99 10.3832H224.488C225.108 10.3832 225.583 10.2787 225.913 10.0698C226.244 9.85407 226.409 9.51367 226.409 9.04856C226.409 8.59019 226.244 8.25652 225.913 8.04756C225.583 7.83185 225.108 7.724 224.488 7.724H221.909V7.10722H224.245C224.811 7.10722 225.249 6.99937 225.56 6.78367C225.876 6.56796 226.035 6.24778 226.035 5.82311C226.035 5.3917 225.876 5.07152 225.56 4.86256C225.249 4.64685 224.811 4.539 224.245 4.539H221.99V10.3832ZM232.04 11V9.82711L232.009 9.635V7.67344C232.009 7.22181 231.881 6.87467 231.625 6.632C231.376 6.38933 231.002 6.268 230.503 6.268C230.159 6.268 229.832 6.3253 229.522 6.43989C229.212 6.55448 228.949 6.70615 228.733 6.89489L228.41 6.359C228.68 6.12981 229.003 5.95456 229.381 5.83322C229.758 5.70515 230.156 5.64111 230.574 5.64111C231.261 5.64111 231.79 5.813 232.161 6.15678C232.539 6.49381 232.727 7.00948 232.727 7.70378V11H232.04ZM230.21 11.0506C229.812 11.0506 229.465 10.9865 229.168 10.8584C228.878 10.7236 228.656 10.5416 228.501 10.3124C228.346 10.0765 228.268 9.80689 228.268 9.50356C228.268 9.22719 228.332 8.97778 228.46 8.75533C228.595 8.52615 228.811 8.34415 229.108 8.20933C229.411 8.06778 229.815 7.997 230.321 7.997H232.151V8.53289H230.341C229.829 8.53289 229.472 8.62389 229.269 8.80589C229.074 8.98789 228.976 9.2137 228.976 9.48333C228.976 9.78667 229.094 10.0293 229.33 10.2113C229.566 10.3933 229.896 10.4843 230.321 10.4843C230.725 10.4843 231.072 10.3933 231.362 10.2113C231.659 10.0226 231.875 9.75296 232.009 9.40244L232.171 9.89789C232.036 10.2484 231.8 10.5281 231.463 10.7371C231.133 10.9461 230.715 11.0506 230.21 11.0506ZM234.677 11V5.69167H235.365V7.13756L235.294 6.88478C235.442 6.48033 235.692 6.17363 236.042 5.96467C236.393 5.74896 236.828 5.64111 237.347 5.64111V6.33878C237.32 6.33878 237.293 6.33878 237.266 6.33878C237.239 6.33204 237.212 6.32867 237.185 6.32867C236.625 6.32867 236.187 6.50056 235.87 6.84433C235.554 7.18137 235.395 7.66333 235.395 8.29022V11H234.677ZM238.708 11.0506C238.559 11.0506 238.431 10.9966 238.323 10.8888C238.222 10.7809 238.172 10.6495 238.172 10.4944C238.172 10.3327 238.222 10.2012 238.323 10.1001C238.431 9.999 238.559 9.94844 238.708 9.94844C238.856 9.94844 238.981 9.999 239.082 10.1001C239.189 10.2012 239.243 10.3327 239.243 10.4944C239.243 10.6495 239.189 10.7809 239.082 10.8888C238.981 10.9966 238.856 11.0506 238.708 11.0506ZM240.85 11.0506C240.702 11.0506 240.574 10.9966 240.466 10.8888C240.365 10.7809 240.314 10.6495 240.314 10.4944C240.314 10.3327 240.365 10.2012 240.466 10.1001C240.574 9.999 240.702 9.94844 240.85 9.94844C240.999 9.94844 241.123 9.999 241.224 10.1001C241.332 10.2012 241.386 10.3327 241.386 10.4944C241.386 10.6495 241.332 10.7809 241.224 10.8888C241.123 10.9966 240.999 11.0506 240.85 11.0506ZM242.993 11.0506C242.845 11.0506 242.717 10.9966 242.609 10.8888C242.508 10.7809 242.457 10.6495 242.457 10.4944C242.457 10.3327 242.508 10.2012 242.609 10.1001C242.717 9.999 242.845 9.94844 242.993 9.94844C243.141 9.94844 243.266 9.999 243.367 10.1001C243.475 10.2012 243.529 10.3327 243.529 10.4944C243.529 10.6495 243.475 10.7809 243.367 10.8888C243.266 10.9966 243.141 11.0506 242.993 11.0506Z" fill="black"/>
<path d="M63.9596 12.2639H244.065V12.7694H63.9596V12.2639Z" fill="black"/>
</svg>
