<svg width="414" height="289" viewBox="0 0 414 289" fill="none" xmlns="http://www.w3.org/2000/svg">
<rect width="377" height="176" transform="translate(56.8954) scale(1.00087) rotate(18.8438)" fill="#F9B484"/>
<g clip-path="url(#clip0_50_2210)">
<path d="M214.555 125.667L214.595 125.65L214.584 125.678L214.555 125.667Z" fill="#264763"/>
<path d="M214.537 125.628L214.554 125.667L214.526 125.657L214.537 125.628Z" fill="#264763"/>
<path d="M253.431 121.842C253.656 121.081 253.387 120.164 252.524 119.183C250.706 117.122 248.571 115.298 246.642 113.358C242.699 109.444 238.756 105.531 234.803 101.646C232.818 99.6834 230.85 97.7605 228.864 95.7983C228.181 95.1145 227.468 94.6799 226.758 94.4092L226.673 94.3768C226.644 94.366 226.644 94.366 226.616 94.3551C226.587 94.3443 226.587 94.3443 226.559 94.3335L226.474 94.301C225.735 94.0195 224.942 93.8803 223.977 93.9363C221.2 94.0511 218.441 94.2053 215.653 94.3487C210.117 94.6179 204.58 94.887 199.022 95.2131C196.291 95.3781 193.483 95.3183 190.755 95.6472C188.173 95.9341 187.329 97.8934 189.129 99.9152C190.946 101.976 193.082 103.8 195.011 105.741C198.971 109.694 202.925 113.579 206.878 117.464C208.864 119.426 210.832 121.349 212.817 123.311C213.5 123.995 214.213 124.429 214.923 124.7L215.009 124.732C215.037 124.743 215.037 124.743 215.065 124.754C215.094 124.765 215.094 124.765 215.122 124.776L215.208 124.808C215.946 125.09 216.739 125.229 217.704 125.173C220.481 125.058 223.24 124.904 226.028 124.76C231.565 124.491 237.101 124.222 242.659 123.896C245.39 123.731 248.198 123.791 250.926 123.462C252.28 123.326 253.173 122.689 253.431 121.842Z" fill="#264763"/>
<path d="M183.009 143.984L199.794 136.14L205.851 143.726L211.662 128.476L195.006 111.474L183.009 143.984Z" fill="#264763"/>
<path d="M198.382 143.943L185.636 149.644L199.168 158.449L227.871 141.527L229.187 153.53L239.813 128.547L215.604 129.489L223.513 136.314L202.205 147.746L198.382 143.943Z" fill="#048242"/>
</g>
<path d="M221.982 177.307C222.994 177.366 224.103 178.066 224.222 179.155C224.356 180.332 223.346 181.496 222.151 181.448C221.307 181.371 220.362 180.962 220.016 180.129C219.551 179.186 220.059 177.895 221.034 177.5C221.319 177.348 221.647 177.293 221.982 177.307Z" fill="#264763"/>
<path d="M211.426 174.866C212.54 175.339 213.696 175.747 214.845 176.169C214.437 177.367 213.939 178.547 213.503 179.734C214.603 180.202 215.735 180.585 216.832 181.019C216.452 182.016 216.052 183.022 215.701 184.029C214.568 183.647 213.466 183.145 212.327 182.777C211.566 184.819 210.747 186.839 209.986 188.881C209.71 189.689 209.363 190.6 209.703 191.448C210.205 192.422 211.353 192.68 212.348 192.83C211.97 193.779 211.643 194.764 211.237 195.701C209.789 195.427 208.327 195.017 207.104 194.192C206.165 193.557 205.515 192.461 205.581 191.312C205.536 189.941 206.186 188.705 206.629 187.455C207.389 185.461 208.168 183.459 208.9 181.454C207.992 181.076 207.063 180.754 206.15 180.39C206.535 179.379 206.929 178.388 207.286 177.366C208.205 177.716 209.132 178.085 210.056 178.421C210.52 177.244 210.928 176.046 211.426 174.866Z" fill="#264763"/>
<path d="M171.039 163.784C172.262 163.76 173.454 164.198 174.475 164.832C174.064 165.996 173.624 167.15 173.175 168.284C171.843 167.45 170.172 166.699 168.603 167.291C167.436 167.679 166.743 168.817 166.283 169.897C165.303 172.427 164.36 174.987 163.366 177.511C162.283 177.082 161.195 176.668 160.108 176.253C161.1 173.435 162.221 170.665 163.27 167.869C164.093 165.752 164.854 163.629 165.718 161.528C166.773 161.946 167.832 162.35 168.911 162.745C168.661 163.53 168.331 164.269 168.038 165.038C168.909 164.407 169.913 163.811 171.039 163.784Z" fill="#264763"/>
<path d="M177.622 167.449C179.25 166.829 181.067 167.114 182.622 167.788C184.254 168.345 185.961 169.174 186.839 170.732C187.71 172.141 187.625 173.935 187.073 175.469C186.34 177.392 185.594 179.309 184.881 181.223C184.771 181.638 184.606 182.113 184.75 182.543C184.975 182.759 185.296 182.849 185.577 183.005C185.237 183.854 184.921 184.728 184.609 185.588C183.73 185.432 182.883 185.191 182.082 184.788C181.694 184.575 181.325 184.271 181.176 183.855C180.952 183.297 181.061 182.67 181.149 182.1C180.597 182.232 180.152 182.634 179.581 182.775C178.039 183.296 176.37 182.921 174.914 182.285C173.554 181.734 172.29 180.763 171.681 179.39C170.643 177.233 171.842 174.297 174.082 173.471C175.731 172.795 177.585 173.11 179.222 173.652C180.648 174.114 182.047 174.647 183.465 175.171C183.763 174.306 184.098 173.341 183.793 172.442C183.434 171.473 182.488 170.901 181.558 170.579C180.801 170.274 179.951 170.212 179.179 170.455C178.552 170.657 178.157 171.224 177.748 171.704C176.729 171.153 175.663 170.681 174.58 170.253C175.244 169.021 176.251 167.905 177.622 167.449ZM177.65 175.826C176.813 175.686 175.915 175.964 175.382 176.641C174.943 177.24 174.896 178.087 175.231 178.736C175.527 179.273 176.028 179.66 176.557 179.927C177.909 180.539 179.595 180.742 180.916 179.908C181.825 179.39 182.188 178.354 182.541 177.428C180.944 176.82 179.368 176.073 177.65 175.826Z" fill="#264763"/>
<path d="M196.585 174.153C197.789 173.796 199.091 174.031 200.219 174.51C201.699 175.041 203.144 176.049 203.771 177.543C204.484 179.071 204.255 180.859 203.731 182.404C202.57 185.452 201.423 188.505 200.228 191.556C199.109 191.097 197.979 190.666 196.851 190.269C197.887 187.467 198.984 184.673 200.033 181.876C200.407 180.812 200.589 179.527 199.948 178.533C199.143 177.46 197.797 176.833 196.468 176.881C195.013 176.963 193.849 178.15 193.316 179.463C192.269 182.212 191.222 184.96 190.194 187.7C189.055 187.25 187.889 186.871 186.771 186.363C188.647 181.484 190.514 176.585 192.375 171.701C193.51 172.117 194.641 172.548 195.751 172.987C195.578 173.655 195.286 174.294 195.027 174.929C195.519 174.66 196 174.289 196.585 174.153Z" fill="#264763"/>
<path d="M219.176 181.913C220.301 182.357 221.431 182.788 222.553 183.199C220.695 188.118 218.828 193.016 216.942 197.924C215.818 197.479 214.687 197.049 213.566 196.638C215.424 191.719 217.276 186.815 219.176 181.913Z" fill="#264763"/>
<path d="M234.971 187.931C236.246 188.449 237.553 188.882 238.831 189.434C238.719 192.148 238.684 194.874 238.552 197.597C238.529 198.974 238.402 200.328 238.46 201.704C239.532 200.547 240.484 199.278 241.51 198.071C243.128 196.16 244.715 194.204 246.324 192.273C247.579 192.719 248.797 193.215 250.046 193.675C246.244 197.918 242.48 202.192 238.702 206.46C237.744 207.531 236.835 208.684 235.609 209.44C234.428 210.246 232.914 210.485 231.524 210.183C230.571 209.967 229.638 209.612 228.824 209.073C229.177 208.147 229.549 207.213 229.902 206.287C230.707 206.594 231.501 207.06 232.405 206.98C233.537 206.938 234.47 206.103 235.061 205.187C235.166 204.232 235.06 203.279 235.098 202.331C235.069 197.525 234.986 192.731 234.971 187.931Z" fill="#264763"/>
<path d="M231.382 184.655C231.401 184.647 231.407 184.632 231.426 184.623C231.854 184.265 232.507 184.334 232.989 184.469C233.122 184.503 234.51 185.065 234.488 185.122C234.791 184.242 235.136 183.379 235.467 182.51C234.752 182.221 234.122 181.753 233.385 181.521C232.662 181.295 231.937 181.116 231.168 181.182C229.649 181.304 228.484 182.41 227.872 183.759C227.793 183.924 227.041 185.856 227.055 185.861C226.312 185.561 225.558 185.29 224.82 184.976C224.483 185.859 224.147 186.742 223.81 187.625C224.46 187.873 225.11 188.12 225.765 188.354C225.831 188.395 225.981 188.469 226.051 188.495C224.568 192.219 223.197 195.986 221.742 199.721C222.815 200.13 223.889 200.539 224.963 200.948C226.376 197.197 227.823 193.443 229.25 189.698C230.267 190.085 231.284 190.473 232.282 190.87C232.619 189.987 232.955 189.104 233.291 188.221C232.263 187.862 231.271 187.451 230.243 187.092C230.229 187.086 230.63 186.032 230.663 185.947C230.818 185.582 230.973 185.217 231.199 184.879C231.26 184.805 231.307 184.725 231.382 184.655Z" fill="#264763"/>
<path d="M147.316 172.422C145.395 171.69 143.811 170.581 142.602 169.125C141.393 167.67 140.63 165.977 140.326 164.1C140.042 162.214 140.268 160.261 141.017 158.296C141.766 156.331 142.902 154.709 144.369 153.49C145.836 152.272 147.538 151.501 149.403 151.233C151.274 150.951 153.194 151.177 155.087 151.899C157.32 152.749 159.086 154.058 160.321 155.785C161.502 157.442 162.063 159.368 161.982 161.49L157.631 159.832C157.471 158.808 157.084 157.911 156.433 157.157C155.773 156.384 154.89 155.77 153.774 155.345C152.559 154.882 151.349 154.747 150.176 154.936C149.018 155.131 147.946 155.652 147.027 156.493C146.1 157.313 145.37 158.422 144.854 159.774C144.328 161.156 144.13 162.483 144.285 163.732C144.44 164.982 144.893 166.084 145.656 167.011C146.406 167.933 147.441 168.654 148.727 169.143C150.309 169.746 151.786 169.82 153.115 169.347C154.444 168.875 155.577 167.937 156.463 166.546L156.582 166.363L149.588 163.698L150.663 160.879L161.301 164.932L160.004 168.336C159.215 169.601 158.156 170.681 156.83 171.53C155.503 172.378 154.004 172.916 152.362 173.105C150.715 173.309 149.026 173.073 147.316 172.422Z" fill="#264763"/>
<defs>
<clipPath id="clip0_50_2210">
<rect width="69.6059" height="69.606" fill="white" transform="translate(194.08 81.9579) scale(1.00087) rotate(20.8583)"/>
</clipPath>
</defs>
</svg>
