<svg width="30" height="30" viewBox="0 0 30 30" fill="none" xmlns="http://www.w3.org/2000/svg">
<path fill-rule="evenodd" clip-rule="evenodd" d="M20.9055 4.01419C20.6672 3.63336 20.3161 3.33632 19.901 3.16441C19.486 2.9925 19.0277 2.95428 18.5899 3.05505L15.4829 3.76879C15.1645 3.84198 14.8336 3.84198 14.5152 3.76879L11.4081 3.05505C10.9703 2.95428 10.512 2.9925 10.097 3.16441C9.68197 3.33632 9.33085 3.63336 9.09253 4.01419L7.39904 6.71704C7.22623 6.99355 6.99294 7.22685 6.71645 7.4014L4.01378 9.095C3.63363 9.33313 3.33705 9.6837 3.16519 10.0981C2.99332 10.5124 2.95471 10.97 3.0547 11.4073L3.76839 14.518C3.84131 14.8359 3.84131 15.1662 3.76839 15.484L3.0547 18.593C2.95432 19.0306 2.99274 19.4885 3.16462 19.9032C3.3365 20.3179 3.63331 20.6688 4.01378 20.907L6.71645 22.6006C6.99294 22.7735 7.22623 23.0068 7.40077 23.2833L9.09426 25.9861C9.58157 26.7655 10.5113 27.1509 11.4081 26.9452L14.5152 26.2315C14.8336 26.1583 15.1645 26.1583 15.4829 26.2315L18.5917 26.9452C19.0292 27.0456 19.4871 27.0072 19.9018 26.8353C20.3165 26.6634 20.6673 26.3666 20.9055 25.9861L22.599 23.2833C22.7718 23.0068 23.0051 22.7735 23.2816 22.6006L25.986 20.907C26.3665 20.6685 26.6632 20.3172 26.8347 19.9022C27.0063 19.4871 27.0443 19.0289 26.9434 18.5913L26.2314 15.484C26.1582 15.1656 26.1582 14.8347 26.2314 14.5163L26.9451 11.4073C27.0456 10.9699 27.0075 10.5121 26.8359 10.0974C26.6643 9.6827 26.3679 9.33174 25.9877 9.09327L23.2833 7.39967C23.0072 7.22653 22.7739 6.99317 22.6007 6.71704L20.9055 4.01419ZM20.0363 11.1463C20.1432 10.9498 20.1697 10.7194 20.1102 10.5038C20.0507 10.2881 19.9099 10.1039 19.7173 9.98992C19.5248 9.87596 19.2956 9.84113 19.0779 9.89275C18.8602 9.94438 18.6711 10.0784 18.5502 10.2667L14.0313 17.9156L11.3027 15.3026C11.2218 15.2195 11.1249 15.1535 11.0179 15.1086C10.9109 15.0637 10.796 15.0409 10.68 15.0414C10.5639 15.0419 10.4492 15.0658 10.3426 15.1116C10.236 15.1574 10.1397 15.2242 10.0595 15.308C9.9793 15.3918 9.91678 15.4909 9.8757 15.5995C9.83461 15.708 9.8158 15.8236 9.82038 15.9396C9.82497 16.0555 9.85285 16.1694 9.90237 16.2743C9.95189 16.3792 10.022 16.4731 10.1086 16.5503L13.6235 19.9185C13.7176 20.0085 13.8307 20.076 13.9546 20.1161C14.0784 20.1562 14.2097 20.1678 14.3386 20.15C14.4676 20.1322 14.5908 20.0855 14.6992 20.0134C14.8076 19.9413 14.8982 19.8457 14.9645 19.7336L20.0363 11.1463Z" fill="#FF6B00"/>
</svg>
