<svg width="30" height="30" viewBox="0 0 30 30" fill="none" xmlns="http://www.w3.org/2000/svg">
<path fill-rule="evenodd" clip-rule="evenodd" d="M10.1601 11.4437C9.41477 12.335 8.36504 12.9179 7.21441 13.0794C6.06377 13.2408 4.89418 12.9692 3.93239 12.3173C2.97059 11.6654 2.2851 10.6796 2.0088 9.55105C1.73249 8.42247 1.88507 7.23151 2.43694 6.20903C2.98882 5.18656 3.90068 4.40541 4.99574 4.01702C6.09081 3.62863 7.29108 3.66067 8.36387 4.10693C9.43666 4.55319 10.3055 5.38187 10.8021 6.43234C11.2986 7.4828 11.3874 8.68021 11.0513 9.79243L12.4713 10.6124C12.5867 10.679 12.6866 10.7693 12.7643 10.8775C12.842 10.9857 12.8958 11.1091 12.922 11.2397C12.9483 11.3703 12.9464 11.5049 12.9165 11.6347C12.8867 11.7645 12.8295 11.8865 12.7488 11.9924L12.7413 12.0012C12.5939 12.195 12.3768 12.3239 12.1361 12.3606C11.8953 12.3972 11.6497 12.3387 11.4513 12.1974C11.4063 12.1643 11.3591 12.1342 11.3101 12.1074L10.1601 11.4437ZM4.12632 7.03118C4.4874 6.40394 5.07639 5.94004 5.77077 5.73597C6.46515 5.5319 7.21148 5.60337 7.85451 5.93551C8.49754 6.26765 8.98778 6.8349 9.22326 7.51927C9.45875 8.20364 9.42134 8.95244 9.11882 9.60993C9.05263 9.6968 9.00112 9.79391 8.96632 9.89743C8.58624 10.5393 7.96675 11.0038 7.24415 11.1889C6.52155 11.374 5.75502 11.2644 5.1132 10.8843C4.47137 10.5042 4.00683 9.88473 3.82175 9.16213C3.63668 8.43953 3.74624 7.67301 4.12632 7.03118ZM16.6851 10.3399C15.649 10.6556 14.7112 11.2316 13.961 12.0128C13.2109 12.794 12.6735 13.7544 12.4001 14.8024C12.2706 15.293 12.2013 15.7976 12.1938 16.3049C12.188 16.61 12.1036 16.9085 11.9488 17.1714C11.794 17.4344 11.574 17.653 11.3101 17.8062L10.1101 18.4987C9.35053 17.6194 8.29156 17.0534 7.13846 16.9105C5.98535 16.7676 4.82026 17.058 3.86906 17.7253C2.91785 18.3925 2.2483 19.3893 1.9902 20.5222C1.7321 21.6551 1.90384 22.8434 2.47212 23.8569C3.04041 24.8704 3.96476 25.6367 5.06597 26.0074C6.16718 26.3781 7.3668 26.3267 8.43227 25.8632C9.49773 25.3997 10.3531 24.557 10.8327 23.4987C11.3122 22.4403 11.3816 21.2416 11.0276 20.1349L28.1888 10.2274C28.3494 10.1347 28.4789 9.99646 28.5609 9.83015C28.6429 9.66383 28.6738 9.47693 28.6496 9.29309C28.6253 9.10924 28.5471 8.93671 28.4249 8.79731C28.3026 8.6579 28.1417 8.5579 27.9626 8.50993L26.9588 8.24118C25.771 7.92264 24.5175 7.94429 23.3413 8.30368L16.6851 10.3399ZM5.15632 19.1274C4.83388 19.3108 4.55089 19.5561 4.32363 19.8492C4.09638 20.1423 3.92935 20.4775 3.83217 20.8355C3.73499 21.1934 3.70957 21.5671 3.75738 21.9349C3.80519 22.3027 3.92528 22.6574 4.11074 22.9787C4.2962 23.2999 4.54336 23.5812 4.83801 23.8065C5.13265 24.0319 5.46895 24.1967 5.82754 24.2915C6.18613 24.3863 6.55993 24.4092 6.92743 24.359C7.29492 24.3087 7.64884 24.1863 7.96882 23.9987C8.60953 23.6231 9.07566 23.0093 9.26549 22.2913C9.45532 21.5732 9.35345 20.8093 8.9821 20.1661C8.61074 19.5229 8.00006 19.0527 7.28332 18.8581C6.56657 18.6635 5.80196 18.7604 5.15632 19.1274ZM15.0001 15.9374C15.2487 15.9374 15.4872 15.8387 15.663 15.6628C15.8388 15.487 15.9376 15.2486 15.9376 14.9999C15.9376 14.7513 15.8388 14.5128 15.663 14.337C15.4872 14.1612 15.2487 14.0624 15.0001 14.0624C14.7514 14.0624 14.513 14.1612 14.3372 14.337C14.1613 14.5128 14.0626 14.7513 14.0626 14.9999C14.0626 15.2486 14.1613 15.487 14.3372 15.6628C14.513 15.8387 14.7514 15.9374 15.0001 15.9374Z" fill="#FF6B00"/>
<path d="M20.4644 15.7687C20.6069 15.6864 20.7686 15.6431 20.9331 15.6431C21.0977 15.6431 21.2594 15.6864 21.4019 15.7687L28.1894 19.6874C28.35 19.7802 28.4794 19.9186 28.5613 20.085C28.6432 20.2514 28.674 20.4383 28.6496 20.6222C28.6253 20.8061 28.5469 20.9786 28.4245 21.1179C28.3021 21.2572 28.1411 21.3571 27.9619 21.4049L26.9594 21.6737C25.7714 21.9918 24.5179 21.9697 23.3419 21.6099L16.9081 19.6424C16.7334 19.5891 16.578 19.4859 16.4611 19.3455C16.3442 19.2051 16.2709 19.0335 16.2502 18.852C16.2295 18.6705 16.2623 18.4868 16.3445 18.3237C16.4267 18.1605 16.5549 18.025 16.7131 17.9337L20.4644 15.7687Z" fill="#FF6B00"/>
</svg>
