<svg width="30" height="30" viewBox="0 0 30 30" fill="none" xmlns="http://www.w3.org/2000/svg">
<path d="M11.3846 6.81C12.1321 4.6225 15.1546 4.55625 16.0409 6.61125L16.1159 6.81125L17.1246 9.76125C17.3558 10.4378 17.7294 11.0569 18.2202 11.5768C18.7109 12.0967 19.3075 12.5053 19.9696 12.775L20.2409 12.8762L23.1909 13.8838C25.3784 14.6313 25.4446 17.6537 23.3909 18.54L23.1909 18.615L20.2409 19.6238C19.5641 19.8548 18.9447 20.2283 18.4246 20.7191C17.9045 21.2099 17.4957 21.8065 17.2259 22.4688L17.1246 22.7388L16.1171 25.69C15.3696 27.8775 12.3471 27.9438 11.4621 25.89L11.3846 25.69L10.3771 22.74C10.1461 22.0632 9.77258 21.4439 9.28179 20.9238C8.791 20.4037 8.19435 19.9949 7.53211 19.725L7.26211 19.6238L4.31211 18.6162C2.12336 17.8687 2.05711 14.8462 4.11211 13.9612L4.31211 13.8838L7.26211 12.8762C7.93865 12.6451 8.55775 12.2715 9.07764 11.7807C9.59753 11.2899 10.0061 10.6934 10.2759 10.0312L10.3771 9.76125L11.3846 6.81ZM23.7509 2.5C23.9847 2.5 24.2139 2.5656 24.4123 2.68934C24.6107 2.81308 24.7705 2.99 24.8734 3.2L24.9334 3.34625L25.3709 4.62875L26.6546 5.06625C26.889 5.14587 27.0944 5.29327 27.2449 5.48977C27.3954 5.68627 27.4842 5.92302 27.5 6.17003C27.5158 6.41703 27.4579 6.66316 27.3336 6.87723C27.2094 7.0913 27.0244 7.26367 26.8021 7.3725L26.6546 7.4325L25.3721 7.87L24.9346 9.15375C24.8549 9.38804 24.7073 9.59337 24.5108 9.74374C24.3142 9.89411 24.0774 9.98274 23.8304 9.9984C23.5834 10.0141 23.3373 9.95606 23.1233 9.83172C22.9093 9.70739 22.7371 9.52233 22.6284 9.3L22.5684 9.15375L22.1309 7.87125L20.8471 7.43375C20.6128 7.35413 20.4073 7.20673 20.2568 7.01023C20.1063 6.81373 20.0176 6.57698 20.0018 6.32997C19.986 6.08297 20.0439 5.83684 20.1681 5.62277C20.2923 5.4087 20.4773 5.23633 20.6996 5.1275L20.8471 5.0675L22.1296 4.63L22.5671 3.34625C22.6514 3.09928 22.8109 2.88489 23.0232 2.73312C23.2354 2.58136 23.4899 2.49984 23.7509 2.5Z" fill="#FF6B00"/>
</svg>
