<svg width="30" height="30" viewBox="0 0 30 30" fill="none" xmlns="http://www.w3.org/2000/svg">
<g clip-path="url(#clip0_75_1277)">
<path fill-rule="evenodd" clip-rule="evenodd" d="M4.72813 3.03562C6.29437 2.92188 8.64125 2.8125 11.875 2.8125C15.1087 2.8125 17.4562 2.92188 19.0219 3.03562C19.9538 3.10375 20.6469 3.79625 20.7144 4.72813C20.8281 6.29437 20.9375 8.64125 20.9375 11.875C20.9375 15.1087 20.8281 17.4562 20.7144 19.0219C20.6463 19.9538 19.9538 20.6469 19.0212 20.7144C17.4556 20.8281 15.1087 20.9375 11.875 20.9375C8.64125 20.9375 6.29375 20.8281 4.72813 20.7144C3.79625 20.6463 3.10312 19.9538 3.03562 19.0212C2.92188 17.4562 2.8125 15.1094 2.8125 11.875C2.8125 8.64062 2.92188 6.29375 3.03562 4.72813C3.10375 3.79625 3.79625 3.10312 4.72813 3.03562ZM11.875 0.3125C8.585 0.3125 6.1775 0.42375 4.54688 0.5425C2.37688 0.7 0.7 2.37688 0.5425 4.54688C0.42375 6.1775 0.3125 8.585 0.3125 11.875C0.3125 15.165 0.42375 17.5725 0.5425 19.2031C0.7 21.3731 2.37688 23.05 4.54688 23.2075C6.1775 23.3263 8.585 23.4375 11.875 23.4375C15.165 23.4375 17.5725 23.3263 19.2031 23.2075C21.3731 23.05 23.05 21.3731 23.2075 19.2031C23.3263 17.5725 23.4375 15.165 23.4375 11.875C23.4375 8.585 23.3263 6.1775 23.2075 4.54688C23.05 2.37688 21.3731 0.7 19.2031 0.5425C17.5725 0.42375 15.165 0.3125 11.875 0.3125ZM18.125 6.5625C18.515 6.5625 18.8929 6.56396 19.2587 6.56687C19.2937 7.295 19.3244 8.12687 19.345 9.06812C18.9383 9.06444 18.5317 9.06256 18.125 9.0625C14.8913 9.0625 12.5437 9.17188 10.9788 9.28625C10.0463 9.35375 9.35375 10.0463 9.28625 10.9781C9.17188 12.5444 9.0625 14.8913 9.0625 18.125C9.0625 18.5467 9.06437 18.9533 9.06812 19.345C8.23404 19.327 7.40022 19.2983 6.56687 19.2587C6.56396 18.8929 6.5625 18.515 6.5625 18.125C6.5625 14.835 6.67375 12.4275 6.7925 10.7969C6.95 8.62687 8.62687 6.95 10.7969 6.7925C12.4275 6.67375 14.835 6.5625 18.125 6.5625ZM6.7925 25.4531L6.755 24.8981C7.67003 24.937 8.58552 24.9641 9.50125 24.9794C11.0826 25.0072 12.6643 25.0072 14.2456 24.9794C16.485 24.9419 18.225 24.8531 19.5125 24.7594C22.3487 24.5531 24.5538 22.3481 24.76 19.5125C24.8844 17.8013 25 15.2913 25 11.875C24.9996 10.9383 24.9917 10.0683 24.9763 9.265H24.9756C24.9569 8.33958 24.931 7.50271 24.8981 6.75437C25.0919 6.76688 25.2769 6.77958 25.4531 6.7925C27.6231 6.95 29.3 8.62687 29.4575 10.7969C29.5763 12.4275 29.6875 14.835 29.6875 18.125C29.6875 21.415 29.5763 23.8225 29.4575 25.4531C29.3 27.6231 27.6231 29.3 25.4531 29.4575C23.8225 29.5763 21.415 29.6875 18.125 29.6875C14.835 29.6875 12.4275 29.5763 10.7969 29.4575C8.62687 29.3 6.95 27.6231 6.7925 25.4531Z" fill="#FF6B00"/>
</g>
<defs>
<clipPath id="clip0_75_1277">
<rect width="30" height="30" fill="white"/>
</clipPath>
</defs>
</svg>
