<svg width="213" height="51" viewBox="0 0 213 51" fill="none" xmlns="http://www.w3.org/2000/svg">
<g clip-path="url(#clip0_75_1141)">
<path d="M167.845 6.27598C169.208 5.84759 171.018 6.21172 171.721 7.58258C172.488 9.06053 171.743 11.0954 170.145 11.6309C168.995 11.9522 167.547 11.8879 166.673 10.9669C165.587 9.96015 165.608 8.01097 166.695 7.00425C166.993 6.66154 167.397 6.42592 167.845 6.27598Z" fill="#264763"/>
<path d="M152.721 8.35364C154.425 8.4179 156.151 8.37506 157.876 8.35364C157.94 10.1315 157.876 11.9307 157.897 13.7085C159.58 13.7728 161.263 13.7085 162.924 13.7299C162.924 15.2293 162.903 16.7501 162.945 18.2495C161.263 18.3137 159.559 18.2066 157.876 18.2923C157.897 21.3553 157.833 24.4183 157.855 27.4813C157.897 28.6808 157.897 30.0517 158.771 30.9941C159.921 32.0223 161.561 31.7866 162.945 31.4868C162.924 32.9219 162.988 34.3784 162.924 35.8135C160.879 36.1777 158.749 36.3704 156.726 35.8992C155.171 35.5351 153.765 34.4213 153.275 32.879C152.53 31.1012 152.764 29.152 152.721 27.2885C152.721 24.2898 152.743 21.2696 152.7 18.2709C151.316 18.2281 149.931 18.2709 148.547 18.2495C148.547 16.7287 148.568 15.2293 148.525 13.7085C149.91 13.7085 151.316 13.7299 152.7 13.7085C152.721 11.9307 152.658 10.1529 152.721 8.35364Z" fill="#264763"/>
<path d="M93.9981 14.0085C95.5956 13.3659 97.3848 13.3445 99.0462 13.6658C99.0888 15.4007 99.0888 17.1357 99.0675 18.8493C96.8949 18.4209 94.3176 18.271 92.5497 19.8346C91.2078 20.927 90.867 22.7691 90.8031 24.4184C90.7818 28.2311 90.8244 32.0652 90.7818 35.8779C89.1417 35.8564 87.5016 35.8564 85.8615 35.8564C85.755 31.6582 85.8402 27.46 85.8189 23.2617C85.8402 20.0702 85.7763 16.9001 85.8615 13.7086C87.459 13.73 89.0565 13.73 90.6753 13.7086C90.7392 14.8653 90.6753 16.0005 90.6753 17.1572C91.506 15.8934 92.5284 14.6082 93.9981 14.0085Z" fill="#264763"/>
<path d="M104.499 15.5293C106.331 13.9014 108.866 13.3659 111.251 13.473C113.68 13.3873 116.342 13.6229 118.28 15.2294C120.133 16.6431 120.922 19.0421 120.964 21.334C120.964 24.2256 120.943 27.1173 120.964 29.9875C121.028 30.5872 121.049 31.2941 121.454 31.7867C121.859 31.9581 122.327 31.9152 122.775 31.9795C122.753 33.2647 122.775 34.5713 122.796 35.8564C121.561 36.0921 120.325 36.1992 119.068 36.0706C118.451 35.985 117.812 35.7708 117.407 35.2995C116.832 34.6784 116.662 33.8002 116.491 33.0076C115.831 33.4574 115.447 34.2071 114.766 34.6784C112.998 36.1349 110.612 36.4776 108.376 36.3705C106.31 36.3277 104.158 35.6851 102.667 34.1857C100.218 31.8724 100.324 27.4171 102.859 25.2109C104.691 23.4973 107.29 22.9833 109.718 22.8762C111.826 22.7691 113.935 22.7691 116.065 22.7477C116.023 21.4625 115.98 20.0274 115.128 18.9992C114.169 17.9068 112.636 17.6284 111.251 17.6712C110.101 17.6498 108.951 17.9925 108.056 18.6994C107.332 19.2777 107.098 20.2202 106.8 21.0555C105.181 20.8413 103.541 20.7556 101.901 20.7342C102.156 18.785 102.923 16.8144 104.499 15.5293ZM108.738 26.5175C107.566 26.7531 106.523 27.5671 106.161 28.7237C105.884 29.7304 106.246 30.8657 107.013 31.5511C107.673 32.108 108.525 32.365 109.356 32.4507C111.443 32.5792 113.765 32.0009 115.085 30.2445C116.023 29.1093 115.98 27.5671 115.98 26.1748C113.573 26.1748 111.124 25.982 108.738 26.5175Z" fill="#264763"/>
<path d="M132.828 14.8438C134.234 13.7729 136.066 13.4301 137.791 13.4944C140.006 13.4516 142.413 14.0513 143.989 15.7006C145.693 17.3499 146.29 19.8132 146.375 22.1051C146.375 26.6889 146.396 31.2726 146.353 35.8778C144.649 35.835 142.945 35.835 141.263 35.8778C141.22 31.6796 141.263 27.46 141.241 23.2617C141.199 21.6767 140.794 19.8988 139.452 18.9135C137.855 17.9068 135.767 17.7569 134.042 18.4852C132.168 19.3205 131.23 21.4625 131.188 23.4545C131.188 27.5885 131.188 31.7225 131.209 35.835C129.484 35.8136 127.759 35.8993 126.033 35.7922C126.055 28.4453 126.054 21.0769 126.054 13.73C127.758 13.7086 129.463 13.7086 131.145 13.73C131.252 14.6939 131.188 15.6792 131.166 16.6431C131.678 16.0433 132.125 15.3151 132.828 14.8438Z" fill="#264763"/>
<path d="M166.46 13.73C168.164 13.7514 169.868 13.7514 171.551 13.73C171.572 21.1197 171.572 28.4881 171.551 35.8778C169.847 35.8564 168.143 35.8564 166.46 35.8778C166.439 28.4881 166.418 21.1197 166.46 13.73Z" fill="#264763"/>
<path d="M190.273 13.73C192.212 13.7728 194.15 13.6871 196.11 13.7728C197.324 17.3927 198.644 20.9912 199.837 24.6325C200.497 26.4532 201.009 28.2953 201.775 30.0731C202.606 28.0168 203.224 25.8749 203.969 23.7758C205.141 20.4557 206.248 17.0929 207.399 13.7514C209.273 13.7086 211.126 13.7514 213.001 13.73C210.125 21.2054 207.313 28.7023 204.481 36.1991C203.756 38.084 203.139 40.0546 201.903 41.6611C200.753 43.3104 198.879 44.3814 196.898 44.6813C195.535 44.874 194.129 44.874 192.787 44.5742C192.787 43.1819 192.808 41.7682 192.808 40.3759C194.022 40.3759 195.3 40.5901 196.45 40.0332C197.92 39.412 198.73 37.8484 199.049 36.349C198.708 35.0425 198.091 33.843 197.665 32.5792C195.215 26.2818 192.702 20.0273 190.273 13.73Z" fill="#264763"/>
<path d="M183.905 11.2239C183.926 11.2024 183.926 11.181 183.948 11.1596C184.331 10.4742 185.226 10.2386 185.929 10.1743C186.12 10.1529 188.229 10.1957 188.229 10.2814C188.186 8.97481 188.208 7.66822 188.208 6.36162C187.121 6.3402 186.056 6.04033 184.97 6.10459C183.905 6.16885 182.861 6.29736 181.882 6.7686C179.943 7.68964 178.964 9.7245 178.836 11.8022C178.814 12.0592 178.793 14.9723 178.814 14.9723C177.686 14.9509 176.557 14.9723 175.428 14.9295C175.428 16.2575 175.428 17.5855 175.428 18.9135C176.408 18.9135 177.387 18.9135 178.367 18.8921C178.474 18.9135 178.708 18.9349 178.814 18.9349C178.729 24.5683 178.814 30.2016 178.772 35.835C180.391 35.835 182.009 35.835 183.628 35.835C183.607 30.2016 183.628 24.5468 183.628 18.9135C185.162 18.9135 186.695 18.9135 188.208 18.9349C188.208 17.6069 188.208 16.2789 188.208 14.9509C186.674 14.9937 185.162 14.9509 183.628 14.9937C183.607 14.9937 183.607 13.4087 183.607 13.2801C183.628 12.7232 183.65 12.1663 183.777 11.6094C183.82 11.4809 183.841 11.3524 183.905 11.2239Z" fill="#264763"/>
<path d="M24.2832 24.5898L24.3048 24.5684V24.5898H24.2832Z" fill="#264763"/>
<path d="M24.2617 24.5684L24.2833 24.5898H24.2617V24.5684Z" fill="#264763"/>
<path d="M48.7776 12.3377C48.735 11.7808 48.3303 11.2453 47.5209 10.8169C45.8169 9.91731 43.9638 9.25331 42.2172 8.46078C38.6601 6.87573 35.103 5.29069 31.5459 3.72706C29.7567 2.93453 27.9888 2.16343 26.1996 1.3709C25.5819 1.09245 25.0068 0.985352 24.4743 0.985352H24.4104C24.3891 0.985352 24.3891 0.985352 24.3678 0.985352C24.3465 0.985352 24.3465 0.985352 24.3252 0.985352H24.2613C23.7075 0.985352 23.1537 1.09245 22.536 1.3709C20.7468 2.14201 18.9789 2.93453 17.1897 3.72706C13.6326 5.29069 10.0755 6.85431 6.51844 8.46078C4.77184 9.25331 2.91874 9.91731 1.21474 10.8169C-0.404059 11.6523 -0.467959 13.1517 1.21474 14.0299C2.91874 14.9295 4.77184 15.5935 6.51844 16.386C10.0968 17.9925 13.6539 19.5561 17.211 21.1197C19.0002 21.9123 20.7681 22.6834 22.5573 23.4759C23.175 23.7544 23.7501 23.8615 24.2826 23.8615H24.3465C24.3678 23.8615 24.3678 23.8615 24.3891 23.8615C24.4104 23.8615 24.4104 23.8615 24.4317 23.8615H24.4956C25.0494 23.8615 25.6032 23.7544 26.2209 23.4759C28.0101 22.7048 29.778 21.9123 31.5672 21.1197C35.1243 19.5561 38.6814 17.9925 42.2385 16.386C43.9851 15.5935 45.8382 14.9295 47.5422 14.0299C48.3942 13.6015 48.8202 12.9589 48.7776 12.3377Z" fill="#264763"/>
<path d="M8.20091 44.5314L17.2321 35.171L23.0896 38.641V27.1601L7.94531 20.1559L8.20091 44.5314Z" fill="#264763"/>
<path d="M18.2545 40.6544L11.332 47.5944L22.3867 49.9933L36.9559 31.6796L40.8112 39.2407L41.5354 20.1559L25.9225 26.8388L32.8024 29.3449L21.7051 42.1966L18.2545 40.6544Z" fill="#048242"/>
<path d="M67.0954 37.2272C64.1986 37.2272 61.5574 36.5632 59.2357 35.2566C56.914 33.95 55.0609 32.108 53.719 29.7946C52.3984 27.4599 51.7168 24.7825 51.7168 21.8266C51.7168 18.8707 52.3984 16.1718 53.719 13.8371C55.0396 11.5023 56.8927 9.63883 59.2144 8.35366C61.5361 7.04706 64.1773 6.38306 67.0315 6.38306C70.3969 6.38306 73.3789 7.21842 75.871 8.86773C78.2566 10.4528 79.9606 12.7018 80.9191 15.5292H74.3587C73.6345 14.2655 72.676 13.2802 71.4406 12.6162C70.1839 11.9307 68.7142 11.5666 67.0315 11.5666C65.1997 11.5666 63.5383 11.995 62.0899 12.8303C60.6628 13.6657 59.5126 14.8866 58.7245 16.4503C57.9151 17.9925 57.5104 19.8131 57.5104 21.848C57.5104 23.9257 57.9151 25.7678 58.7458 27.3314C59.5765 28.895 60.7267 30.1159 62.1964 30.9513C63.6448 31.7867 65.3701 32.2151 67.3084 32.2151C69.694 32.2151 71.6749 31.5725 73.1872 30.2873C74.6995 29.0021 75.7219 27.2029 76.1905 24.9324L76.2544 24.6325H65.7109V20.3915H81.7498V25.5107C81.3451 27.567 80.4931 29.5162 79.1725 31.294C77.8519 33.0718 76.1479 34.5284 74.0818 35.5993C72.0157 36.6917 69.6727 37.2272 67.0954 37.2272Z" fill="#264763"/>
</g>
<defs>
<clipPath id="clip0_75_1141">
<rect width="213" height="51" fill="white"/>
</clipPath>
</defs>
</svg>
