<svg width="281" height="68" viewBox="0 0 281 68" fill="none" xmlns="http://www.w3.org/2000/svg">
<path d="M202.327 0.314842C204.702 -0.433289 207.857 0.20263 209.081 2.59664C210.417 5.1777 209.118 8.73131 206.335 9.66646C204.331 10.2275 201.807 10.1153 200.286 8.50688C198.393 6.7488 198.43 3.34473 200.323 1.58667C200.842 0.988168 201.548 0.576689 202.327 0.314842Z" fill="#264763"/>
<path d="M175.978 3.94336C178.948 4.05557 181.954 3.9808 184.959 3.94336C185.071 7.04812 184.959 10.1902 184.997 13.295C187.929 13.4072 190.86 13.295 193.754 13.3324C193.754 15.9509 193.717 18.6067 193.792 21.2251C190.86 21.3375 187.892 21.1504 184.959 21.3C184.997 26.6492 184.885 31.9983 184.922 37.3474C184.997 39.4422 184.997 41.8362 186.519 43.4821C188.522 45.2776 191.379 44.8661 193.792 44.3424C193.754 46.8487 193.866 49.3923 193.754 51.8985C190.192 52.5345 186.481 52.8711 182.955 52.0482C180.246 51.4122 177.797 49.4672 176.944 46.7738C175.644 43.6692 176.053 40.2651 175.978 37.0108C175.978 31.7739 176.015 26.4995 175.942 21.2626C173.53 21.1878 171.118 21.2626 168.705 21.2251C168.705 18.5693 168.742 15.9509 168.668 13.295C171.08 13.295 173.53 13.3324 175.942 13.295C175.978 10.1902 175.868 7.08544 175.978 3.94336Z" fill="#264763"/>
<path d="M73.6645 13.8187C76.4484 12.6964 79.5652 12.6591 82.4597 13.2202C82.5346 16.25 82.5346 19.28 82.4965 22.2726C78.7117 21.5244 74.222 21.2625 71.1409 23.9932C68.8039 25.901 68.2095 29.1179 68.0978 31.9983C68.0609 38.6566 68.1358 45.3523 68.0609 52.0107C65.2033 51.9734 62.3457 51.9734 59.488 51.9734C59.3026 44.6416 59.4512 37.31 59.4143 29.9783C59.4512 24.4047 59.3406 18.8685 59.488 13.2949C62.272 13.3324 65.0547 13.3324 67.8755 13.2949C67.9873 15.3149 67.8755 17.2975 67.8755 19.3175C69.3234 17.1104 71.104 14.866 73.6645 13.8187Z" fill="#264763"/>
<path d="M91.9596 16.4743C95.1513 13.6314 99.5673 12.6963 103.723 12.8833C107.954 12.7336 112.593 13.1452 115.97 15.9506C119.199 18.4194 120.572 22.609 120.645 26.6114C120.645 31.6614 120.609 36.7112 120.645 41.7237C120.757 42.7711 120.794 44.0055 121.499 44.8659C122.205 45.1651 123.02 45.0903 123.8 45.2026C123.763 47.4469 123.8 49.7288 123.837 51.9731C121.684 52.3846 119.533 52.5716 117.343 52.3472C116.266 52.1976 115.154 51.8235 114.449 51.0005C113.447 49.9157 113.149 48.3821 112.852 46.9981C111.702 47.7836 111.034 49.0928 109.846 49.9157C106.766 52.4594 102.61 53.0579 98.7139 52.8708C95.1133 52.7961 91.3653 51.6738 88.768 49.0554C84.5005 45.0155 84.686 37.235 89.102 33.382C92.2937 30.3896 96.8202 29.4918 101.051 29.3048C104.725 29.1177 108.399 29.1177 112.111 29.0804C112.036 26.8359 111.962 24.3297 110.477 22.5342C108.807 20.6265 106.136 20.1402 103.723 20.2149C101.719 20.1776 99.7159 20.7761 98.1563 22.0105C96.8951 23.0205 96.4862 24.6664 95.9668 26.1251C93.1472 25.7512 90.2895 25.6015 87.4319 25.5641C87.8776 22.1601 89.2125 18.7187 91.9596 16.4743ZM99.3439 35.6638C97.3029 36.0754 95.4853 37.4968 94.8541 39.5168C94.3715 41.2749 95.0027 43.2574 96.3388 44.4544C97.4883 45.427 98.973 45.8758 100.421 46.0255C104.057 46.2499 108.102 45.24 110.404 42.1726C112.036 40.1901 111.962 37.4968 111.962 35.0653C107.768 35.0653 103.501 34.7287 99.3439 35.6638Z" fill="#264763"/>
<path d="M141.317 15.2776C143.767 13.4072 146.958 12.8088 149.965 12.921C153.823 12.8461 158.017 13.8935 160.763 16.7738C163.732 19.6541 164.771 23.9559 164.92 27.9584C164.92 35.9634 164.957 43.9683 164.883 52.0108C161.913 51.936 158.945 51.936 156.013 52.0108C155.939 44.6791 156.013 37.31 155.976 29.9783C155.902 27.2102 155.197 24.1054 152.859 22.3848C150.075 20.6267 146.439 20.3648 143.433 21.6366C140.167 23.0955 138.534 26.8361 138.46 30.315C138.46 37.5344 138.46 44.754 138.497 51.936C135.491 51.8985 132.485 52.0482 129.479 51.8612C129.517 39.0307 129.517 26.1628 129.517 13.3324C132.485 13.2949 135.454 13.2949 138.385 13.3324C138.571 15.0157 138.46 16.7363 138.422 18.4197C139.314 17.3723 140.092 16.1005 141.317 15.2776Z" fill="#264763"/>
<path d="M199.914 13.3323C202.882 13.3697 205.852 13.3697 208.783 13.3323C208.82 26.2376 208.82 39.1054 208.783 52.0107C205.815 51.9733 202.845 51.9733 199.914 52.0107C199.877 39.1054 199.839 26.2376 199.914 13.3323Z" fill="#264763"/>
<path d="M241.402 13.3323C244.779 13.4072 248.157 13.2575 251.57 13.4072C253.686 19.7288 255.987 26.0132 258.064 32.3722C259.215 35.5518 260.107 38.7687 261.441 41.8735C262.889 38.2825 263.965 34.5419 265.264 30.876C267.305 25.0779 269.236 19.2052 271.239 13.3697C274.505 13.295 277.734 13.3697 280.999 13.3323C275.989 26.3872 271.09 39.4795 266.155 52.5718C264.893 55.8635 263.816 59.3049 261.665 62.1105C259.661 64.9907 256.395 66.8611 252.943 67.3848C250.568 67.7214 248.12 67.7214 245.782 67.1978C245.782 64.7663 245.818 62.2975 245.818 59.8661C247.934 59.8661 250.161 60.2401 252.165 59.2676C254.725 58.1828 256.135 55.4521 256.691 52.8337C256.098 50.5518 255.021 48.4571 254.28 46.2501C250.012 35.2526 245.633 24.3299 241.402 13.3323Z" fill="#264763"/>
<path d="M230.308 8.95587C230.345 8.91855 230.345 8.8811 230.382 8.84366C231.05 7.64664 232.608 7.23523 233.832 7.12302C234.166 7.08557 237.841 7.16034 237.841 7.31C237.767 5.02817 237.804 2.74641 237.804 0.464609C235.911 0.4272 234.056 -0.0964929 232.163 0.0157321C230.308 0.127945 228.489 0.352383 226.782 1.17533C223.405 2.78382 221.698 6.33741 221.475 9.96591C221.438 10.4148 221.401 15.502 221.438 15.502C219.471 15.4646 217.504 15.502 215.537 15.4273C215.537 17.7464 215.537 20.0657 215.537 22.3848C217.244 22.3848 218.951 22.3848 220.658 22.3474C220.845 22.3848 221.252 22.4223 221.438 22.4223C221.289 32.2602 221.438 42.0981 221.364 51.936C224.184 51.936 227.005 51.936 229.825 51.936C229.787 42.0981 229.825 32.2227 229.825 22.3848C232.496 22.3848 235.169 22.3848 237.804 22.4223C237.804 20.103 237.804 17.7839 237.804 15.4646C235.132 15.5395 232.496 15.4646 229.825 15.5395C229.787 15.5395 229.787 12.7714 229.787 12.5469C229.825 11.5743 229.862 10.6017 230.084 9.62927C230.159 9.40472 230.196 9.1803 230.308 8.95587Z" fill="#264763"/>
<path d="M26.7938 54.3672C21.7468 54.3672 17.1451 53.2076 13.1001 50.9258C9.05506 48.6439 5.82642 45.427 3.48848 41.3871C1.18763 37.3097 0 32.634 0 27.4718C0 22.3098 1.18763 17.5965 3.48848 13.5192C5.78933 9.44187 9.01785 6.18745 13.063 3.94307C17.108 1.66132 21.7097 0.501709 26.6826 0.501709C32.5456 0.501709 37.7414 1.96056 42.0837 4.8409C46.2394 7.6089 49.2088 11.5366 50.8789 16.4743H39.4484C38.1872 14.2673 36.517 12.5466 34.3643 11.3871C32.1747 10.19 29.6142 9.55408 26.6826 9.55408C23.491 9.55408 20.5964 10.3023 18.0729 11.7611C15.5865 13.2199 13.5825 15.3521 12.2094 18.0828C10.7992 20.7761 10.0941 23.9556 10.0941 27.5093C10.0941 31.1376 10.7992 34.3546 12.2465 37.0853C13.6938 39.816 15.6978 41.9481 18.2585 43.407C20.782 44.8659 23.7879 45.614 27.1649 45.614C31.3212 45.614 34.7732 44.4918 37.4074 42.2474C40.0427 40.0031 41.8234 36.8609 42.64 32.8958L42.7518 32.3721H24.3817V24.9656H52.3256V33.9058C51.6207 37.4968 50.136 40.9008 47.8359 44.0055C45.5345 47.1103 42.5663 49.6539 38.9658 51.5243C35.3664 53.432 31.2844 54.3672 26.7938 54.3672Z" fill="#264763"/>
</svg>
