<svg width="171" height="171" viewBox="0 0 171 171" fill="none" xmlns="http://www.w3.org/2000/svg">
<g clip-path="url(#clip0_73_179)">
<path d="M85.1641 82.3622L85.2397 82.2861V82.3622H85.1641Z" fill="#264763"/>
<path d="M85.0898 82.2861L85.1655 82.3622H85.0898V82.2861Z" fill="#264763"/>
<path d="M170.99 39.611C170.841 37.6678 169.423 35.7994 166.586 34.3046C160.616 31.1656 154.123 28.8488 148.003 26.0834C135.54 20.5529 123.076 15.0223 110.613 9.56642C104.344 6.80114 98.1497 4.11058 91.8809 1.34528C89.7164 0.373689 87.7012 0 85.8356 0H85.6116C85.5372 0 85.5372 0 85.4624 0C85.388 0 85.388 0 85.3132 0H85.0892C83.1487 0 81.2083 0.373689 79.0443 1.34528C72.775 4.03584 66.5806 6.80114 60.3117 9.56642C47.8484 15.0223 35.3849 20.4781 22.9215 26.0834C16.8018 28.8488 10.3088 31.1656 4.33835 34.3046C-1.33363 37.2194 -1.55752 42.451 4.33835 45.5151C10.3088 48.6542 16.8018 50.9713 22.9215 53.7363C35.4595 59.3417 47.9232 64.7975 60.3865 70.2536C66.6554 73.0187 72.8498 75.7094 79.1187 78.4745C81.2831 79.4462 83.2979 79.8198 85.164 79.8198H85.388C85.4624 79.8198 85.4624 79.8198 85.5372 79.8198C85.6116 79.8198 85.6116 79.8198 85.6864 79.8198H85.9104C87.8508 79.8198 89.7912 79.4462 91.9552 78.4745C98.2245 75.7842 104.419 73.0187 110.688 70.2536C123.151 64.7975 135.615 59.3417 148.078 53.7363C154.198 50.9713 160.691 48.6542 166.661 45.5151C169.647 44.0205 171.139 41.7784 170.99 39.611Z" fill="#264763"/>
<path d="M28.8174 151.942L60.4612 119.281L80.9846 131.389V91.3297L27.9219 66.8904L28.8174 151.942Z" fill="#264763"/>
<path d="M64.044 138.414L39.7891 162.629L78.5226 171L129.57 107.099L143.078 133.482L145.616 66.8904L90.9115 90.2084L115.017 98.9529L76.1346 143.796L64.044 138.414Z" fill="#048242"/>
</g>
<defs>
<clipPath id="clip0_73_179">
<rect width="171" height="171" fill="white"/>
</clipPath>
</defs>
</svg>
