<svg width="31" height="41" viewBox="0 0 31 41" fill="none" xmlns="http://www.w3.org/2000/svg">
<path d="M9.48347 5.12586L4.35876 8.07194C2.9996 8.85329 2.0065 10.1426 1.59793 11.6561C1.18936 13.1697 1.39878 14.7836 2.18013 16.1427C2.96148 17.5019 4.25075 18.495 5.76432 18.9036C7.27788 19.3121 8.89176 19.1027 10.2509 18.3214M9.48347 5.12586L15.3756 15.3753M9.48347 5.12586L14.6082 2.17978C15.2812 1.7929 16.0238 1.54235 16.7936 1.44246C17.5634 1.34257 18.3453 1.39527 19.0948 1.59758C19.8442 1.79988 20.5465 2.14782 21.1614 2.62152C21.7764 3.09523 22.2921 3.68542 22.679 4.35841C23.0658 5.03139 23.3164 5.77399 23.4163 6.54381C23.5162 7.31362 23.4635 8.09557 23.2612 8.84501C23.0589 9.59445 22.7109 10.2967 22.2372 10.9117C21.7635 11.5267 21.1733 12.0423 20.5003 12.4292M15.3756 15.3753L10.2509 18.3214M15.3756 15.3753L20.5003 12.4292M15.3756 15.3753L21.2678 25.6247M10.2509 18.3214C8.89176 19.1027 7.89866 20.392 7.49009 21.9055C7.08152 23.4191 7.29094 25.033 8.07229 26.3921C8.85364 27.7513 10.1429 28.7444 11.6565 29.153C13.17 29.5615 14.7839 29.3521 16.1431 28.5708M20.5003 12.4292C19.8273 12.8161 19.2372 13.3317 18.7634 13.9467C18.2897 14.5617 17.9418 15.2639 17.7395 16.0134C17.5372 16.7628 17.4845 17.5448 17.5844 18.3146C17.6843 19.0844 17.9348 19.827 18.3217 20.5C18.7086 21.173 19.2242 21.7632 19.8392 22.2369C20.4542 22.7106 21.1564 23.0585 21.9059 23.2608C22.6553 23.4631 23.4373 23.5158 24.2071 23.4159C24.9769 23.316 25.7195 23.0655 26.3925 22.6786C27.0655 22.2917 27.6557 21.7761 28.1294 21.1611C28.6031 20.5461 28.951 19.8439 29.1533 19.0944C29.3556 18.345 29.4083 17.563 29.3084 16.7932C29.2085 16.0234 28.958 15.2808 28.5711 14.6078C28.1842 13.9348 27.6686 13.3446 27.0536 12.8709C26.4386 12.3972 25.7364 12.0493 24.9869 11.847C24.2375 11.6447 23.4555 11.592 22.6857 11.6919C21.9159 11.7918 21.1733 12.0423 20.5003 12.4292ZM16.1431 28.5708C14.7839 29.3521 13.7908 30.6414 13.3822 32.1549C12.9737 33.6685 13.1831 35.2824 13.9644 36.6415C14.7458 38.0007 16.0351 38.9938 17.5486 39.4024C19.0622 39.811 20.6761 39.6015 22.0352 38.8202C23.3944 38.0388 24.3875 36.7496 24.7961 35.236C25.2046 33.7224 24.9952 32.1085 24.2139 30.7494L21.2678 25.6247M16.1431 28.5708L21.2678 25.6247" stroke="#3B322D" stroke-width="2.75" stroke-linecap="round" stroke-linejoin="round"/>
</svg>
