<svg width="113" height="95" viewBox="0 0 113 95" fill="none" xmlns="http://www.w3.org/2000/svg">
<path d="M59.6014 12.5605C69.0183 11.6024 73.3332 24.0629 73.652 31.5065C73.6959 32.5304 73.8065 33.6697 73.662 34.6808C74.6951 34.665 75.7283 34.6833 76.7601 34.7359C102.086 36.1817 102.044 59.3394 77.6612 61.181C76.3171 61.2825 75.1169 61.484 73.7439 61.3989C73.9431 69.0209 71.1446 81.2634 62.311 83.3196C62.0247 83.3862 61.6977 83.434 61.4047 83.4834C60.9455 83.5005 60.42 83.5315 59.9659 83.5113C50.0403 83.069 46.6322 69.3229 46.8609 61.4129C45.5012 61.4526 44.1059 61.259 42.7603 61.1551C37.7221 60.7657 32.2114 59.1159 28.3811 55.7002C26.233 53.7566 24.9824 51.3296 24.8465 48.4484C24.4533 40.1073 33.3799 36.2945 40.2872 35.0849C42.2755 34.7368 44.7974 34.6864 46.8464 34.6052C46.672 30.6927 47.8827 24.4063 49.5014 20.8322C50.254 19.2021 51.2218 17.6804 52.379 16.3076C54.3584 13.9858 56.5825 12.8032 59.6014 12.5605ZM32.4467 53.7702C34.0922 54.2512 36.28 54.8965 37.9608 55.1583C41.0381 55.6377 44.1898 55.6704 47.2907 55.6885C47.6652 53.4881 48.3318 49.9866 49.299 47.9945C48.5075 46.3184 47.4212 42.067 47.4015 40.2455C46.7496 40.2826 46.0969 40.3055 45.444 40.3142C40.4991 40.3269 27.1173 41.1008 26.6668 48.0754C26.4798 50.9721 30.045 52.9438 32.4467 53.7702ZM60.3401 41.8482C58.7257 42.3062 56.1801 43.0037 55.5395 44.5258C54.8816 46.0893 53.9066 47.3911 54.4867 49.1139C55.0287 50.7234 55.6725 52.191 57.2226 53.0455C57.8162 53.3726 59.7679 54.1284 60.3377 54.1475C64.2966 53.1488 65.5339 51.8977 66.426 47.8989C65.8725 46.0753 65.2469 43.8916 63.4456 42.9886C63.0793 42.805 60.6235 41.8072 60.3401 41.8482ZM65.8572 40.7006C66.2313 41.0416 66.6086 41.3792 66.989 41.7131C67.1622 41.9334 67.303 42.1769 67.573 42.2201C67.8738 41.913 67.8663 40.7907 67.6659 40.5253L67.4786 40.5012C66.8089 40.5364 66.51 40.5545 65.8572 40.7006ZM59.831 14.4189C54.3552 14.7123 53.058 26.2511 52.7166 30.2733C52.6038 31.6019 52.7908 33.7233 52.4858 34.9474C55.1303 35.0957 57.702 36.2251 60.2147 36.9629C60.3523 37.0034 60.5937 36.9456 60.728 36.8989C63.0382 35.9372 65.7629 35.1663 68.2473 34.962C68.0092 33.1707 67.9915 31.2572 67.8587 29.4441C67.5565 25.3173 65.9435 13.4755 59.831 14.4189ZM68.1798 61.0062C65.74 60.8363 63.1758 60.1048 60.9217 59.2054C60.7565 59.1395 60.4031 58.9835 60.2401 59.0346C57.3049 60.0524 55.7401 60.6882 52.5108 61.0064C52.681 62.6159 52.571 64.2687 52.7317 65.857C53.2116 70.5992 54.1956 81.7165 60.6814 81.6642C66.7988 80.7375 67.5829 69.4169 68.0272 64.5842C68.1336 63.4266 68.009 62.1473 68.1798 61.0062ZM52.9917 42.3894C53.23 42.1688 53.5812 41.863 53.7785 41.6229L54.6876 40.6944C54.0039 40.5838 53.5364 40.4844 52.8447 40.5323C52.9086 41.1392 52.993 41.7819 52.9917 42.3894ZM66.4946 55.3437C66.943 55.3765 67.4245 55.4026 67.8685 55.4532C67.7629 54.9666 67.7017 53.8152 67.5 53.6003C67.1182 54.1201 66.4312 54.7539 66.2081 55.1613L66.2359 55.3369L66.4946 55.3437ZM73.3575 40.2524C73.1361 42.7663 72.1526 45.592 71.3755 48.0425C72.0964 50.1487 73.2165 53.4753 73.3233 55.651C77.7586 55.7403 81.9269 55.538 86.2144 54.3433C87.3167 54.0362 88.7593 53.6791 89.7597 53.1561C96.2172 50.0832 94.7765 44.4795 88.5612 42.3741C83.6601 40.7672 78.5113 40.0488 73.3575 40.2524ZM54.3505 55.3864L54.4315 55.2516C54.2141 54.7194 53.5053 53.9346 52.9563 53.7341C52.9678 54.141 52.8726 55.1526 52.959 55.3253C53.232 55.5097 53.9677 55.4014 54.3505 55.3864Z" fill="#194522"/>
</svg>
