<svg width="400" height="130" viewBox="0 0 400 130" fill="none" xmlns="http://www.w3.org/2000/svg">
<path d="M45.8789 22.912C52.1892 22.662 56.189 24.0106 62.3992 25.2337C63.1428 26.0221 63.9047 26.7931 64.6841 27.5464C64.8236 29.1351 65.1973 38.0426 64.4079 38.8716C64.1804 38.5493 64.1336 38.4767 63.8163 38.2193C63.1425 38.6846 63.8694 38.7402 63.3419 39.4101C62.894 38.8019 62.5094 36.2806 62.1545 35.7133C60.984 33.8432 60.1223 33.0528 59.2125 30.9363C57.2473 30.0615 55.3573 28.1173 53.258 27.3483C50.6823 26.4047 47.8688 24.8142 45.0404 25.0693C44.2068 25.1447 44.2358 25.2909 43.8787 25.9348C42.866 26.593 39.4311 27.4414 38.1707 27.78C37.0203 29.1388 35.4346 30.2205 34.2171 31.6275C33.0703 32.9529 32.2368 34.508 31.4869 36.111C31.4399 36.2115 30.8314 36.3637 30.7307 36.7477C28.7573 44.2625 29.0006 52.6231 30.5752 60.1895C30.5424 60.4579 31.3915 60.8504 31.3874 60.8416C33.0572 64.4845 34.9142 67.5993 38.1238 70.2375C43.1554 74.3731 47.5866 74.9265 53.8473 74.4481C55.3351 72.4717 56.7413 72.4969 59.1352 72.0169C59.9215 70.1608 60.3886 70.0831 62.0571 68.9547C62.7629 66.9094 64.1486 66.0055 64.6954 64.245C65.6387 61.6595 64.9126 57.9632 65.6044 55.4638C66.3256 52.8583 67.2141 51.3672 67.7201 48.5281C68.4507 47.8078 68.9801 46.9394 69.6529 46.1126C71.4767 43.8721 73.8282 41.6006 76.3654 40.2046C77.16 39.7672 78.7877 39.3846 79.6178 39.1078C83.4096 37.8435 84.9852 38.0518 88.671 39.3297C89.2531 39.5316 90.6759 39.7841 91.6516 40.1173C93.0219 41.4015 94.9393 42.4279 96.4981 43.8793C100.489 47.5949 101.97 52.4773 102.19 57.7345C102.448 63.9142 101.648 69.8112 97.1075 74.3721C95.4802 76.0067 94.3211 77.0961 92.1839 78.2073C91.6471 78.4865 90.0134 79.6116 89.5973 79.7228C87.2109 80.3611 83.8251 79.9143 81.2849 80.164C80.2395 80.2666 77.7642 80.048 77.4012 79.0683C77.2748 78.8747 76.9026 78.2046 76.677 78.1775C72.5168 77.6774 69.9097 73.3604 68.0735 69.9963C67.7355 69.3773 67.2055 68.2803 66.6889 67.7341C66.3806 67.4082 66.2704 67.4406 65.8301 67.4521C65.4119 68.1339 64.9448 70.5748 64.7135 71.5414C62.9091 73.1026 61.178 75.4539 59.3398 76.7873C57.2732 78.2866 56.5551 77.5782 54.3494 79.6483C50.2167 80.506 42.7479 80.6746 38.7266 79.0307C30.9942 75.8697 26.7579 71.0849 23.6807 63.3218C21.5336 57.3911 21.6612 48.9802 22.8949 42.8384C23.6885 38.888 27.6875 32.9814 30.5982 30.2252C31.725 29.1583 31.6938 30.1942 32.6345 28.0957C34.6435 27.0084 36.513 25.4705 38.6148 24.7184C39.9494 24.2815 41.3284 25.115 42.3246 23.8144C42.8958 23.0684 44.9707 23.0028 45.8789 22.912ZM78.0241 42.7304C77.0476 45.0515 76.4755 44.9457 75.5109 46.7993C75.1075 47.5742 74.428 50.7299 74.1303 51.6707C72.4117 57.1005 72.2758 62.1765 74.1359 67.6153C74.5783 68.9088 74.9401 70.4649 75.4754 71.8401C76.3139 73.9939 77.979 74.646 78.6185 76.8548C80.4637 77.2452 82.2358 77.6463 84.1236 77.765C85.2574 77.6432 88.5334 77.5079 89.122 76.6395C90.3601 74.8127 89.8512 74.9692 91.8963 74.0834C92.0643 73.1949 92.2803 71.8291 92.5906 70.9939C92.9803 69.9457 94.1127 67.9758 94.2889 66.9147C94.9149 63.1451 95.128 55.5555 94.2253 51.9114C93.7798 50.1135 92.8337 48.5119 92.2157 45.7442C90.4507 44.1343 85.8668 40.2635 83.5403 39.9378C82.0821 41.6178 80.2027 42.3465 78.0241 42.7304Z" fill="#0D4333"/>
<path d="M283.818 41.9817C285.656 38.6101 286.32 40.2169 289.471 39.2782C289.512 39.2659 290.061 38.5818 290.088 38.5699C292.451 37.4621 294.709 38.5822 296.894 39.012C301.381 39.8941 304.208 42.0914 306.917 45.7216C307.606 46.6435 308.259 47.7349 309.212 48.486L309.276 48.5348C309.809 50.1356 310.125 52.6263 310.505 54.3978C311.309 57.1571 311.384 59.2736 311.341 62.0889C311.118 66.4685 308.287 72.6254 305.098 75.4674C303.777 76.644 302.772 77.1316 301.556 78.0481C298.02 80.7127 294.697 80.0847 290.578 80.0879C286.653 80.1328 282.413 76.9197 279.833 74.1174C271.797 65.3883 273.273 50.5746 281.697 42.5542C282.407 42.3725 283.114 42.1816 283.818 41.9817ZM303.837 63.874C303.945 63.45 303.996 62.7961 304.044 62.3438C304.39 61.0522 304.466 54.1521 303.506 53.3781C303.082 53.8626 303.151 54.3537 303.059 55.0812C302.788 52.8304 302.483 49.0313 301.502 47.0392C300.651 45.3115 299.845 44.8015 299.275 42.7349C296.467 42.1451 295.476 41.2417 292.951 40.0325C292.9 40.0084 287.799 42.8474 287.358 43.1833C284.731 45.1887 283.802 49.6089 282.768 52.6374C281.99 57.0736 282.231 62.8599 282.965 67.2971C283.043 67.7746 285.332 73.7721 285.522 74.2578C285.939 75.3368 287.085 74.1799 287.606 77.0901C290.855 77.5267 295.392 78.4439 298.061 76.2619C301.004 73.8584 302.204 70.7458 302.719 67.1369C302.833 66.3364 303.713 65.1351 303.804 64.3501C303.822 64.192 303.834 64.0331 303.837 63.874Z" fill="#0D4333"/>
<path d="M303.06 55.0813C303.152 54.3538 303.083 53.8626 303.507 53.3782C304.467 54.1521 304.391 61.0523 304.045 62.3439C304.063 60.1909 304.041 58.4747 303.895 56.3311C303.657 57.5622 303.493 58.5954 303.025 59.7708C303.185 58.2186 302.818 56.4217 303.06 55.0813Z" fill="#0D4333" fill-opacity="0.294118"/>
<path d="M303.895 56.3311C304.041 58.4747 304.063 60.1908 304.045 62.3438C303.996 62.7961 303.946 63.45 303.838 63.874C303.729 61.5875 302.826 62.7065 303.025 59.7708C303.493 58.5953 303.657 57.5622 303.895 56.3311Z" fill="#0D4333" fill-opacity="0.0470588"/>
<path d="M366.889 65.3962C364.786 64.6145 364.464 63.8417 362.772 63.1372C362.091 62.8536 359.591 62.3539 358.721 62.0947C351.873 60.0576 351.325 59.2813 347.434 53.5988C346.657 52.4632 346.948 49.9678 347.24 48.6223C347.644 46.7724 349.016 44.2335 350.226 42.7216C350.447 42.4457 351.393 42.1875 351.61 41.9226C352.418 40.9353 352.515 40.1305 353.924 39.7583C354.98 39.4796 357.228 39.9211 358.073 39.3845C358.071 39.0652 358.086 38.9016 358.129 38.5848C359.636 37.5729 369.455 40.1139 371.19 41.2314C373.017 42.4081 372.853 49.6861 371.914 50.9898C371.274 51.3535 371.534 51.2982 370.821 51.3078C369.982 50.8171 369.529 47.7812 369.067 46.3504C367.607 45.1588 367.17 44.7268 366.263 43.0831C363.913 42.647 361.757 41.4866 359.253 41.6179C354.025 41.8924 352.017 44.1061 352.109 49.1919C354.197 53.4723 360.572 54.7856 364.739 56.0645C374.1 58.9386 378.358 68.8613 370.903 76.2493C369.364 77.7749 367.746 77.7142 366.909 79.7622C357.13 81.1352 353.986 80.1356 347.553 72.8255C346.766 73.2021 346.805 73.4244 346.661 74.2956C346.423 73.718 346.025 71.5847 345.874 70.8642C345.451 72.0065 344.557 74.869 346.741 74.5833C346.803 75.8105 347.283 78.7427 346.622 79.5744C346.934 79.4934 337.61 79.5606 337.437 79.5377C336.363 77.9845 339.351 74.9914 339.312 73.2243C339.142 65.7772 339.817 57.9503 339.004 50.5762C338.91 49.7259 337.056 46.9538 336.615 45.6036C334.308 44.7184 332.361 43.9804 329.982 43.2704C327.925 43.6156 324.747 45.0867 323.308 46.6253C319.392 50.8145 320.145 56.0643 320.143 61.3492C320.139 65.4267 320.118 69.7073 320.291 73.8208C320.43 73.9635 320.567 74.1103 320.697 74.2606C322.169 75.9489 322.167 77.4966 322.018 79.6047C319.411 79.3033 314.908 79.5153 312.207 79.6513C312.213 77.3098 312.437 75.5905 313.971 73.8042C314.076 65.4669 314.984 57.3881 313.994 48.9975C313.752 46.947 311.442 43.8229 312.162 42.6642C313.214 40.9744 318.877 38.7866 320.879 39.8846C321.119 41.004 318.832 44.4894 320.551 45.4674C322.251 45.3413 321.716 44.6175 322.67 43.4961C326.649 38.827 333.7 37.9149 339.24 40.0441C344.386 42.0224 345.281 48.2626 345.375 53.0409C345.4 54.3831 346.436 57.0251 346.591 58.4845C347.051 63.1079 348.218 66.9871 350.698 70.9579C351.471 72.1867 352.297 72.8058 352.886 74.3028C354.937 75.0601 356.693 76.9119 358.703 77.2662C361.16 77.6994 364.122 77.3671 366.628 77.1893C367.678 76.0545 365.738 75.1019 369.334 74.2173C369.582 72.1111 369.65 70.4561 369.457 68.3511C368.306 67.1945 367.758 66.8108 366.889 65.3962Z" fill="#0D4333"/>
<path d="M345.873 70.8642C345.967 70.0955 346.053 69.3259 346.129 68.5554L347.551 72.8255C346.765 73.202 346.804 73.4244 346.659 74.2955C346.421 73.7179 346.023 71.5847 345.873 70.8642Z" fill="#000200"/>
<path d="M244.84 42.6897C243.783 42.5519 242.653 42.5076 242.003 41.676C242.005 41.3766 242.134 40.5248 242.376 40.3819C245.547 38.501 248.401 36.4647 250.745 33.5706C251.114 33.1152 251.598 32.8505 252.201 32.8325C252.886 33.7702 252.304 38.3077 252.162 39.558C255.641 39.849 259.575 39.3181 263.01 39.9068C263.271 41.6772 263.624 42.6676 261.294 42.5798C258.42 42.4717 255.173 42.8825 252.334 42.6038C252.54 48.9711 251.715 69.5241 253.27 74.0919C255.116 75.069 256.8 75.9468 258.561 77.0827C260.323 75.625 262.272 74.5278 263.812 72.7827C263.9 72.6816 264.444 72.5321 264.6 72.4991C264.828 73.4595 265.418 75.2984 264.809 76.1377C264.249 75.9262 262.988 76.6745 262.424 76.9476C262.065 77.7959 261.815 78.4898 261.144 79.1277L261.062 79.2037C259.61 80.5825 254.572 80.4639 252.708 79.9751C249.194 79.0534 246.702 75.4085 245.541 72.1583C245.026 70.7211 245.847 68.5786 243.861 70.1045C243.861 70.1045 243.263 69.9627 243.181 69.943C242.694 70.2526 242.424 71.6645 242.096 72.2327C239.476 76.7946 234.363 79.653 229.325 80.0715C221.507 80.7209 217.099 77.3552 212.667 71.3028C212.158 70.6081 212.117 68.4572 211.459 67.849C211.114 67.9073 210.113 68.0615 210.015 67.6528C209.258 64.4967 210.029 59.0953 210.242 55.832C211.926 53.8548 211.801 52.306 212.773 50.0044C214.787 45.2419 218.135 43.051 221.825 39.9333C223.607 39.6702 225.152 39.6036 226.942 39.3815C227.66 39.2927 228.376 38.3124 228.981 38.4454C231.961 39.0996 235.63 39.4311 238.5 40.2326C239.177 40.4217 239.946 42.4187 240.391 42.8554C240.455 42.9204 241.152 43.0119 241.575 43.4164C239.776 47.7005 242.372 47.7427 241.54 52.1514L241.269 52.0497C240.03 50.5598 237.569 47.4858 236.994 45.7248L236.958 45.6164C235.509 44.755 234.857 43.9622 233.733 42.7488C228.62 41.506 227.783 41.9446 222.877 42.4012C218.453 46.1292 215.452 50.8215 215.842 56.8562C216.484 66.8223 222.904 75.2959 233.631 74.5362C235.089 73.2489 237.044 72.5116 238.824 71.7138C239.702 70.0996 240.61 69.8119 241.585 68.5027C242.432 67.3668 242.647 66.0225 243.724 64.791C243.96 64.524 244.2 64.2619 244.446 64.0046C245.324 57.5124 245.299 49.2363 244.84 42.6897Z" fill="#0D4333"/>
<path d="M193.072 38.7089C195.11 38.2097 195.89 38.915 197.752 39.1197C205.323 39.953 210.024 46.4362 209.911 53.798C208.885 53.9983 206.258 53.8172 205.038 53.8997C203.489 54.0044 201.487 54.3985 200.033 54.4441C197.217 54.5327 194.156 54.5472 191.339 54.5195C188.618 54.4925 185.248 54.6395 182.581 54.4363C182.144 60.4729 184.118 61.5022 185.181 66.7883C190.939 72.6416 192.42 75.3866 201.391 74.4116C202.937 72.8778 205.226 72.1403 206.449 70.9254C207.064 69.9832 208.104 67.4154 209.095 67.1917C212.865 69.9961 203.389 79.1863 198.644 79.9269C186.857 81.7656 176.858 73.8413 177.159 61.6909C177.224 59.0498 176.945 55.3633 177.912 52.4889C179.331 48.2672 182.43 43.5325 186.58 41.4098C186.673 41.2029 186.775 40.9999 186.884 40.8012C188.178 38.3969 191.988 40.872 193.072 38.7089ZM194.062 52.5539C196.813 52.5835 199.686 52.5708 202.423 52.6655C202.287 51.0663 202.271 49.3287 202.129 47.8272C200.952 46.6262 199.652 44.6446 199.089 43.0598C196.915 42.4681 194.192 41.5577 191.962 42.0301C190.677 42.229 189.394 42.4412 188.113 42.6666C178.645 54.5265 182.008 52.5238 194.062 52.5539Z" fill="#0D4333"/>
<path d="M112.042 44.4909C113.839 45.6113 116.211 39.9383 118.881 39.5803C122.682 39.05 127.506 38.2294 130.936 40.521C137.254 44.7425 137.04 50.3902 137.203 56.8483C137.365 63.237 136.468 73.2185 137.903 79.2305C137.188 79.7179 129.417 79.5395 128.102 79.4189C127.345 78.6485 129.008 77.2142 129.547 76.6696C130.533 72.0167 130.263 53.1681 129.6 48.2837C129.563 48.2609 129.526 48.2382 129.489 48.2154C127.909 47.4531 127.526 45.9456 125.918 45.0122C123.148 43.4032 120.043 43.0134 117.169 44.6052C116.798 44.8104 115.92 44.9954 115.462 45.0958C113.865 47.2138 112.508 48.0916 112.112 50.9077C111.594 54.6008 111.711 58.3115 111.682 62.0348C111.774 65.4367 111.59 68.9939 111.877 72.3835C112.068 74.6341 112.615 77.205 112.951 79.4735C109.383 79.551 106.151 79.4345 102.516 79.6112C102.593 76.3356 104.372 76.3877 104.532 73.7721C105.112 64.3075 104.699 54.9976 104.591 45.588C103.303 45.3056 102.334 44.9976 102.043 43.5621C102.877 40.9299 109.452 39.522 111.949 39.365C112.013 40.3098 112.245 42.4392 112.025 43.2543C111.334 42.9886 111.563 42.9619 110.979 43.1891C110.468 43.9929 110.938 46.2429 111.148 47.2259C111.301 46.6536 111.7 44.7276 112.042 44.4909Z" fill="#0D4333"/>
<path d="M213.599 95.5411C214.782 95.5031 216.043 95.5122 217.233 95.4998L217.007 98.0396C210.233 97.6988 202.111 97.9387 195.207 97.9498L157.25 97.9495L27.5639 97.9276C26.0972 97.8886 24.3801 98.3088 23.3309 97.7324C22.8319 96.9877 22.9716 96.6758 22.8984 95.6709L136.843 95.6963L182.032 95.6739C192.465 95.6778 203.189 95.7902 213.599 95.5411Z" fill="#0D4333" fill-opacity="0.964706"/>
<path d="M152.516 42.5152C155.324 41.45 154.156 40.8422 155.518 40.1942C159.182 38.4515 165.319 38.9268 169.061 40.0191C173.123 44.4344 174.952 45.7553 174.904 52.0552C174.849 59.5025 174.668 67.3339 175.389 74.7447C175.511 75.9932 176.596 77.273 176.788 79.6392C175.032 79.4497 166.738 79.6802 166.072 79.1969C166.603 78.2871 166.988 77.5182 167.191 76.4815C168.093 71.8767 168.156 52.7185 167.013 48.0898C163.833 44.8806 164.075 44.8726 159.774 43.2552C157.603 43.4967 155.032 44.7002 152.687 45.2772C152.415 46.0728 151.869 48.123 150.99 48.3158L150.851 47.6424L150.468 47.4736L149.869 47.2495C149.977 47.1031 150.671 45.4312 150.947 44.9313C152.31 44.5679 152.176 43.7957 152.516 42.5152Z" fill="#0D4333"/>
<path d="M142.271 45.1627C141.26 44.908 140.691 44.8869 140.107 44.0341C139.771 41.3841 147.324 39.5863 149.26 39.0466L149.519 39.2896C149.884 40.5662 149.561 42.5978 149.386 43.956C149.215 44.9224 149.208 46.4588 149.87 47.2495L150.469 47.4736C149.292 49.9188 149.574 57.872 149.575 60.8864C149.578 65.967 149.4 71.6544 150.103 76.7084C150.147 77.0195 151.569 78.8729 151.868 79.2703L151.756 79.4015C149.175 79.577 140.146 80.0817 138.52 78.0164C138.918 77.69 140.08 78.1272 140.665 78.0285C141.124 77.951 141.558 77.7837 141.988 77.6211C142.689 72.0686 142.52 67.4397 142.502 61.8659C142.483 56.2767 142.535 50.7498 142.271 45.1627Z" fill="#0D4333"/>
<path d="M264.379 42.1458L264.469 42.128C267.078 41.5951 269.554 38.6239 271.759 39.3537C272.286 39.7712 272.473 40.1417 272.518 40.8268C272.752 44.3343 272.243 48.0157 272.313 51.512C272.466 58.9718 271.853 67.3105 272.709 74.6883C274.155 75.9559 274.37 76.4964 274.501 78.4345C274.526 78.823 274.548 79.2116 274.567 79.6004C271.064 79.382 268.504 79.456 265.015 79.827C264.99 79.4013 264.757 76.3428 264.808 76.1377C265.417 75.2983 264.828 73.4594 264.599 72.499C264.656 69.8016 266.11 67.4134 266.092 65.4697C266.041 60.3801 266.289 54.5787 265.985 49.5406C265.86 47.4625 264.664 44.6511 264.379 42.1458Z" fill="#0D4333"/>
<path d="M268.222 24.8173C269.461 24.7187 270.435 24.6627 271.438 25.4981C273.245 27.0019 275.381 29.1961 274.08 31.725C274.027 31.8275 272.659 32.6622 272.591 32.8835C272.206 33.4381 271.945 34.4121 271.416 34.7267C270.124 34.9547 269.242 34.9497 267.948 34.9678C266.842 33.1527 266.766 33.0469 264.854 32.1549C264.721 30.4559 264.736 29.6577 264.854 27.9574C266.239 26.8469 267.48 25.3564 268.222 24.8173Z" fill="#0D4333"/>
<path d="M310.099 100.52C310.062 99.3689 310.001 92.4124 310.552 91.9285C311.166 92.1436 311.412 92.1231 312.07 92.1311C312.066 93.2823 312.041 94.4935 312.117 95.6372C313.02 95.5601 316.741 95.5552 317.093 95.3063L317.204 95.1152C317.653 95.9708 317.649 95.8671 318.683 95.6989C317.124 96.7939 317.528 99.2321 315.988 100.006L315.561 99.7718C314.911 98.8528 314.862 98.1464 314.667 97.0336C313.881 97.0754 313.237 97.0732 312.452 97.0586L312.138 100.006L310.099 100.52Z" fill="#065741" fill-opacity="0.984314"/>
<path d="M354.993 100.391C354.287 97.229 354.17 98.5645 352.421 96.2579C351.336 94.8283 351.926 95.3548 350.222 95.3797C349.229 94.6021 347.32 91.8153 348.821 90.7813C352.002 90.3782 351.805 92.8596 352.952 94.6948C353.077 94.8921 353.934 95.3854 354.193 95.53C355.51 96.9099 356.529 99.3373 357.249 99.994C356.783 99.9916 355.512 100.284 354.993 100.391Z" fill="#065741" fill-opacity="0.984314"/>
<path d="M324.682 100.112C324.738 98.8735 324.793 98.2174 325.22 97.0468C325.89 95.2175 323.901 91.5209 325.63 90.0462C326.247 89.9882 326.319 90.0015 326.852 90.3165C327.25 91.0598 326.84 93.2524 327.16 94.7923C327.418 95.7076 328.011 96.7095 328.983 97L329.16 97.2616C328.764 97.6061 327.968 97.7556 327.435 97.8991C326.721 99.1862 327.109 98.8633 326.781 100.105C326.254 100.434 325.343 100.202 324.682 100.112Z" fill="#065741" fill-opacity="0.984314"/>
<path d="M302.063 91.2603C303.001 92.1952 303.272 92.4162 304.402 93.1052C304.465 94.2303 304.814 97.5586 303.895 98.3839C302.972 99.2119 299.846 101.52 298.482 101.774C298.212 101.824 297.943 101.459 297.717 101.237L297.691 100.844C298.439 100.831 299.182 101.024 299.696 100.68C299.842 100.088 299.537 99.5061 299.959 99.1463C302.547 96.9398 303.181 96.6285 301.836 93.1248C301.733 92.8577 301.161 92.6598 300.878 92.562C301.502 92.5218 301.565 92.6204 301.992 92.3086L302.063 91.2603Z" fill="#09694D" fill-opacity="0.984314"/>
<path d="M368.231 90.2422C369.863 90.1823 370.92 90.2079 372.534 90.4394C371.338 93.3265 370.243 92.137 367.322 92.1104C366.83 93.804 366.809 94.5182 365.398 95.5859C364.452 96.1307 364.29 95.0614 363.24 96.8166L362.871 96.8642L362.664 96.5574C362.775 95.7204 362.945 95.7569 363.341 95.1608C364.998 92.6638 365.082 91.0154 368.231 90.2422Z" fill="#09694D" fill-opacity="0.976471"/>
<path d="M340.242 90.142C340.804 90.1255 341.319 90.0568 341.809 90.3326C342.195 91.7056 342.035 98.5942 342.012 100.41C341.444 100.365 340.211 100.377 339.889 100.068C339.653 98.5382 339.862 91.5639 340.242 90.142Z" fill="#065741" fill-opacity="0.984314"/>
<path d="M247.568 93.457C248.335 93.5298 248.083 93.4174 248.68 93.855C248.946 94.5681 249.038 95.239 249.582 95.5497C251.096 95.4584 252.613 95.4076 254.131 95.3971C254.025 96.1074 253.957 96.846 253.674 97.5019C253.061 97.725 253.018 97.4708 252.39 97.2337C251.625 96.9446 250.804 96.9721 250.002 96.9866C249.801 97.96 250.05 98.9791 249.613 99.6484C249.071 100.087 248.089 100.092 247.357 100.168C247.49 97.9422 247.664 95.6825 247.568 93.457Z" fill="#065741" fill-opacity="0.980392"/>
<path d="M296.669 94.0755C291.841 97.7001 296.852 96.2313 298.199 99.5638L298.066 99.7155C296.938 99.1994 296.532 99.7532 295.211 99.6809C295.199 99.6118 295.188 99.5429 295.172 99.4744C294.979 98.5453 294.403 97.7946 293.648 97.2041C293.375 96.9892 293.16 97.1631 292.708 97.2656C292.214 96.0251 294.758 92.2018 295.601 91.2007C296.366 91.5456 296.542 91.676 297.184 92.1757C297.157 92.8272 296.889 93.4571 296.669 94.0755Z" fill="#09694D" fill-opacity="0.972549"/>
<path d="M310.506 54.3977L310.801 54.2692L310.875 53.6704L311.165 53.5724L311.917 53.9817L312.414 53.3112L312.727 53.2759C313.261 53.9768 313.07 62.3852 313.008 63.8184C312.204 64.8726 312.403 64.3079 312.112 65.7088C311.794 65.101 311.899 62.9023 311.341 62.0887C311.384 59.2734 311.31 57.1569 310.506 54.3977ZM312.853 60.4257C312.869 59.4966 313.185 55.7835 312.389 55.3309C312.338 56.4138 311.928 59.8465 312.853 60.4257Z" fill="#000200" fill-opacity="0.203922"/>
<path d="M312.39 55.3311C313.186 55.7837 312.87 59.4967 312.854 60.4258C311.929 59.8467 312.339 56.414 312.39 55.3311Z" fill="#000200" fill-opacity="0.529412"/>
<path d="M310.552 91.9284C310.544 91.6443 310.451 91.0176 310.652 90.8807C311.986 89.977 315.382 90.2405 316.834 90.3418C317.604 92.3252 317.965 91.6242 319.347 92.975C320.057 93.6701 319.345 95.1335 318.683 95.6988C317.649 95.867 317.653 95.9707 317.204 95.1151C317.046 94.1764 317.208 93.456 317.351 92.5175C315.485 92.2481 313.953 92.1944 312.07 92.131C311.413 92.123 311.167 92.1435 310.552 91.9284Z" fill="#09694D" fill-opacity="0.984314"/>
<path d="M261.766 92.1575C261.024 92.1054 260.679 92.2135 260.169 91.8024C260.007 91.2024 259.916 91.251 260.091 90.7665C261.393 90.0966 268.346 89.5674 269.107 90.9812C268.935 91.6201 269.062 91.405 268.603 91.8721C268.147 91.9558 267.688 92.0341 267.228 92.1065C264.191 92.5914 264.47 92.2781 261.766 92.1575Z" fill="#09694D" fill-opacity="0.980392"/>
<path d="M237.863 95.7375C238.431 95.9868 239.305 96.3131 239.729 96.757C240.205 97.2559 240.109 97.6848 240.689 97.7582C240.878 97.1665 241.023 96.8499 240.902 96.2313L240.623 96.093L239.885 96.4783C239.196 95.2234 240.693 92.9911 239.102 92.5422C238.966 92.5047 238.829 92.4709 238.691 92.441C238.681 91.492 239.678 90.6909 240.568 90.543C240.935 90.7157 241.233 90.8139 241.358 91.3323C241.803 93.1873 241.462 95.8901 241.183 97.7855C241.073 98.5222 240.724 99.2155 240.623 99.9693C238.786 99.522 239.787 98.5186 238.345 96.7919L237.863 95.7375Z" fill="#002618" fill-opacity="0.988235"/>
<path d="M284.95 95.0371C285.091 94.0902 285.778 93.0576 286.312 92.2971C286.668 93.9975 287.159 93.2077 287.571 93.8692C286.615 96.1594 286.595 101.132 283.272 100.062C282.146 98.9779 282.716 98.0343 283.42 96.9033L283.916 99.5767C284.287 98.0794 284.691 96.5553 284.95 95.0371Z" fill="#065741" fill-opacity="0.976471"/>
<path d="M373.659 95.3215L374.022 95.5038C374.747 98.2057 372.898 99.4704 370.796 100.768C369.906 101.317 369.205 101.831 368.132 101.793L367.43 100.903L367.541 100.718C367.992 100.728 368.441 100.745 368.891 100.77C370.253 98.0896 370.29 97.4501 373.249 96.5776C373.543 96.4904 373.598 95.6668 373.659 95.3215Z" fill="#09694D" fill-opacity="0.964706"/>
<path d="M354.191 95.5301C354.254 95.2906 354.367 94.8135 354.459 94.6121C354.947 93.5529 354.439 91.1655 355.304 90.335C356.332 90.7933 356.459 94.3185 356.674 95.4664C356.923 96.7899 357.692 98.5642 357.638 99.7646L357.396 100.021L357.247 99.994C356.527 99.3374 355.509 96.9099 354.191 95.5301Z" fill="#000200"/>
<path d="M280.69 89.9995C282.636 90.2337 282.964 93.2815 282.343 94.8324C281.664 95.4552 281.576 95.2916 280.503 95.4755L280.076 96.1585C279.937 95.9811 280.002 94.652 279.541 93.5443L279.506 93.4615C279.81 92.2755 279.834 90.6357 280.69 89.9995Z" fill="#065741"/>
<path d="M263.492 93.0723L263.816 96.4521C264.48 95.7537 265.083 95.1277 265.686 94.3752C265.809 95.9247 265.92 97.4751 266.016 99.0265L265.856 99.3698C264.536 99.9929 264.236 98.8735 263.198 100.228C262.575 99.6133 262.958 97.0254 263.03 96.1318C263.249 95.04 263.366 94.1804 263.492 93.0723Z" fill="#065741" fill-opacity="0.721569"/>
<path d="M247.762 92.1492L247.799 92.0489C248.084 91.2706 247.861 90.5787 248.259 90.5113C249.731 90.2638 253.29 90.0712 254.59 90.2578C254.611 90.7401 254.504 91.3395 254.436 91.8275C253.942 92.2337 250.583 92.0942 249.779 92.0752L247.762 92.1492Z" fill="#09694D" fill-opacity="0.984314"/>
<path d="M295.602 91.2006C296.987 90.0343 301.159 89.3013 302.063 91.2601L301.992 92.3085C301.565 92.6202 301.503 92.5217 300.878 92.5619C299.463 91.9706 298.665 91.9331 297.184 92.1756C296.542 91.6759 296.367 91.5455 295.602 91.2006Z" fill="#09694D" fill-opacity="0.984314"/>
<path d="M276.052 92.1455L276.436 93.0571C276.801 96.0875 277.34 96.5934 277.086 99.9988C275.486 99.2856 275.261 97.01 274.885 95.4326C275.08 94.3668 275.226 92.8226 276.052 92.1455Z" fill="#0D4333" fill-opacity="0.976471"/>
<path d="M261.766 92.1574C264.47 92.278 264.191 92.5913 267.228 92.1064C266.804 92.3009 266.252 92.4469 266.145 92.8519C265.588 94.9452 266.394 96.8554 266.016 99.0263C265.92 97.4749 265.809 95.9245 265.686 94.375C265.083 95.1275 264.48 95.7535 263.817 96.4519L263.493 93.0721C263.366 94.1802 263.249 95.0398 263.03 96.1316C262.938 95.0475 263.126 94.4445 263.219 93.3971C263.313 92.3499 262.562 92.3534 261.766 92.1574Z" fill="#065741" fill-opacity="0.431373"/>
<path d="M232.123 93.2903C232.314 93.6211 232.903 94.4843 232.859 94.7888C232.531 95.488 232.431 96.2205 232.821 96.8856C233.337 97.2143 234.027 97.1188 234.656 97.104C234.867 97.382 234.441 99.6538 234.369 100.227C233.61 100.141 232.683 100.104 231.906 100.054C232.055 97.4518 232.24 95.9305 232.123 93.2903Z" fill="#0D4333" fill-opacity="0.956863"/>
<path d="M328.982 96.9998C329.152 96.6368 329.457 96.5386 329.825 96.342C331.15 97.4892 334.081 98.5593 334.046 101.011C333.679 101.365 333.845 101.272 333.276 101.306C332.809 100.568 333.387 100.385 332.93 99.8265C332.062 100.126 332.052 100.27 331.258 100.036C330.167 99.1759 330.011 97.4558 329.16 97.2614L328.982 96.9998Z" fill="#065741" fill-opacity="0.968627"/>
<path d="M235.456 94.2515C236.5 95.3221 237.189 94.2456 237.862 95.7375L238.344 96.7919C238.239 97.5614 238.221 98.1909 237.771 98.8229C237.246 97.9157 236.643 97.4023 235.888 96.6764L234.646 94.8343C234.922 94.7145 235.214 94.4467 235.456 94.2515Z" fill="#0D4333" fill-opacity="0.964706"/>
<path d="M232.176 91.9498C232.365 91.2778 232.453 90.6897 232.999 90.2538C234.535 89.9194 235.167 92.6709 235.38 93.8163C235.407 93.9611 235.433 94.1062 235.456 94.2514C235.214 94.4466 234.921 94.7144 234.646 94.8342C233.793 93.2875 233.63 92.9334 232.176 91.9498Z" fill="#0D4333" fill-opacity="0.980392"/>
<path d="M363.98 96.6157C364.943 96.921 365.684 97.1084 366.67 97.3301C367.304 98.6274 368.061 98.7311 366.951 99.8626C366.787 100.088 366.632 100.091 366.338 100.208C364.786 100.053 364.267 97.9409 363.98 96.6157Z" fill="#09694D" fill-opacity="0.984314"/>
<path d="M348.156 94.4043C348.638 94.8628 348.647 97.0492 348.698 97.8138C350.006 98.1679 350.222 98.0824 351.545 98.2167L351.549 98.4228L350.792 98.9566C350.095 99.6998 348.844 99.7169 347.795 99.8688C347.763 98.1023 347.65 96.0797 348.156 94.4043Z" fill="#09694D" fill-opacity="0.960784"/>
<path d="M274.885 95.4325C274.461 93.362 272.695 91.6857 272.97 90.4575C273.111 90.4659 275.94 92.0191 276.052 92.1454C275.226 92.8225 275.08 94.3667 274.885 95.4325Z" fill="#065741" fill-opacity="0.839216"/>
<path d="M329.498 94.2791C330.749 94.7061 330.448 95.118 330.936 95.2964C330.628 95.9318 330.458 95.9082 329.826 96.3421C329.457 96.5386 329.153 96.6368 328.983 96.9999C328.011 96.7094 327.418 95.7075 327.16 94.7922C328.222 94.9316 328.674 95.0833 329.498 94.2791Z" fill="#0D4333" fill-opacity="0.980392"/>
<path d="M232.176 91.9497C233.63 92.9333 233.793 93.2874 234.646 94.8341L235.887 96.6762C234.291 96.153 234.065 95.9383 232.857 94.7886C232.902 94.4841 232.312 93.621 232.121 93.2901L232.176 91.9497Z" fill="#000200" fill-opacity="0.988235"/>
<path d="M276.436 93.0569C277.132 94.7951 278.49 96.2395 278.606 96.8374C277.917 97.8489 278.036 99.0757 277.727 100.106L277.085 99.9986C277.339 96.5932 276.8 96.0873 276.436 93.0569Z" fill="#000200"/>
<path d="M278.607 96.8374C278.948 97.0168 279.075 97.067 279.471 96.9926C279.779 97.4097 279.649 98.7003 279.571 99.2348C279.53 99.496 279.479 99.7556 279.418 100.013C278.96 100.238 278.462 99.9303 277.729 100.106C278.037 99.0757 277.918 97.8489 278.607 96.8374Z" fill="#0D4333" fill-opacity="0.988235"/>
<path d="M331.701 91.4099C331.939 92.3041 331.473 92.0316 331.963 93.225L330.936 95.2964C330.448 95.118 330.749 94.7062 329.498 94.2791C330.14 92.73 330.341 92.3753 331.701 91.4099Z" fill="#065741" fill-opacity="0.968627"/>
<path d="M331.701 91.4098C332.302 90.4672 333.077 89.6687 334.297 90.2381C334.101 91.6193 332.694 92.0678 331.963 93.2249C331.473 92.0315 331.939 92.304 331.701 91.4098Z" fill="#065741" fill-opacity="0.933333"/>
<path d="M247.763 92.1492L249.78 92.0752C249.431 93.8435 249.734 94.4343 249.581 95.5499C249.037 95.2391 248.945 94.5682 248.68 93.8552C248.083 93.4176 248.334 93.53 247.568 93.4572C247.509 92.8353 247.536 92.7369 247.763 92.1492Z" fill="#000200" fill-opacity="0.984314"/>
<path d="M249.336 101.013C249.556 100.986 249.777 100.964 249.999 100.948C251.073 100.869 253.541 100.689 254.328 101.367L254.322 101.809C253.186 101.967 249.925 102.127 249.336 101.013Z" fill="#000200" fill-opacity="0.968627"/>
<path d="M238.345 96.7917C239.787 98.5184 238.786 99.5218 240.622 99.9691C239.819 100.1 239.128 100.241 238.363 99.9682C237.799 99.4187 237.961 99.6557 237.771 98.8228C238.222 98.1907 238.24 97.5612 238.345 96.7917Z" fill="#0D4333" fill-opacity="0.984314"/>
<path d="M111.147 47.2258C110.937 46.2428 110.467 43.9928 110.978 43.189C111.562 42.9618 111.333 42.9885 112.024 43.2542C112.036 43.6163 112.069 44.1437 112.041 44.4907C111.699 44.7275 111.3 46.6535 111.147 47.2258Z" fill="#0D4333" fill-opacity="0.0313725"/>
<path d="M286.312 92.2971L287.234 91.0732C287.499 91.3245 287.762 91.5782 288.024 91.8345C287.997 92.2407 287.87 92.9772 287.907 93.2907C287.837 93.4218 287.661 93.7757 287.571 93.8692C287.159 93.2077 286.668 93.9975 286.312 92.2971Z" fill="#065741" fill-opacity="0.913725"/>
<path d="M283.42 96.9034C283.484 96.0812 284.351 95.5313 284.95 95.0371C284.69 96.5553 284.286 98.0794 283.916 99.5768L283.42 96.9034Z" fill="#000200"/>
<path d="M287.234 91.0733C287.675 90.5679 287.798 90.4002 288.372 90.0657L288.961 90.1758C289.529 91.1492 288.479 92.5115 287.908 93.2907C287.871 92.9772 287.997 92.2407 288.025 91.8345C287.763 91.5782 287.5 91.3245 287.234 91.0733Z" fill="#065741" fill-opacity="0.960784"/>
<path d="M149.869 47.2496C149.207 46.4588 149.214 44.9225 149.385 43.9561C149.759 44.625 150.106 44.5787 150.947 44.9314C150.671 45.4313 149.977 47.1032 149.869 47.2496Z" fill="#000200" fill-opacity="0.988235"/>
<path d="M345.873 70.8643C346.023 71.5847 346.421 73.718 346.659 74.2956L346.739 74.5833C344.555 74.8691 345.449 72.0065 345.873 70.8643Z" fill="#0D4333" fill-opacity="0.0313725"/>
</svg>
